<svg width="35" height="534" viewBox="0 0 35 534" fill="none" xmlns="http://www.w3.org/2000/svg">
<path d="M9.8907 0.431973C9.4427 0.431973 9.1227 0.431973 8.9627 0.463972C8.2267 0.559973 7.8747 1.00797 7.9707 1.74397C8.0027 1.93597 8.0347 2.35197 8.1307 2.95997C8.1947 3.56797 8.2587 4.07997 8.3227 4.49597C8.3547 4.91197 8.3547 5.32797 8.3227 5.71197C8.3227 6.76797 8.3547 8.36797 8.3867 10.448C8.4507 12.528 8.4507 14.416 8.4187 16.08C8.3867 17.744 8.2907 19.344 8.1307 20.848C8.0347 21.552 8.3227 21.936 8.9947 22C10.2747 22.032 11.3947 22.032 12.3867 21.968C12.7707 21.936 13.0267 21.808 13.1867 21.584C13.3467 21.36 13.4107 21.04 13.3787 20.592C13.2507 18.768 13.1867 17.392 13.1867 16.496C13.1867 15.632 13.4427 14.96 13.9227 14.416C14.4027 13.904 15.1067 13.584 15.9387 13.488C16.1947 13.456 16.5147 13.456 16.9307 13.456C17.1547 13.456 17.8907 13.456 19.1707 13.456C20.4507 13.456 21.4427 13.456 22.1467 13.456C22.7227 13.424 23.1707 13.36 23.4587 13.296C23.9387 13.136 24.2267 12.912 24.3547 12.656C24.7067 11.632 24.7067 10.576 24.3547 9.48797C24.2907 9.32797 24.0347 9.13597 23.6187 8.97597C23.3947 8.87997 23.1067 8.84797 22.7547 8.84797C22.4667 8.84797 21.7627 8.87997 20.6427 8.91197C19.5227 8.91197 18.6907 8.94397 18.0827 8.94397C17.2507 8.94397 16.3227 8.84797 15.2667 8.68797C14.9787 8.65597 14.6267 8.49597 14.2747 8.20797C13.8907 7.88797 13.6987 7.50397 13.6987 7.05597C13.6667 6.63997 13.8587 6.22397 14.2747 5.90397C14.5627 5.61597 14.9147 5.39197 15.2987 5.29597C16.0347 5.13597 16.7067 5.07197 17.3467 5.07197C20.0027 5.00797 22.3707 5.00797 24.4187 5.07197C25.1227 5.07197 25.9867 5.16797 27.0107 5.35997C27.5227 5.45597 27.8427 5.42397 28.0347 5.32797C28.1947 5.23197 28.3227 4.94397 28.3867 4.46397C28.3867 4.23997 28.3867 3.37597 28.3227 1.93597C28.2907 1.45597 28.1947 1.07197 28.0027 0.847973C27.8107 0.623972 27.4587 0.431973 26.9787 0.335972C26.6587 0.271973 26.2747 0.271973 25.9227 0.271973C25.6347 0.271973 25.0907 0.303972 24.2587 0.335972C23.4587 0.367971 22.8187 0.399973 22.4027 0.399973C22.0187 0.431973 20.0027 0.431973 16.2907 0.431973C12.7707 0.431973 10.6267 0.431973 9.8907 0.431973Z" fill="#35292B"/>
<path d="M14.3321 64.4C11.0041 64.4 9.14807 64.4 8.82807 64.432C8.18807 64.432 7.77207 64.528 7.61207 64.752C7.42007 64.944 7.42007 65.36 7.58007 65.968C7.67607 66.416 7.74007 66.768 7.74007 67.024C7.93207 70.864 8.02808 73.328 8.06008 74.416C8.12408 76.368 8.12408 78.48 8.06008 80.848C8.02808 82.096 7.93208 83.216 7.77208 84.208C7.64408 85.008 7.64407 85.52 7.80407 85.712C7.96407 85.904 8.47607 86 9.27607 86C10.6521 86 12.6681 85.968 15.2921 85.936C17.9161 85.872 19.8361 85.872 21.0521 85.872C21.4041 85.84 22.2041 85.84 23.4521 85.84C24.7321 85.84 25.5001 85.84 25.8521 85.84C26.2681 85.84 26.5881 85.808 26.8121 85.808C27.2281 85.712 27.5481 85.584 27.7081 85.36C27.9001 85.168 27.9961 84.848 27.9961 84.432C28.0281 83.536 28.0281 82.672 27.9961 81.808C27.9961 81.392 27.9001 81.104 27.7081 80.912C27.5161 80.752 27.1961 80.72 26.7481 80.816C26.6521 80.816 26.4281 80.848 26.0761 80.912C25.7241 81.008 25.4681 81.04 25.2441 81.04C22.0121 81.136 19.0681 81.2 16.3801 81.2C15.9001 81.232 15.3561 81.136 14.7481 80.944C14.5881 80.912 14.4281 80.848 14.2681 80.72C14.1081 80.624 13.9801 80.496 13.8841 80.336C13.7881 80.208 13.6921 80.048 13.6281 79.888C13.5641 79.728 13.5321 79.536 13.5321 79.344C13.5321 78.608 13.9161 78.096 14.6521 77.776C15.0681 77.584 15.4841 77.488 15.8041 77.488C15.9001 77.456 16.3161 77.456 17.0201 77.456C17.7561 77.456 18.1401 77.488 18.2361 77.488C20.6361 77.456 22.1721 77.424 22.8121 77.424C23.0361 77.424 23.2601 77.36 23.4521 77.232C23.6761 77.136 23.8361 76.976 23.9641 76.816C24.0921 76.624 24.1561 76.432 24.1881 76.208C24.2521 75.568 24.2201 74.832 24.1561 74.096C24.0921 73.456 23.7081 73.072 23.0681 72.976C22.3641 72.88 21.8521 72.816 21.5321 72.848C21.1801 72.848 20.5081 72.88 19.5161 72.912C18.5241 72.944 17.7881 72.976 17.2441 72.976C16.5081 72.944 15.6761 72.848 14.8121 72.624C14.0121 72.432 13.5641 71.952 13.5321 71.12C13.4681 70.256 13.8201 69.68 14.5881 69.424C15.2921 69.168 15.9641 69.04 16.6041 69.04C19.0361 69.008 21.5001 69.008 23.9961 69.04C24.5721 69.04 25.4681 69.168 26.6201 69.36C27.0681 69.456 27.3881 69.424 27.6121 69.296C27.8041 69.168 27.9321 68.88 27.9641 68.432C28.0281 67.504 28.0281 66.576 27.9321 65.648C27.9001 65.2 27.7721 64.88 27.5801 64.72C27.3561 64.528 27.0361 64.4 26.5881 64.336C26.3321 64.304 25.8201 64.272 25.0521 64.304C24.8921 64.304 24.6681 64.336 24.3481 64.368C24.0601 64.4 23.8041 64.4 23.6441 64.4C22.9081 64.4 18.3961 64.4 14.3321 64.4Z" fill="#35292B"/>
<path d="M27.2086 149.936C28.0086 149.808 28.2646 149.36 27.9126 148.56C26.2166 144.528 25.1286 141.904 24.6166 140.688C24.3286 139.984 23.4326 137.68 21.9286 133.776C21.8966 133.68 21.8006 133.424 21.6406 133.008C21.4806 132.592 21.3526 132.304 21.3206 132.144C21.2566 131.984 21.1926 131.76 21.0646 131.408C20.9686 131.056 20.9046 130.768 20.8406 130.512C20.7766 130.224 20.7446 129.968 20.7446 129.68C20.7126 129.392 20.6166 129.136 20.4566 128.912C20.2966 128.72 20.0726 128.592 19.7846 128.592C18.1526 128.464 16.8086 128.4 15.7846 128.432C15.3366 128.464 15.0166 128.592 14.7926 128.816C14.6006 129.04 14.4406 129.392 14.3446 129.84C14.2166 130.704 14.0566 131.376 13.8646 131.856C12.3286 135.824 11.1126 138.928 10.1846 141.2C9.76857 142.192 8.74458 144.592 7.08057 148.368C6.85658 148.848 6.82457 149.2 6.92057 149.424C7.01657 149.616 7.33657 149.776 7.88057 149.84C8.07257 149.84 8.93657 149.904 10.5046 149.968C11.5286 150 12.2006 149.52 12.5206 148.528C12.9366 147.376 13.7366 146.768 14.9846 146.704C15.9126 146.672 17.5766 146.704 19.9766 146.8C21.1926 146.864 22.0566 147.472 22.5366 148.688C22.7606 149.36 23.2406 149.712 23.9446 149.808C24.0406 149.808 24.7126 149.872 25.9926 150C26.3446 150 26.7606 149.968 27.2086 149.936ZM18.0886 138.352C18.2806 138.416 18.4726 138.512 18.6006 138.64C18.7606 138.768 18.8886 138.896 18.9846 139.056C19.0806 139.216 19.1766 139.408 19.2406 139.6C19.2726 139.824 19.3046 140.048 19.3046 140.272C19.3046 140.816 19.1126 141.296 18.7926 141.648C18.4726 142 18.0246 142.192 17.5126 142.192C16.9686 142.192 16.5206 142.032 16.2006 141.648C15.8486 141.296 15.6886 140.816 15.6886 140.208C15.6886 139.824 15.7526 139.504 15.9126 139.216C16.0726 138.896 16.2966 138.672 16.5526 138.512C16.8406 138.352 17.1606 138.256 17.5126 138.256C17.7046 138.256 17.8966 138.288 18.0886 138.352Z" fill="#35292B"/>
<path d="M7.7557 212.656C7.7237 213.424 7.9797 213.84 8.5237 213.872C9.8357 213.904 10.9557 213.904 11.9157 213.84C12.6197 213.776 12.9397 213.328 12.8757 212.496C12.7797 210.992 12.7157 209.712 12.7157 208.656C12.7157 208.208 12.8437 207.696 13.0677 207.152C13.4197 206.256 14.0597 205.808 15.0517 205.808C16.0117 205.808 16.8117 206.224 17.4197 207.088C18.7317 208.88 19.7237 210.736 20.3637 212.656C20.5237 213.136 20.7477 213.456 20.9717 213.616C21.1957 213.776 21.5477 213.872 22.0597 213.904C22.1877 213.904 22.4757 213.936 22.8917 213.968C23.3077 214 23.6277 214 23.8837 214C24.3957 214 24.8437 213.968 25.2597 213.904C25.8677 213.744 26.0597 213.36 25.8037 212.784C25.7717 212.72 25.7397 212.656 25.7077 212.592C25.6757 212.528 25.6117 212.464 25.5797 212.4C25.5477 212.336 25.5157 212.272 25.4517 212.24C24.3637 210.192 23.7877 209.072 23.6597 208.88C22.7957 207.088 23.2117 205.648 24.9077 204.592C25.2277 204.368 25.4517 204.24 25.5157 204.176C26.9877 203.216 27.8837 201.84 28.2037 200.112C28.3957 198.992 28.3317 197.776 27.9477 196.432C27.4357 194.576 26.2517 193.424 24.4277 192.976C23.0517 192.688 21.8677 192.528 20.8757 192.496C19.7557 192.464 16.0117 192.464 9.6437 192.464C9.3237 192.464 9.0677 192.496 8.8437 192.528C8.2997 192.592 7.9477 192.72 7.8197 192.912C7.6597 193.136 7.5957 193.52 7.6597 194.064C7.8197 195.248 7.8837 196.208 7.8837 197.008C7.9157 197.456 7.9157 199.632 7.9157 203.6C7.9157 207.248 7.9157 209.328 7.9157 209.776C7.8837 210.192 7.8517 211.152 7.7557 212.656ZM14.3477 200.496C13.6757 200.208 13.3557 199.696 13.3557 198.96C13.3557 198.288 13.7077 197.776 14.3797 197.424C14.7957 197.232 15.1477 197.104 15.4997 197.104C16.0437 197.104 17.5477 197.168 19.9477 197.232C20.0117 197.232 20.1077 197.264 20.2677 197.264C20.7797 197.392 21.1957 197.616 21.4837 197.904C21.7397 198.192 21.8997 198.576 21.8997 198.992C21.8997 199.408 21.7717 199.76 21.5157 200.048C21.2597 200.368 20.8757 200.56 20.3637 200.656C20.0117 200.72 19.4677 200.784 18.7957 200.816C18.0917 200.848 17.6437 200.848 17.4517 200.88C16.3637 200.88 15.7877 200.88 15.7237 200.848C15.2117 200.816 14.7637 200.688 14.3477 200.496Z" fill="#35292B"/>
<path d="M34.1696 263.408C33.7856 262.576 33.3056 261.904 32.5056 261.456C31.8016 261.072 31.0336 260.944 30.2656 260.912C29.0176 260.848 27.7376 260.88 26.4896 260.88C25.6896 260.88 25.3696 261.2 25.3696 262C25.4336 264.048 25.4016 266.096 25.4016 268.144C25.4016 268.4 25.3376 268.656 25.3056 268.944C25.3056 269.232 25.2736 269.52 25.3056 269.84C25.3376 270.192 25.6576 270.416 26.1376 270.416C26.9376 270.448 27.7056 270.448 28.5056 270.448C29.2416 270.448 29.9776 270.48 30.6816 270.416C31.1296 270.384 31.6096 270.32 31.9936 270.128C33.6256 269.296 34.4256 267.888 34.5856 266.128C34.6816 265.2 34.5536 264.272 34.1696 263.408ZM31.9936 267.12C31.7056 267.664 31.2576 267.984 30.6816 268.144H30.6496C29.9776 268.272 29.2736 268.272 28.6336 268.144C28.6016 268.144 28.6016 268.144 28.6016 268.144C28.0256 268.016 27.7696 267.6 27.6096 267.088C27.3216 266.128 27.5136 265.168 27.7056 264.208C27.8016 263.632 28.2176 263.312 28.8256 263.184C29.6896 262.96 30.5216 263.088 31.2576 263.632C31.7376 263.984 31.9936 264.464 32.1536 265.008C32.3776 265.744 32.3776 266.448 31.9936 267.12ZM20.5376 261.168C20.3776 261.136 20.1856 261.136 20.0256 261.136C19.2576 261.072 18.8416 261.552 19.0016 262.352C19.0976 262.992 19.0976 263.632 18.9696 264.272C18.8416 264.848 18.5216 265.136 18.0096 265.008C17.7536 264.944 17.5296 264.784 17.3696 264.624C17.0176 264.272 16.6976 263.888 16.3776 263.536C15.8656 263.056 15.4816 262.512 15.1936 261.872C15.0336 261.552 14.8096 261.264 14.4256 261.2C14.0416 261.168 13.6576 261.104 13.3056 261.168C12.9216 261.2 12.6016 261.392 12.6016 261.84C12.6016 262.032 12.6016 262.224 12.6336 262.448C12.6656 263.184 12.7296 263.952 12.7296 264.72C12.7616 266.032 12.7616 267.344 12.7296 268.656C12.7296 268.816 12.6976 268.976 12.6656 269.104C12.5376 269.68 12.7296 270.224 13.2096 270.352C13.5616 270.448 13.9776 270.448 14.3296 270.384C14.7136 270.288 14.8416 270.064 14.8416 269.648C14.8416 269.424 14.8096 269.168 14.8096 268.944C14.8096 268.4 14.8096 267.888 14.8416 267.344C14.8736 266.704 15.4816 266.352 16.0256 266.672C16.2176 266.768 16.3776 266.896 16.5056 267.024C16.8576 267.376 17.1776 267.76 17.5296 268.112C17.9776 268.592 18.3616 269.072 18.6496 269.648C18.8096 270.032 19.0976 270.352 19.5456 270.416C19.8016 270.448 20.0576 270.448 20.3136 270.416C20.9216 270.416 21.2736 270.096 21.2416 269.488C21.2416 269.072 21.1456 268.656 21.1456 268.24C21.1776 267.184 21.2096 266.096 21.2416 265.04C21.2416 264.528 21.2416 264.048 21.2416 263.536C21.2416 263.088 21.2736 262.608 21.2416 262.128C21.2096 261.456 21.0496 261.296 20.5376 261.168ZM7.28958 265.072C6.87358 263.952 6.48958 262.864 6.07358 261.776C5.97758 261.488 5.81757 261.2 5.52958 261.136C5.11357 261.072 4.66558 261.04 4.24958 261.008C3.73758 261.008 3.35357 261.328 3.19357 261.808C2.93757 262.544 2.68157 263.28 2.39357 263.984C1.94557 265.168 1.49757 266.288 1.01757 267.44C0.729575 268.144 0.441575 268.848 0.153575 269.52C0.0255747 269.808 0.153575 270.064 0.345575 270.224C0.857575 270.576 2.04157 270.512 2.45757 269.904C2.74557 269.456 3.16157 269.104 3.70557 269.072C4.28157 269.04 4.88958 269.04 5.46558 269.072C5.91358 269.072 6.32958 269.296 6.58558 269.68C6.96958 270.256 7.51358 270.384 7.96158 270.416C9.04958 270.448 9.24158 269.936 9.01758 269.328C8.47357 267.888 7.86558 266.48 7.28958 265.072ZM4.63357 266.768C4.31358 266.768 4.02557 266.448 4.02557 266.128C4.02557 265.84 4.31358 265.584 4.63357 265.584C4.98558 265.584 5.17758 265.808 5.17758 266.192C5.17758 266.544 4.98558 266.768 4.63357 266.768Z" fill="#35292B"/>
<path d="M27.0709 341.872C27.615 341.84 28.031 341.712 28.2549 341.488C28.511 341.232 28.639 340.848 28.639 340.304C28.639 339.664 28.607 338.896 28.511 337.968C28.447 337.424 28.319 337.072 28.159 336.944C27.967 336.816 27.583 336.784 27.007 336.88C25.4069 337.104 24.2229 337.2 23.423 337.232C21.9509 337.264 19.775 337.264 16.927 337.232C16.383 337.232 15.8069 337.168 15.1989 336.976C14.0789 336.72 13.4069 336.016 13.1829 334.832C13.0549 334.032 12.9909 333.36 12.9909 332.784C13.0229 330.928 13.0869 327.888 13.1509 323.664C13.1509 323.12 13.183 322.544 13.247 321.936C13.311 321.424 13.2469 321.072 13.0549 320.816C12.8949 320.592 12.5429 320.496 12.0309 320.464C11.1669 320.432 10.2069 320.4 9.15095 320.432C8.86295 320.464 8.63895 320.496 8.47895 320.592C8.35095 320.656 8.22295 320.784 8.15895 320.976C8.09495 321.136 8.09495 321.392 8.12695 321.68C8.12695 321.712 8.15895 322.032 8.25495 322.608C8.31895 323.184 8.35095 323.6 8.35095 323.888C8.44695 326.992 8.51095 330.448 8.54295 334.256C8.54295 334.416 8.51095 334.768 8.44695 335.248C8.41495 335.76 8.41495 336.112 8.44695 336.368C8.57495 337.776 8.54295 339.28 8.28695 340.816C8.22295 341.136 8.25495 341.392 8.38295 341.552C8.54295 341.712 8.76695 341.808 9.11895 341.872C10.0789 341.968 10.7829 342 11.2629 342C12.2869 342 13.3429 341.968 14.3989 341.968C15.4549 341.936 16.799 341.904 18.431 341.872C20.0309 341.84 21.087 341.84 21.535 341.84V341.872C24.895 341.872 26.7509 341.872 27.0709 341.872Z" fill="#35292B"/>
<path d="M13.969 405.968C15.6649 406.448 17.4249 406.576 19.1849 406.32C21.521 406.032 23.5049 405.232 25.1049 403.856C26.7369 402.512 27.7929 400.752 28.273 398.512C28.721 396.496 28.785 394.48 28.433 392.464C28.049 390.032 27.281 388.112 26.193 386.672C24.273 384.208 21.7129 383.024 18.5129 383.152C16.3369 383.216 14.3209 383.856 12.4329 385.008C10.3529 386.352 8.84895 388.08 7.85695 390.192C7.31295 391.408 6.96095 393.04 6.80095 395.056C6.70495 396.208 6.76895 397.296 6.92895 398.352C6.99295 398.672 7.05695 398.96 7.12095 399.216C8.14495 402.704 10.4169 404.944 13.969 405.968ZM16.177 402.192C14.513 401.808 13.3289 400.72 12.5929 398.992C12.0809 397.84 11.9209 396.496 12.0169 394.96C12.2089 392.56 12.7849 390.768 13.7129 389.52C15.089 387.76 16.7849 387.056 18.8329 387.376C20.3049 387.632 21.4569 388.56 22.2889 390.16C22.993 391.472 23.281 392.944 23.249 394.512C23.249 394.768 23.249 395.024 23.249 395.344C23.3449 397.488 22.5449 399.312 20.8809 400.848C19.4089 402.16 17.841 402.608 16.177 402.192Z" fill="#35292B"/>
<path d="M19.1148 470C19.6588 470 20.0428 469.872 20.2348 469.68C20.4588 469.456 20.6188 469.104 20.6828 468.528C20.8428 467.632 21.0348 466.896 21.2588 466.32C22.3468 463.472 23.5628 460.464 24.8108 457.36C25.5148 455.696 26.5708 453.2 28.0108 449.872C28.3948 448.944 28.1068 448.464 27.1788 448.432C26.3148 448.4 25.2908 448.4 24.1068 448.432C23.8188 448.432 23.5948 448.464 23.4348 448.56C23.2428 448.624 23.1148 448.752 22.9868 448.912C22.8588 449.072 22.7948 449.296 22.7308 449.584C22.6988 449.648 22.6348 449.872 22.5708 450.256C22.4748 450.672 22.3788 450.96 22.3148 451.152C21.5788 453.072 20.7788 455.056 19.9148 457.2C19.7548 457.616 19.5308 458.064 19.2108 458.48C18.7308 459.12 18.1548 459.44 17.4828 459.44C16.8108 459.44 16.2348 459.12 15.7548 458.448C15.5628 458.192 15.4028 457.872 15.2748 457.488C14.4428 455.568 13.8668 454.224 13.5788 453.392C13.0668 452.144 12.6508 450.928 12.2668 449.744C12.1388 449.328 11.9468 449.008 11.7228 448.816C11.5308 448.592 11.2108 448.496 10.7948 448.464C9.73882 448.4 8.68283 448.4 7.65882 448.464C7.21082 448.496 6.95482 448.624 6.82682 448.848C6.69882 449.104 6.73082 449.424 6.95482 449.808C6.98682 449.904 7.08283 450.064 7.24283 450.352C7.37083 450.608 7.49882 450.832 7.56282 450.992C8.49082 453.232 9.83483 456.56 11.6268 460.976C12.1708 462.32 12.5548 463.312 12.8108 463.984C12.8428 464.144 13.0028 464.496 13.2268 465.072C13.4508 465.616 13.6108 466.032 13.7068 466.32C13.8028 466.576 13.8988 466.928 14.0268 467.408C14.1548 467.856 14.2508 468.272 14.2828 468.656C14.3148 469.136 14.4428 469.456 14.6668 469.648C14.8908 469.84 15.2428 469.968 15.7228 469.968C15.8188 469.968 19.0508 470 19.1148 470Z" fill="#35292B"/>
<path d="M14.3321 512.4C11.0041 512.4 9.14807 512.4 8.82807 512.432C8.18807 512.432 7.77207 512.528 7.61207 512.752C7.42007 512.944 7.42007 513.36 7.58007 513.968C7.67607 514.416 7.74007 514.768 7.74007 515.024C7.93207 518.864 8.02808 521.328 8.06008 522.416C8.12408 524.368 8.12408 526.48 8.06008 528.848C8.02808 530.096 7.93208 531.216 7.77208 532.208C7.64408 533.008 7.64407 533.52 7.80407 533.712C7.96407 533.904 8.47607 534 9.27607 534C10.6521 534 12.6681 533.968 15.2921 533.936C17.9161 533.872 19.8361 533.872 21.0521 533.872C21.4041 533.84 22.2041 533.84 23.4521 533.84C24.7321 533.84 25.5001 533.84 25.8521 533.84C26.2681 533.84 26.5881 533.808 26.8121 533.808C27.2281 533.712 27.5481 533.584 27.7081 533.36C27.9001 533.168 27.9961 532.848 27.9961 532.432C28.0281 531.536 28.0281 530.672 27.9961 529.808C27.9961 529.392 27.9001 529.104 27.7081 528.912C27.5161 528.752 27.1961 528.72 26.7481 528.816C26.6521 528.816 26.4281 528.848 26.0761 528.912C25.7241 529.008 25.4681 529.04 25.2441 529.04C22.0121 529.136 19.0681 529.2 16.3801 529.2C15.9001 529.232 15.3561 529.136 14.7481 528.944C14.5881 528.912 14.4281 528.848 14.2681 528.72C14.1081 528.624 13.9801 528.496 13.8841 528.336C13.7881 528.208 13.6921 528.048 13.6281 527.888C13.5641 527.728 13.5321 527.536 13.5321 527.344C13.5321 526.608 13.9161 526.096 14.6521 525.776C15.0681 525.584 15.4841 525.488 15.8041 525.488C15.9001 525.456 16.3161 525.456 17.0201 525.456C17.7561 525.456 18.1401 525.488 18.2361 525.488C20.6361 525.456 22.1721 525.424 22.8121 525.424C23.0361 525.424 23.2601 525.36 23.4521 525.232C23.6761 525.136 23.8361 524.976 23.9641 524.816C24.0921 524.624 24.1561 524.432 24.1881 524.208C24.2521 523.568 24.2201 522.832 24.1561 522.096C24.0921 521.456 23.7081 521.072 23.0681 520.976C22.3641 520.88 21.8521 520.816 21.5321 520.848C21.1801 520.848 20.5081 520.88 19.5161 520.912C18.5241 520.944 17.7881 520.976 17.2441 520.976C16.5081 520.944 15.6761 520.848 14.8121 520.624C14.0121 520.432 13.5641 519.952 13.5321 519.12C13.4681 518.256 13.8201 517.68 14.5881 517.424C15.2921 517.168 15.9641 517.04 16.6041 517.04C19.0361 517.008 21.5001 517.008 23.9961 517.04C24.5721 517.04 25.4681 517.168 26.6201 517.36C27.0681 517.456 27.3881 517.424 27.6121 517.296C27.8041 517.168 27.9321 516.88 27.9641 516.432C28.0281 515.504 28.0281 514.576 27.9321 513.648C27.9001 513.2 27.7721 512.88 27.5801 512.72C27.3561 512.528 27.0361 512.4 26.5881 512.336C26.3321 512.304 25.8201 512.272 25.0521 512.304C24.8921 512.304 24.6681 512.336 24.3481 512.368C24.0601 512.4 23.8041 512.4 23.6441 512.4C22.9081 512.4 18.3961 512.4 14.3321 512.4Z" fill="#35292B"/>
</svg>
