<svg width="35" height="534" viewBox="0 0 35 534" fill="none" xmlns="http://www.w3.org/2000/svg">
<path d="M9.89021 0.431973C9.44221 0.431973 9.12221 0.431973 8.96221 0.463972C8.22621 0.559973 7.87421 1.00797 7.97021 1.74397C8.00221 1.93597 8.03421 2.35197 8.13021 2.95997C8.19421 3.56797 8.25821 4.07997 8.32221 4.49597C8.35421 4.91197 8.35421 5.32797 8.32221 5.71197C8.32221 6.76797 8.35421 8.36797 8.38621 10.448C8.45021 12.528 8.45021 14.416 8.41821 16.08C8.38621 17.744 8.29021 19.344 8.13021 20.848C8.03421 21.552 8.32221 21.936 8.99421 22C10.2742 22.032 11.3942 22.032 12.3862 21.968C12.7702 21.936 13.0262 21.808 13.1862 21.584C13.3462 21.36 13.4102 21.04 13.3782 20.592C13.2502 18.768 13.1862 17.392 13.1862 16.496C13.1862 15.632 13.4422 14.96 13.9222 14.416C14.4022 13.904 15.1062 13.584 15.9382 13.488C16.1942 13.456 16.5142 13.456 16.9302 13.456C17.1542 13.456 17.8902 13.456 19.1702 13.456C20.4502 13.456 21.4422 13.456 22.1462 13.456C22.7222 13.424 23.1702 13.36 23.4582 13.296C23.9382 13.136 24.2262 12.912 24.3542 12.656C24.7062 11.632 24.7062 10.576 24.3542 9.48797C24.2902 9.32797 24.0342 9.13597 23.6182 8.97597C23.3942 8.87997 23.1062 8.84797 22.7542 8.84797C22.4662 8.84797 21.7622 8.87997 20.6422 8.91197C19.5222 8.91197 18.6902 8.94397 18.0822 8.94397C17.2502 8.94397 16.3222 8.84797 15.2662 8.68797C14.9782 8.65597 14.6262 8.49597 14.2742 8.20797C13.8902 7.88797 13.6982 7.50397 13.6982 7.05597C13.6662 6.63997 13.8582 6.22397 14.2742 5.90397C14.5622 5.61597 14.9142 5.39197 15.2982 5.29597C16.0342 5.13597 16.7062 5.07197 17.3462 5.07197C20.0022 5.00797 22.3702 5.00797 24.4182 5.07197C25.1222 5.07197 25.9862 5.16797 27.0102 5.35997C27.5222 5.45597 27.8422 5.42397 28.0342 5.32797C28.1942 5.23197 28.3222 4.94397 28.3862 4.46397C28.3862 4.23997 28.3862 3.37597 28.3222 1.93597C28.2902 1.45597 28.1942 1.07197 28.0022 0.847973C27.8102 0.623972 27.4582 0.431973 26.9782 0.335972C26.6582 0.271973 26.2742 0.271973 25.9222 0.271973C25.6342 0.271973 25.0902 0.303972 24.2582 0.335972C23.4582 0.367971 22.8182 0.399973 22.4022 0.399973C22.0182 0.431973 20.0022 0.431973 16.2902 0.431973C12.7702 0.431973 10.6262 0.431973 9.89021 0.431973Z" fill="#F2F2F2"/>
<path d="M14.3316 64.4C11.0036 64.4 9.14759 64.4 8.82759 64.432C8.18759 64.432 7.77159 64.528 7.61159 64.752C7.41959 64.944 7.41959 65.36 7.57959 65.968C7.67559 66.416 7.73959 66.768 7.73959 67.024C7.93159 70.864 8.02759 73.328 8.05959 74.416C8.12359 76.368 8.12359 78.48 8.05959 80.848C8.02759 82.096 7.93159 83.216 7.77159 84.208C7.64359 85.008 7.64359 85.52 7.80359 85.712C7.96359 85.904 8.47559 86 9.27559 86C10.6516 86 12.6676 85.968 15.2916 85.936C17.9156 85.872 19.8356 85.872 21.0516 85.872C21.4036 85.84 22.2036 85.84 23.4516 85.84C24.7316 85.84 25.4996 85.84 25.8516 85.84C26.2676 85.84 26.5876 85.808 26.8116 85.808C27.2276 85.712 27.5476 85.584 27.7076 85.36C27.8996 85.168 27.9956 84.848 27.9956 84.432C28.0276 83.536 28.0276 82.672 27.9956 81.808C27.9956 81.392 27.8996 81.104 27.7076 80.912C27.5156 80.752 27.1956 80.72 26.7476 80.816C26.6516 80.816 26.4276 80.848 26.0756 80.912C25.7236 81.008 25.4676 81.04 25.2436 81.04C22.0116 81.136 19.0676 81.2 16.3796 81.2C15.8996 81.232 15.3556 81.136 14.7476 80.944C14.5876 80.912 14.4276 80.848 14.2676 80.72C14.1076 80.624 13.9796 80.496 13.8836 80.336C13.7876 80.208 13.6916 80.048 13.6276 79.888C13.5636 79.728 13.5316 79.536 13.5316 79.344C13.5316 78.608 13.9156 78.096 14.6516 77.776C15.0676 77.584 15.4836 77.488 15.8036 77.488C15.8996 77.456 16.3156 77.456 17.0196 77.456C17.7556 77.456 18.1396 77.488 18.2356 77.488C20.6356 77.456 22.1716 77.424 22.8116 77.424C23.0356 77.424 23.2596 77.36 23.4516 77.232C23.6756 77.136 23.8356 76.976 23.9636 76.816C24.0916 76.624 24.1556 76.432 24.1876 76.208C24.2516 75.568 24.2196 74.832 24.1556 74.096C24.0916 73.456 23.7076 73.072 23.0676 72.976C22.3636 72.88 21.8516 72.816 21.5316 72.848C21.1796 72.848 20.5076 72.88 19.5156 72.912C18.5236 72.944 17.7876 72.976 17.2436 72.976C16.5076 72.944 15.6756 72.848 14.8116 72.624C14.0116 72.432 13.5636 71.952 13.5316 71.12C13.4676 70.256 13.8196 69.68 14.5876 69.424C15.2916 69.168 15.9636 69.04 16.6036 69.04C19.0356 69.008 21.4996 69.008 23.9956 69.04C24.5716 69.04 25.4676 69.168 26.6196 69.36C27.0676 69.456 27.3876 69.424 27.6116 69.296C27.8036 69.168 27.9316 68.88 27.9636 68.432C28.0276 67.504 28.0276 66.576 27.9316 65.648C27.8996 65.2 27.7716 64.88 27.5796 64.72C27.3556 64.528 27.0356 64.4 26.5876 64.336C26.3316 64.304 25.8196 64.272 25.0516 64.304C24.8916 64.304 24.6676 64.336 24.3476 64.368C24.0596 64.4 23.8036 64.4 23.6436 64.4C22.9076 64.4 18.3956 64.4 14.3316 64.4Z" fill="#F2F2F2"/>
<path d="M27.2081 149.936C28.0081 149.808 28.2641 149.36 27.9121 148.56C26.2161 144.528 25.1281 141.904 24.6161 140.688C24.3281 139.984 23.4321 137.68 21.9281 133.776C21.8961 133.68 21.8001 133.424 21.6401 133.008C21.4801 132.592 21.3521 132.304 21.3201 132.144C21.2561 131.984 21.1921 131.76 21.0641 131.408C20.9681 131.056 20.9041 130.768 20.8401 130.512C20.7761 130.224 20.7441 129.968 20.7441 129.68C20.7121 129.392 20.6161 129.136 20.4561 128.912C20.2961 128.72 20.0721 128.592 19.7841 128.592C18.1521 128.464 16.8081 128.4 15.7841 128.432C15.3361 128.464 15.0161 128.592 14.7921 128.816C14.6001 129.04 14.4401 129.392 14.3441 129.84C14.2161 130.704 14.0561 131.376 13.8641 131.856C12.3281 135.824 11.1121 138.928 10.1841 141.2C9.76809 142.192 8.74409 144.592 7.08009 148.368C6.85609 148.848 6.82409 149.2 6.92009 149.424C7.01609 149.616 7.33609 149.776 7.88009 149.84C8.07209 149.84 8.93609 149.904 10.5041 149.968C11.5281 150 12.2001 149.52 12.5201 148.528C12.9361 147.376 13.7361 146.768 14.9841 146.704C15.9121 146.672 17.5761 146.704 19.9761 146.8C21.1921 146.864 22.0561 147.472 22.5361 148.688C22.7601 149.36 23.2401 149.712 23.9441 149.808C24.0401 149.808 24.7121 149.872 25.9921 150C26.3441 150 26.7601 149.968 27.2081 149.936ZM18.0881 138.352C18.2801 138.416 18.4721 138.512 18.6001 138.64C18.7601 138.768 18.8881 138.896 18.9841 139.056C19.0801 139.216 19.1761 139.408 19.2401 139.6C19.2721 139.824 19.3041 140.048 19.3041 140.272C19.3041 140.816 19.1121 141.296 18.7921 141.648C18.4721 142 18.0241 142.192 17.5121 142.192C16.9681 142.192 16.5201 142.032 16.2001 141.648C15.8481 141.296 15.6881 140.816 15.6881 140.208C15.6881 139.824 15.7521 139.504 15.9121 139.216C16.0721 138.896 16.2961 138.672 16.5521 138.512C16.8401 138.352 17.1601 138.256 17.5121 138.256C17.7041 138.256 17.8961 138.288 18.0881 138.352Z" fill="#F2F2F2"/>
<path d="M7.75521 212.656C7.72321 213.424 7.97921 213.84 8.52321 213.872C9.83521 213.904 10.9552 213.904 11.9152 213.84C12.6192 213.776 12.9392 213.328 12.8752 212.496C12.7792 210.992 12.7152 209.712 12.7152 208.656C12.7152 208.208 12.8432 207.696 13.0672 207.152C13.4192 206.256 14.0592 205.808 15.0512 205.808C16.0112 205.808 16.8112 206.224 17.4192 207.088C18.7312 208.88 19.7232 210.736 20.3632 212.656C20.5232 213.136 20.7472 213.456 20.9712 213.616C21.1952 213.776 21.5472 213.872 22.0592 213.904C22.1872 213.904 22.4752 213.936 22.8912 213.968C23.3072 214 23.6272 214 23.8832 214C24.3952 214 24.8432 213.968 25.2592 213.904C25.8672 213.744 26.0592 213.36 25.8032 212.784C25.7712 212.72 25.7392 212.656 25.7072 212.592C25.6752 212.528 25.6112 212.464 25.5792 212.4C25.5472 212.336 25.5152 212.272 25.4512 212.24C24.3632 210.192 23.7872 209.072 23.6592 208.88C22.7952 207.088 23.2112 205.648 24.9072 204.592C25.2272 204.368 25.4512 204.24 25.5152 204.176C26.9872 203.216 27.8832 201.84 28.2032 200.112C28.3952 198.992 28.3312 197.776 27.9472 196.432C27.4352 194.576 26.2512 193.424 24.4272 192.976C23.0512 192.688 21.8672 192.528 20.8752 192.496C19.7552 192.464 16.0112 192.464 9.64321 192.464C9.32321 192.464 9.06721 192.496 8.84321 192.528C8.29921 192.592 7.94721 192.72 7.81921 192.912C7.65921 193.136 7.59521 193.52 7.65921 194.064C7.81921 195.248 7.88321 196.208 7.88321 197.008C7.91521 197.456 7.91521 199.632 7.91521 203.6C7.91521 207.248 7.91521 209.328 7.91521 209.776C7.88321 210.192 7.85121 211.152 7.75521 212.656ZM14.3472 200.496C13.6752 200.208 13.3552 199.696 13.3552 198.96C13.3552 198.288 13.7072 197.776 14.3792 197.424C14.7952 197.232 15.1472 197.104 15.4992 197.104C16.0432 197.104 17.5472 197.168 19.9472 197.232C20.0112 197.232 20.1072 197.264 20.2672 197.264C20.7792 197.392 21.1952 197.616 21.4832 197.904C21.7392 198.192 21.8992 198.576 21.8992 198.992C21.8992 199.408 21.7712 199.76 21.5152 200.048C21.2592 200.368 20.8752 200.56 20.3632 200.656C20.0112 200.72 19.4672 200.784 18.7952 200.816C18.0912 200.848 17.6432 200.848 17.4512 200.88C16.3632 200.88 15.7872 200.88 15.7232 200.848C15.2112 200.816 14.7632 200.688 14.3472 200.496Z" fill="#F2F2F2"/>
<path d="M34.1691 263.408C33.7851 262.576 33.3051 261.904 32.5051 261.456C31.8011 261.072 31.0331 260.944 30.2651 260.912C29.0171 260.848 27.7371 260.88 26.4891 260.88C25.6891 260.88 25.3691 261.2 25.3691 262C25.4331 264.048 25.4011 266.096 25.4011 268.144C25.4011 268.4 25.3371 268.656 25.3051 268.944C25.3051 269.232 25.2731 269.52 25.3051 269.84C25.3371 270.192 25.6571 270.416 26.1371 270.416C26.9371 270.448 27.7051 270.448 28.5051 270.448C29.2411 270.448 29.9771 270.48 30.6811 270.416C31.1291 270.384 31.6091 270.32 31.9931 270.128C33.6251 269.296 34.4251 267.888 34.5851 266.128C34.6811 265.2 34.5531 264.272 34.1691 263.408ZM31.9931 267.12C31.7051 267.664 31.2571 267.984 30.6811 268.144H30.6491C29.9771 268.272 29.2731 268.272 28.6331 268.144C28.6011 268.144 28.6011 268.144 28.6011 268.144C28.0251 268.016 27.7691 267.6 27.6091 267.088C27.3211 266.128 27.5131 265.168 27.7051 264.208C27.8011 263.632 28.2171 263.312 28.8251 263.184C29.6891 262.96 30.5211 263.088 31.2571 263.632C31.7371 263.984 31.9931 264.464 32.1531 265.008C32.3771 265.744 32.3771 266.448 31.9931 267.12ZM20.5371 261.168C20.3771 261.136 20.1851 261.136 20.0251 261.136C19.2571 261.072 18.8411 261.552 19.0011 262.352C19.0971 262.992 19.0971 263.632 18.9691 264.272C18.8411 264.848 18.5211 265.136 18.0091 265.008C17.7531 264.944 17.5291 264.784 17.3691 264.624C17.0171 264.272 16.6971 263.888 16.3771 263.536C15.8651 263.056 15.4811 262.512 15.1931 261.872C15.0331 261.552 14.8091 261.264 14.4251 261.2C14.0411 261.168 13.6571 261.104 13.3051 261.168C12.9211 261.2 12.6011 261.392 12.6011 261.84C12.6011 262.032 12.6011 262.224 12.6331 262.448C12.6651 263.184 12.7291 263.952 12.7291 264.72C12.7611 266.032 12.7611 267.344 12.7291 268.656C12.7291 268.816 12.6971 268.976 12.6651 269.104C12.5371 269.68 12.7291 270.224 13.2091 270.352C13.5611 270.448 13.9771 270.448 14.3291 270.384C14.7131 270.288 14.8411 270.064 14.8411 269.648C14.8411 269.424 14.8091 269.168 14.8091 268.944C14.8091 268.4 14.8091 267.888 14.8411 267.344C14.8731 266.704 15.4811 266.352 16.0251 266.672C16.2171 266.768 16.3771 266.896 16.5051 267.024C16.8571 267.376 17.1771 267.76 17.5291 268.112C17.9771 268.592 18.3611 269.072 18.6491 269.648C18.8091 270.032 19.0971 270.352 19.5451 270.416C19.8011 270.448 20.0571 270.448 20.3131 270.416C20.9211 270.416 21.2731 270.096 21.2411 269.488C21.2411 269.072 21.1451 268.656 21.1451 268.24C21.1771 267.184 21.2091 266.096 21.2411 265.04C21.2411 264.528 21.2411 264.048 21.2411 263.536C21.2411 263.088 21.2731 262.608 21.2411 262.128C21.2091 261.456 21.0491 261.296 20.5371 261.168ZM7.28909 265.072C6.87309 263.952 6.48909 262.864 6.07309 261.776C5.97709 261.488 5.81709 261.2 5.52909 261.136C5.11309 261.072 4.66509 261.04 4.24909 261.008C3.73709 261.008 3.35309 261.328 3.19309 261.808C2.93709 262.544 2.68109 263.28 2.39309 263.984C1.94509 265.168 1.49709 266.288 1.01709 267.44C0.729086 268.144 0.441086 268.848 0.153086 269.52C0.0250864 269.808 0.153086 270.064 0.345086 270.224C0.857086 270.576 2.04109 270.512 2.45709 269.904C2.74509 269.456 3.16109 269.104 3.70509 269.072C4.28109 269.04 4.88909 269.04 5.46509 269.072C5.91309 269.072 6.32909 269.296 6.58509 269.68C6.96909 270.256 7.51309 270.384 7.96109 270.416C9.04909 270.448 9.24109 269.936 9.01709 269.328C8.47309 267.888 7.86509 266.48 7.28909 265.072ZM4.63309 266.768C4.31309 266.768 4.02509 266.448 4.02509 266.128C4.02509 265.84 4.31309 265.584 4.63309 265.584C4.98509 265.584 5.17709 265.808 5.17709 266.192C5.17709 266.544 4.98509 266.768 4.63309 266.768Z" fill="#F2F2F2"/>
<path d="M27.0705 341.872C27.6145 341.84 28.0305 341.712 28.2545 341.488C28.5105 341.232 28.6385 340.848 28.6385 340.304C28.6385 339.664 28.6065 338.896 28.5105 337.968C28.4465 337.424 28.3185 337.072 28.1585 336.944C27.9665 336.816 27.5825 336.784 27.0065 336.88C25.4065 337.104 24.2225 337.2 23.4225 337.232C21.9505 337.264 19.7745 337.264 16.9265 337.232C16.3825 337.232 15.8065 337.168 15.1985 336.976C14.0785 336.72 13.4065 336.016 13.1825 334.832C13.0545 334.032 12.9905 333.36 12.9905 332.784C13.0225 330.928 13.0865 327.888 13.1505 323.664C13.1505 323.12 13.1825 322.544 13.2465 321.936C13.3105 321.424 13.2465 321.072 13.0545 320.816C12.8945 320.592 12.5425 320.496 12.0305 320.464C11.1665 320.432 10.2065 320.4 9.15046 320.432C8.86246 320.464 8.63846 320.496 8.47846 320.592C8.35046 320.656 8.22246 320.784 8.15846 320.976C8.09446 321.136 8.09446 321.392 8.12646 321.68C8.12646 321.712 8.15846 322.032 8.25446 322.608C8.31846 323.184 8.35046 323.6 8.35046 323.888C8.44646 326.992 8.51046 330.448 8.54246 334.256C8.54246 334.416 8.51046 334.768 8.44646 335.248C8.41446 335.76 8.41446 336.112 8.44646 336.368C8.57446 337.776 8.54246 339.28 8.28646 340.816C8.22246 341.136 8.25446 341.392 8.38246 341.552C8.54246 341.712 8.76646 341.808 9.11846 341.872C10.0785 341.968 10.7825 342 11.2625 342C12.2865 342 13.3425 341.968 14.3985 341.968C15.4545 341.936 16.7985 341.904 18.4305 341.872C20.0305 341.84 21.0865 341.84 21.5345 341.84V341.872C24.8945 341.872 26.7505 341.872 27.0705 341.872Z" fill="#F2F2F2"/>
<path d="M13.9685 405.968C15.6645 406.448 17.4245 406.576 19.1845 406.32C21.5205 406.032 23.5045 405.232 25.1045 403.856C26.7365 402.512 27.7925 400.752 28.2725 398.512C28.7205 396.496 28.7845 394.48 28.4325 392.464C28.0485 390.032 27.2805 388.112 26.1925 386.672C24.2725 384.208 21.7125 383.024 18.5125 383.152C16.3365 383.216 14.3205 383.856 12.4325 385.008C10.3525 386.352 8.84846 388.08 7.85646 390.192C7.31246 391.408 6.96046 393.04 6.80046 395.056C6.70446 396.208 6.76846 397.296 6.92846 398.352C6.99246 398.672 7.05646 398.96 7.12046 399.216C8.14446 402.704 10.4165 404.944 13.9685 405.968ZM16.1765 402.192C14.5125 401.808 13.3285 400.72 12.5925 398.992C12.0805 397.84 11.9205 396.496 12.0165 394.96C12.2085 392.56 12.7845 390.768 13.7125 389.52C15.0885 387.76 16.7845 387.056 18.8325 387.376C20.3045 387.632 21.4565 388.56 22.2885 390.16C22.9925 391.472 23.2805 392.944 23.2485 394.512C23.2485 394.768 23.2485 395.024 23.2485 395.344C23.3445 397.488 22.5445 399.312 20.8805 400.848C19.4085 402.16 17.8405 402.608 16.1765 402.192Z" fill="#F2F2F2"/>
<path d="M19.1143 470C19.6583 470 20.0423 469.872 20.2343 469.68C20.4583 469.456 20.6183 469.104 20.6823 468.528C20.8423 467.632 21.0343 466.896 21.2583 466.32C22.3463 463.472 23.5623 460.464 24.8103 457.36C25.5143 455.696 26.5703 453.2 28.0103 449.872C28.3943 448.944 28.1063 448.464 27.1783 448.432C26.3143 448.4 25.2903 448.4 24.1063 448.432C23.8183 448.432 23.5943 448.464 23.4343 448.56C23.2423 448.624 23.1143 448.752 22.9863 448.912C22.8583 449.072 22.7943 449.296 22.7303 449.584C22.6983 449.648 22.6343 449.872 22.5703 450.256C22.4743 450.672 22.3783 450.96 22.3143 451.152C21.5783 453.072 20.7783 455.056 19.9143 457.2C19.7543 457.616 19.5303 458.064 19.2103 458.48C18.7303 459.12 18.1543 459.44 17.4823 459.44C16.8103 459.44 16.2343 459.12 15.7543 458.448C15.5623 458.192 15.4023 457.872 15.2743 457.488C14.4423 455.568 13.8663 454.224 13.5783 453.392C13.0663 452.144 12.6503 450.928 12.2663 449.744C12.1383 449.328 11.9463 449.008 11.7223 448.816C11.5303 448.592 11.2103 448.496 10.7943 448.464C9.73834 448.4 8.68234 448.4 7.65834 448.464C7.21034 448.496 6.95434 448.624 6.82634 448.848C6.69834 449.104 6.73034 449.424 6.95434 449.808C6.98634 449.904 7.08234 450.064 7.24234 450.352C7.37034 450.608 7.49834 450.832 7.56234 450.992C8.49034 453.232 9.83434 456.56 11.6263 460.976C12.1703 462.32 12.5543 463.312 12.8103 463.984C12.8423 464.144 13.0023 464.496 13.2263 465.072C13.4503 465.616 13.6103 466.032 13.7063 466.32C13.8023 466.576 13.8983 466.928 14.0263 467.408C14.1543 467.856 14.2503 468.272 14.2823 468.656C14.3143 469.136 14.4423 469.456 14.6663 469.648C14.8903 469.84 15.2423 469.968 15.7223 469.968C15.8183 469.968 19.0503 470 19.1143 470Z" fill="#F2F2F2"/>
<path d="M14.3316 512.4C11.0036 512.4 9.14759 512.4 8.82759 512.432C8.18759 512.432 7.77159 512.528 7.61159 512.752C7.41959 512.944 7.41959 513.36 7.57959 513.968C7.67559 514.416 7.73959 514.768 7.73959 515.024C7.93159 518.864 8.02759 521.328 8.05959 522.416C8.12359 524.368 8.12359 526.48 8.05959 528.848C8.02759 530.096 7.93159 531.216 7.77159 532.208C7.64359 533.008 7.64359 533.52 7.80359 533.712C7.96359 533.904 8.47559 534 9.27559 534C10.6516 534 12.6676 533.968 15.2916 533.936C17.9156 533.872 19.8356 533.872 21.0516 533.872C21.4036 533.84 22.2036 533.84 23.4516 533.84C24.7316 533.84 25.4996 533.84 25.8516 533.84C26.2676 533.84 26.5876 533.808 26.8116 533.808C27.2276 533.712 27.5476 533.584 27.7076 533.36C27.8996 533.168 27.9956 532.848 27.9956 532.432C28.0276 531.536 28.0276 530.672 27.9956 529.808C27.9956 529.392 27.8996 529.104 27.7076 528.912C27.5156 528.752 27.1956 528.72 26.7476 528.816C26.6516 528.816 26.4276 528.848 26.0756 528.912C25.7236 529.008 25.4676 529.04 25.2436 529.04C22.0116 529.136 19.0676 529.2 16.3796 529.2C15.8996 529.232 15.3556 529.136 14.7476 528.944C14.5876 528.912 14.4276 528.848 14.2676 528.72C14.1076 528.624 13.9796 528.496 13.8836 528.336C13.7876 528.208 13.6916 528.048 13.6276 527.888C13.5636 527.728 13.5316 527.536 13.5316 527.344C13.5316 526.608 13.9156 526.096 14.6516 525.776C15.0676 525.584 15.4836 525.488 15.8036 525.488C15.8996 525.456 16.3156 525.456 17.0196 525.456C17.7556 525.456 18.1396 525.488 18.2356 525.488C20.6356 525.456 22.1716 525.424 22.8116 525.424C23.0356 525.424 23.2596 525.36 23.4516 525.232C23.6756 525.136 23.8356 524.976 23.9636 524.816C24.0916 524.624 24.1556 524.432 24.1876 524.208C24.2516 523.568 24.2196 522.832 24.1556 522.096C24.0916 521.456 23.7076 521.072 23.0676 520.976C22.3636 520.88 21.8516 520.816 21.5316 520.848C21.1796 520.848 20.5076 520.88 19.5156 520.912C18.5236 520.944 17.7876 520.976 17.2436 520.976C16.5076 520.944 15.6756 520.848 14.8116 520.624C14.0116 520.432 13.5636 519.952 13.5316 519.12C13.4676 518.256 13.8196 517.68 14.5876 517.424C15.2916 517.168 15.9636 517.04 16.6036 517.04C19.0356 517.008 21.4996 517.008 23.9956 517.04C24.5716 517.04 25.4676 517.168 26.6196 517.36C27.0676 517.456 27.3876 517.424 27.6116 517.296C27.8036 517.168 27.9316 516.88 27.9636 516.432C28.0276 515.504 28.0276 514.576 27.9316 513.648C27.8996 513.2 27.7716 512.88 27.5796 512.72C27.3556 512.528 27.0356 512.4 26.5876 512.336C26.3316 512.304 25.8196 512.272 25.0516 512.304C24.8916 512.304 24.6676 512.336 24.3476 512.368C24.0596 512.4 23.8036 512.4 23.6436 512.4C22.9076 512.4 18.3956 512.4 14.3316 512.4Z" fill="#F2F2F2"/>
</svg>
