<svg width="72" height="72" viewBox="0 0 72 72" fill="none" xmlns="http://www.w3.org/2000/svg">
<path d="M7.125 29.625C4.845 29.625 3 31.47 3 33.75V38.25C3 40.53 4.845 42.375 7.125 42.375C9.405 42.375 11.25 40.53 11.25 38.25V33.75C11.25 31.47 9.405 29.625 7.125 29.625Z" fill="white"/>
<path d="M64.875 29.625C62.595 29.625 60.75 31.47 60.75 33.75V38.25C60.75 40.53 62.595 42.375 64.875 42.375C67.155 42.375 69 40.53 69 38.25V33.75C69 31.47 67.155 29.625 64.875 29.625Z" fill="white"/>
<path d="M21.375 43.125C19.095 43.125 17.25 44.97 17.25 47.25V51.75C17.25 54.03 19.095 55.875 21.375 55.875C23.655 55.875 25.5 54.03 25.5 51.75V47.25C25.5 44.97 23.655 43.125 21.375 43.125Z" fill="white"/>
<path d="M21.375 16.125C19.095 16.125 17.25 17.97 17.25 20.25V34.9688H17.2537C17.3062 37.2038 19.1288 39 21.375 39C23.6213 39 25.4437 37.2038 25.4962 34.9688H25.5V20.25C25.5 17.97 23.655 16.125 21.375 16.125Z" fill="white"/>
<path d="M50.625 16.125C48.345 16.125 46.5 17.97 46.5 20.25V24.75C46.5 27.03 48.345 28.875 50.625 28.875C52.905 28.875 54.75 27.03 54.75 24.75V20.25C54.75 17.97 52.905 16.125 50.625 16.125Z" fill="white"/>
<path d="M36 3C33.72 3 31.875 4.845 31.875 7.125V11.625C31.875 13.905 33.72 15.75 36 15.75C38.28 15.75 40.125 13.905 40.125 11.625V7.125C40.125 4.845 38.28 3 36 3Z" fill="white"/>
<path d="M36 56.25C33.72 56.25 31.875 58.095 31.875 60.375V64.875C31.875 67.155 33.72 69 36 69C38.28 69 40.125 67.155 40.125 64.875V60.375C40.125 58.095 38.28 56.25 36 56.25Z" fill="white"/>
<path d="M50.625 33C48.345 33 46.5 34.845 46.5 37.125V51.75C46.5 54.03 48.345 55.875 50.625 55.875C52.905 55.875 54.75 54.03 54.75 51.75V37.125C54.75 34.845 52.905 33 50.625 33Z" fill="white"/>
<path d="M40.125 24C40.125 21.72 38.28 19.875 36 19.875C33.72 19.875 31.875 21.72 31.875 24V34.0012V38.0025V48C31.875 50.28 33.72 52.125 36 52.125C38.28 52.125 40.125 50.28 40.125 48V37.9988V34.0012V24Z" fill="white"/>
</svg>
