<svg width="35" height="534" viewBox="0 0 35 534" fill="none" xmlns="http://www.w3.org/2000/svg">
<path d="M27.0705 21.8722C27.6145 21.8402 28.0305 21.7122 28.2545 21.4882C28.5105 21.2322 28.6385 20.8482 28.6385 20.3042C28.6385 19.6642 28.6065 18.8962 28.5105 17.9682C28.4465 17.4242 28.3185 17.0722 28.1585 16.9442C27.9665 16.8162 27.5825 16.7842 27.0065 16.8802C25.4065 17.1042 24.2225 17.2002 23.4225 17.2322C21.9505 17.2642 19.7745 17.2642 16.9265 17.2322C16.3825 17.2322 15.8065 17.1682 15.1985 16.9762C14.0785 16.7202 13.4065 16.0162 13.1825 14.8322C13.0545 14.0322 12.9905 13.3602 12.9905 12.7842C13.0225 10.9282 13.0865 7.8882 13.1505 3.6642C13.1505 3.1202 13.1825 2.5442 13.2465 1.9362C13.3105 1.4242 13.2465 1.0722 13.0545 0.816199C12.8945 0.5922 12.5425 0.496199 12.0305 0.4642C11.1665 0.4322 10.2065 0.4002 9.15046 0.4322C8.86246 0.4642 8.63846 0.496199 8.47846 0.5922C8.35046 0.656199 8.22246 0.784199 8.15846 0.976201C8.09446 1.1362 8.09446 1.3922 8.12646 1.6802C8.12646 1.7122 8.15846 2.0322 8.25446 2.6082C8.31846 3.1842 8.35046 3.6002 8.35046 3.8882C8.44646 6.9922 8.51046 10.4482 8.54246 14.2562C8.54246 14.4162 8.51046 14.7682 8.44646 15.2482C8.41446 15.7602 8.41446 16.1122 8.44646 16.3682C8.57446 17.7762 8.54246 19.2802 8.28646 20.8162C8.22246 21.1362 8.25446 21.3922 8.38246 21.5522C8.54246 21.7122 8.76646 21.8082 9.11846 21.8722C10.0785 21.9682 10.7825 22.0002 11.2625 22.0002C12.2865 22.0002 13.3425 21.9682 14.3985 21.9682C15.4545 21.9362 16.7985 21.9042 18.4305 21.8722C20.0305 21.8402 21.0865 21.8402 21.5345 21.8402V21.8722C24.8945 21.8722 26.7505 21.8722 27.0705 21.8722Z" fill="#F2F2F2"/>
<path d="M13.9685 85.9682C15.6645 86.4482 17.4245 86.5762 19.1845 86.3202C21.5205 86.0322 23.5045 85.2322 25.1045 83.8562C26.7365 82.5122 27.7925 80.7522 28.2725 78.5122C28.7205 76.4962 28.7845 74.4802 28.4325 72.4642C28.0485 70.0322 27.2805 68.1122 26.1925 66.6722C24.2725 64.2082 21.7125 63.0242 18.5125 63.1522C16.3365 63.2162 14.3205 63.8562 12.4325 65.0082C10.3525 66.3522 8.84846 68.0802 7.85646 70.1922C7.31246 71.4082 6.96046 73.0402 6.80046 75.0562C6.70446 76.2082 6.76846 77.2962 6.92846 78.3522C6.99246 78.6722 7.05646 78.9602 7.12046 79.2162C8.14446 82.7042 10.4165 84.9442 13.9685 85.9682ZM16.1765 82.1922C14.5125 81.8082 13.3285 80.7202 12.5925 78.9922C12.0805 77.8402 11.9205 76.4962 12.0165 74.9602C12.2085 72.5602 12.7845 70.7682 13.7125 69.5202C15.0885 67.7602 16.7845 67.0562 18.8325 67.3762C20.3045 67.6322 21.4565 68.5602 22.2885 70.1602C22.9925 71.4722 23.2805 72.9442 23.2485 74.5122C23.2485 74.7682 23.2485 75.0242 23.2485 75.3442C23.3445 77.4882 22.5445 79.3122 20.8805 80.8482C19.4085 82.1602 17.8405 82.6082 16.1765 82.1922Z" fill="#F2F2F2"/>
<path d="M19.1143 150C19.6583 150 20.0423 149.872 20.2343 149.68C20.4583 149.456 20.6183 149.104 20.6823 148.528C20.8423 147.632 21.0343 146.896 21.2583 146.32C22.3463 143.472 23.5623 140.464 24.8103 137.36C25.5143 135.696 26.5703 133.2 28.0103 129.872C28.3943 128.944 28.1063 128.464 27.1783 128.432C26.3143 128.4 25.2903 128.4 24.1063 128.432C23.8183 128.432 23.5943 128.464 23.4343 128.56C23.2423 128.624 23.1143 128.752 22.9863 128.912C22.8583 129.072 22.7943 129.296 22.7303 129.584C22.6983 129.648 22.6343 129.872 22.5703 130.256C22.4743 130.672 22.3783 130.96 22.3143 131.152C21.5783 133.072 20.7783 135.056 19.9143 137.2C19.7543 137.616 19.5303 138.064 19.2103 138.48C18.7303 139.12 18.1543 139.44 17.4823 139.44C16.8103 139.44 16.2343 139.12 15.7543 138.448C15.5623 138.192 15.4023 137.872 15.2743 137.488C14.4423 135.568 13.8663 134.224 13.5783 133.392C13.0663 132.144 12.6503 130.928 12.2663 129.744C12.1383 129.328 11.9463 129.008 11.7223 128.816C11.5303 128.592 11.2103 128.496 10.7943 128.464C9.73834 128.4 8.68234 128.4 7.65834 128.464C7.21034 128.496 6.95434 128.624 6.82634 128.848C6.69834 129.104 6.73034 129.424 6.95434 129.808C6.98634 129.904 7.08234 130.064 7.24234 130.352C7.37034 130.608 7.49834 130.832 7.56234 130.992C8.49034 133.232 9.83434 136.56 11.6263 140.976C12.1703 142.32 12.5543 143.312 12.8103 143.984C12.8423 144.144 13.0023 144.496 13.2263 145.072C13.4503 145.616 13.6103 146.032 13.7063 146.32C13.8023 146.576 13.8983 146.928 14.0263 147.408C14.1543 147.856 14.2503 148.272 14.2823 148.656C14.3143 149.136 14.4423 149.456 14.6663 149.648C14.8903 149.84 15.2423 149.968 15.7223 149.968C15.8183 149.968 19.0503 150 19.1143 150Z" fill="#F2F2F2"/>
<path d="M14.3316 192.4C11.0036 192.4 9.14759 192.4 8.82759 192.432C8.18759 192.432 7.77159 192.528 7.61159 192.752C7.41959 192.944 7.41959 193.36 7.57959 193.968C7.67559 194.416 7.73959 194.768 7.73959 195.024C7.93159 198.864 8.02759 201.328 8.05959 202.416C8.12359 204.368 8.12359 206.48 8.05959 208.848C8.02759 210.096 7.93159 211.216 7.77159 212.208C7.64359 213.008 7.64359 213.52 7.80359 213.712C7.96359 213.904 8.47559 214 9.27559 214C10.6516 214 12.6676 213.968 15.2916 213.936C17.9156 213.872 19.8356 213.872 21.0516 213.872C21.4036 213.84 22.2036 213.84 23.4516 213.84C24.7316 213.84 25.4996 213.84 25.8516 213.84C26.2676 213.84 26.5876 213.808 26.8116 213.808C27.2276 213.712 27.5476 213.584 27.7076 213.36C27.8996 213.168 27.9956 212.848 27.9956 212.432C28.0276 211.536 28.0276 210.672 27.9956 209.808C27.9956 209.392 27.8996 209.104 27.7076 208.912C27.5156 208.752 27.1956 208.72 26.7476 208.816C26.6516 208.816 26.4276 208.848 26.0756 208.912C25.7236 209.008 25.4676 209.04 25.2436 209.04C22.0116 209.136 19.0676 209.2 16.3796 209.2C15.8996 209.232 15.3556 209.136 14.7476 208.944C14.5876 208.912 14.4276 208.848 14.2676 208.72C14.1076 208.624 13.9796 208.496 13.8836 208.336C13.7876 208.208 13.6916 208.048 13.6276 207.888C13.5636 207.728 13.5316 207.536 13.5316 207.344C13.5316 206.608 13.9156 206.096 14.6516 205.776C15.0676 205.584 15.4836 205.488 15.8036 205.488C15.8996 205.456 16.3156 205.456 17.0196 205.456C17.7556 205.456 18.1396 205.488 18.2356 205.488C20.6356 205.456 22.1716 205.424 22.8116 205.424C23.0356 205.424 23.2596 205.36 23.4516 205.232C23.6756 205.136 23.8356 204.976 23.9636 204.816C24.0916 204.624 24.1556 204.432 24.1876 204.208C24.2516 203.568 24.2196 202.832 24.1556 202.096C24.0916 201.456 23.7076 201.072 23.0676 200.976C22.3636 200.88 21.8516 200.816 21.5316 200.848C21.1796 200.848 20.5076 200.88 19.5156 200.912C18.5236 200.944 17.7876 200.976 17.2436 200.976C16.5076 200.944 15.6756 200.848 14.8116 200.624C14.0116 200.432 13.5636 199.952 13.5316 199.12C13.4676 198.256 13.8196 197.68 14.5876 197.424C15.2916 197.168 15.9636 197.04 16.6036 197.04C19.0356 197.008 21.4996 197.008 23.9956 197.04C24.5716 197.04 25.4676 197.168 26.6196 197.36C27.0676 197.456 27.3876 197.424 27.6116 197.296C27.8036 197.168 27.9316 196.88 27.9636 196.432C28.0276 195.504 28.0276 194.576 27.9316 193.648C27.8996 193.2 27.7716 192.88 27.5796 192.72C27.3556 192.528 27.0356 192.4 26.5876 192.336C26.3316 192.304 25.8196 192.272 25.0516 192.304C24.8916 192.304 24.6676 192.336 24.3476 192.368C24.0596 192.4 23.8036 192.4 23.6436 192.4C22.9076 192.4 18.3956 192.4 14.3316 192.4Z" fill="#F2F2F2"/>
<path d="M34.1691 263.408C33.7851 262.576 33.3051 261.904 32.5051 261.456C31.8011 261.072 31.0331 260.944 30.2651 260.912C29.0171 260.848 27.7371 260.88 26.4891 260.88C25.6891 260.88 25.3691 261.2 25.3691 262C25.4331 264.048 25.4011 266.096 25.4011 268.144C25.4011 268.4 25.3371 268.656 25.3051 268.944C25.3051 269.232 25.2731 269.52 25.3051 269.84C25.3371 270.192 25.6571 270.416 26.1371 270.416C26.9371 270.448 27.7051 270.448 28.5051 270.448C29.2411 270.448 29.9771 270.48 30.6811 270.416C31.1291 270.384 31.6091 270.32 31.9931 270.128C33.6251 269.296 34.4251 267.888 34.5851 266.128C34.6811 265.2 34.5531 264.272 34.1691 263.408ZM31.9931 267.12C31.7051 267.664 31.2571 267.984 30.6811 268.144H30.6491C29.9771 268.272 29.2731 268.272 28.6331 268.144C28.6011 268.144 28.6011 268.144 28.6011 268.144C28.0251 268.016 27.7691 267.6 27.6091 267.088C27.3211 266.128 27.5131 265.168 27.7051 264.208C27.8011 263.632 28.2171 263.312 28.8251 263.184C29.6891 262.96 30.5211 263.088 31.2571 263.632C31.7371 263.984 31.9931 264.464 32.1531 265.008C32.3771 265.744 32.3771 266.448 31.9931 267.12ZM20.5371 261.168C20.3771 261.136 20.1851 261.136 20.0251 261.136C19.2571 261.072 18.8411 261.552 19.0011 262.352C19.0971 262.992 19.0971 263.632 18.9691 264.272C18.8411 264.848 18.5211 265.136 18.0091 265.008C17.7531 264.944 17.5291 264.784 17.3691 264.624C17.0171 264.272 16.6971 263.888 16.3771 263.536C15.8651 263.056 15.4811 262.512 15.1931 261.872C15.0331 261.552 14.8091 261.264 14.4251 261.2C14.0411 261.168 13.6571 261.104 13.3051 261.168C12.9211 261.2 12.6011 261.392 12.6011 261.84C12.6011 262.032 12.6011 262.224 12.6331 262.448C12.6651 263.184 12.7291 263.952 12.7291 264.72C12.7611 266.032 12.7611 267.344 12.7291 268.656C12.7291 268.816 12.6971 268.976 12.6651 269.104C12.5371 269.68 12.7291 270.224 13.2091 270.352C13.5611 270.448 13.9771 270.448 14.3291 270.384C14.7131 270.288 14.8411 270.064 14.8411 269.648C14.8411 269.424 14.8091 269.168 14.8091 268.944C14.8091 268.4 14.8091 267.888 14.8411 267.344C14.8731 266.704 15.4811 266.352 16.0251 266.672C16.2171 266.768 16.3771 266.896 16.5051 267.024C16.8571 267.376 17.1771 267.76 17.5291 268.112C17.9771 268.592 18.3611 269.072 18.6491 269.648C18.8091 270.032 19.0971 270.352 19.5451 270.416C19.8011 270.448 20.0571 270.448 20.3131 270.416C20.9211 270.416 21.2731 270.096 21.2411 269.488C21.2411 269.072 21.1451 268.656 21.1451 268.24C21.1771 267.184 21.2091 266.096 21.2411 265.04C21.2411 264.528 21.2411 264.048 21.2411 263.536C21.2411 263.088 21.2731 262.608 21.2411 262.128C21.2091 261.456 21.0491 261.296 20.5371 261.168ZM7.28909 265.072C6.87309 263.952 6.48909 262.864 6.07309 261.776C5.97709 261.488 5.81709 261.2 5.52909 261.136C5.11309 261.072 4.66509 261.04 4.24909 261.008C3.73709 261.008 3.35309 261.328 3.19309 261.808C2.93709 262.544 2.68109 263.28 2.39309 263.984C1.94509 265.168 1.49709 266.288 1.01709 267.44C0.729086 268.144 0.441086 268.848 0.153086 269.52C0.0250864 269.808 0.153086 270.064 0.345086 270.224C0.857086 270.576 2.04109 270.512 2.45709 269.904C2.74509 269.456 3.16109 269.104 3.70509 269.072C4.28109 269.04 4.88909 269.04 5.46509 269.072C5.91309 269.072 6.32909 269.296 6.58509 269.68C6.96909 270.256 7.51309 270.384 7.96109 270.416C9.04909 270.448 9.24109 269.936 9.01709 269.328C8.47309 267.888 7.86509 266.48 7.28909 265.072ZM4.63309 266.768C4.31309 266.768 4.02509 266.448 4.02509 266.128C4.02509 265.84 4.31309 265.584 4.63309 265.584C4.98509 265.584 5.17709 265.808 5.17709 266.192C5.17709 266.544 4.98509 266.768 4.63309 266.768Z" fill="#F2F2F2"/>
<path d="M9.89021 320.432C9.44221 320.432 9.12221 320.432 8.96221 320.464C8.22621 320.56 7.87421 321.008 7.97021 321.744C8.00221 321.936 8.03421 322.352 8.13021 322.96C8.19421 323.568 8.25821 324.08 8.32221 324.496C8.35421 324.912 8.35421 325.328 8.32221 325.712C8.32221 326.768 8.35421 328.368 8.38621 330.448C8.45021 332.528 8.45021 334.416 8.41821 336.08C8.38621 337.744 8.29021 339.344 8.13021 340.848C8.03421 341.552 8.32221 341.936 8.99421 342C10.2742 342.032 11.3942 342.032 12.3862 341.968C12.7702 341.936 13.0262 341.808 13.1862 341.584C13.3462 341.36 13.4102 341.04 13.3782 340.592C13.2502 338.768 13.1862 337.392 13.1862 336.496C13.1862 335.632 13.4422 334.96 13.9222 334.416C14.4022 333.904 15.1062 333.584 15.9382 333.488C16.1942 333.456 16.5142 333.456 16.9302 333.456C17.1542 333.456 17.8902 333.456 19.1702 333.456C20.4502 333.456 21.4422 333.456 22.1462 333.456C22.7222 333.424 23.1702 333.36 23.4582 333.296C23.9382 333.136 24.2262 332.912 24.3542 332.656C24.7062 331.632 24.7062 330.576 24.3542 329.488C24.2902 329.328 24.0342 329.136 23.6182 328.976C23.3942 328.88 23.1062 328.848 22.7542 328.848C22.4662 328.848 21.7622 328.88 20.6422 328.912C19.5222 328.912 18.6902 328.944 18.0822 328.944C17.2502 328.944 16.3222 328.848 15.2662 328.688C14.9782 328.656 14.6262 328.496 14.2742 328.208C13.8902 327.888 13.6982 327.504 13.6982 327.056C13.6662 326.64 13.8582 326.224 14.2742 325.904C14.5622 325.616 14.9142 325.392 15.2982 325.296C16.0342 325.136 16.7062 325.072 17.3462 325.072C20.0022 325.008 22.3702 325.008 24.4182 325.072C25.1222 325.072 25.9862 325.168 27.0102 325.36C27.5222 325.456 27.8422 325.424 28.0342 325.328C28.1942 325.232 28.3222 324.944 28.3862 324.464C28.3862 324.24 28.3862 323.376 28.3222 321.936C28.2902 321.456 28.1942 321.072 28.0022 320.848C27.8102 320.624 27.4582 320.432 26.9782 320.336C26.6582 320.272 26.2742 320.272 25.9222 320.272C25.6342 320.272 25.0902 320.304 24.2582 320.336C23.4582 320.368 22.8182 320.4 22.4022 320.4C22.0182 320.432 20.0022 320.432 16.2902 320.432C12.7702 320.432 10.6262 320.432 9.89021 320.432Z" fill="#F2F2F2"/>
<path d="M14.3316 384.4C11.0036 384.4 9.14759 384.4 8.82759 384.432C8.18759 384.432 7.77159 384.528 7.61159 384.752C7.41959 384.944 7.41959 385.36 7.57959 385.968C7.67559 386.416 7.73959 386.768 7.73959 387.024C7.93159 390.864 8.02759 393.328 8.05959 394.416C8.12359 396.368 8.12359 398.48 8.05959 400.848C8.02759 402.096 7.93159 403.216 7.77159 404.208C7.64359 405.008 7.64359 405.52 7.80359 405.712C7.96359 405.904 8.47559 406 9.27559 406C10.6516 406 12.6676 405.968 15.2916 405.936C17.9156 405.872 19.8356 405.872 21.0516 405.872C21.4036 405.84 22.2036 405.84 23.4516 405.84C24.7316 405.84 25.4996 405.84 25.8516 405.84C26.2676 405.84 26.5876 405.808 26.8116 405.808C27.2276 405.712 27.5476 405.584 27.7076 405.36C27.8996 405.168 27.9956 404.848 27.9956 404.432C28.0276 403.536 28.0276 402.672 27.9956 401.808C27.9956 401.392 27.8996 401.104 27.7076 400.912C27.5156 400.752 27.1956 400.72 26.7476 400.816C26.6516 400.816 26.4276 400.848 26.0756 400.912C25.7236 401.008 25.4676 401.04 25.2436 401.04C22.0116 401.136 19.0676 401.2 16.3796 401.2C15.8996 401.232 15.3556 401.136 14.7476 400.944C14.5876 400.912 14.4276 400.848 14.2676 400.72C14.1076 400.624 13.9796 400.496 13.8836 400.336C13.7876 400.208 13.6916 400.048 13.6276 399.888C13.5636 399.728 13.5316 399.536 13.5316 399.344C13.5316 398.608 13.9156 398.096 14.6516 397.776C15.0676 397.584 15.4836 397.488 15.8036 397.488C15.8996 397.456 16.3156 397.456 17.0196 397.456C17.7556 397.456 18.1396 397.488 18.2356 397.488C20.6356 397.456 22.1716 397.424 22.8116 397.424C23.0356 397.424 23.2596 397.36 23.4516 397.232C23.6756 397.136 23.8356 396.976 23.9636 396.816C24.0916 396.624 24.1556 396.432 24.1876 396.208C24.2516 395.568 24.2196 394.832 24.1556 394.096C24.0916 393.456 23.7076 393.072 23.0676 392.976C22.3636 392.88 21.8516 392.816 21.5316 392.848C21.1796 392.848 20.5076 392.88 19.5156 392.912C18.5236 392.944 17.7876 392.976 17.2436 392.976C16.5076 392.944 15.6756 392.848 14.8116 392.624C14.0116 392.432 13.5636 391.952 13.5316 391.12C13.4676 390.256 13.8196 389.68 14.5876 389.424C15.2916 389.168 15.9636 389.04 16.6036 389.04C19.0356 389.008 21.4996 389.008 23.9956 389.04C24.5716 389.04 25.4676 389.168 26.6196 389.36C27.0676 389.456 27.3876 389.424 27.6116 389.296C27.8036 389.168 27.9316 388.88 27.9636 388.432C28.0276 387.504 28.0276 386.576 27.9316 385.648C27.8996 385.2 27.7716 384.88 27.5796 384.72C27.3556 384.528 27.0356 384.4 26.5876 384.336C26.3316 384.304 25.8196 384.272 25.0516 384.304C24.8916 384.304 24.6676 384.336 24.3476 384.368C24.0596 384.4 23.8036 384.4 23.6436 384.4C22.9076 384.4 18.3956 384.4 14.3316 384.4Z" fill="#F2F2F2"/>
<path d="M27.2081 469.936C28.0081 469.808 28.2641 469.36 27.9121 468.56C26.2161 464.528 25.1281 461.904 24.6161 460.688C24.3281 459.984 23.4321 457.68 21.9281 453.776C21.8961 453.68 21.8001 453.424 21.6401 453.008C21.4801 452.592 21.3521 452.304 21.3201 452.144C21.2561 451.984 21.1921 451.76 21.0641 451.408C20.9681 451.056 20.9041 450.768 20.8401 450.512C20.7761 450.224 20.7441 449.968 20.7441 449.68C20.7121 449.392 20.6161 449.136 20.4561 448.912C20.2961 448.72 20.0721 448.592 19.7841 448.592C18.1521 448.464 16.8081 448.4 15.7841 448.432C15.3361 448.464 15.0161 448.592 14.7921 448.816C14.6001 449.04 14.4401 449.392 14.3441 449.84C14.2161 450.704 14.0561 451.376 13.8641 451.856C12.3281 455.824 11.1121 458.928 10.1841 461.2C9.76809 462.192 8.74409 464.592 7.08009 468.368C6.85609 468.848 6.82409 469.2 6.92009 469.424C7.01609 469.616 7.33609 469.776 7.88009 469.84C8.07209 469.84 8.93609 469.904 10.5041 469.968C11.5281 470 12.2001 469.52 12.5201 468.528C12.9361 467.376 13.7361 466.768 14.9841 466.704C15.9121 466.672 17.5761 466.704 19.9761 466.8C21.1921 466.864 22.0561 467.472 22.5361 468.688C22.7601 469.36 23.2401 469.712 23.9441 469.808C24.0401 469.808 24.7121 469.872 25.9921 470C26.3441 470 26.7601 469.968 27.2081 469.936ZM18.0881 458.352C18.2801 458.416 18.4721 458.512 18.6001 458.64C18.7601 458.768 18.8881 458.896 18.9841 459.056C19.0801 459.216 19.1761 459.408 19.2401 459.6C19.2721 459.824 19.3041 460.048 19.3041 460.272C19.3041 460.816 19.1121 461.296 18.7921 461.648C18.4721 462 18.0241 462.192 17.5121 462.192C16.9681 462.192 16.5201 462.032 16.2001 461.648C15.8481 461.296 15.6881 460.816 15.6881 460.208C15.6881 459.824 15.7521 459.504 15.9121 459.216C16.0721 458.896 16.2961 458.672 16.5521 458.512C16.8401 458.352 17.1601 458.256 17.5121 458.256C17.7041 458.256 17.8961 458.288 18.0881 458.352Z" fill="#F2F2F2"/>
<path d="M7.75521 532.656C7.72321 533.424 7.97921 533.84 8.52321 533.872C9.83521 533.904 10.9552 533.904 11.9152 533.84C12.6192 533.776 12.9392 533.328 12.8752 532.496C12.7792 530.992 12.7152 529.712 12.7152 528.656C12.7152 528.208 12.8432 527.696 13.0672 527.152C13.4192 526.256 14.0592 525.808 15.0512 525.808C16.0112 525.808 16.8112 526.224 17.4192 527.088C18.7312 528.88 19.7232 530.736 20.3632 532.656C20.5232 533.136 20.7472 533.456 20.9712 533.616C21.1952 533.776 21.5472 533.872 22.0592 533.904C22.1872 533.904 22.4752 533.936 22.8912 533.968C23.3072 534 23.6272 534 23.8832 534C24.3952 534 24.8432 533.968 25.2592 533.904C25.8672 533.744 26.0592 533.36 25.8032 532.784C25.7712 532.72 25.7392 532.656 25.7072 532.592C25.6752 532.528 25.6112 532.464 25.5792 532.4C25.5472 532.336 25.5152 532.272 25.4512 532.24C24.3632 530.192 23.7872 529.072 23.6592 528.88C22.7952 527.088 23.2112 525.648 24.9072 524.592C25.2272 524.368 25.4512 524.24 25.5152 524.176C26.9872 523.216 27.8832 521.84 28.2032 520.112C28.3952 518.992 28.3312 517.776 27.9472 516.432C27.4352 514.576 26.2512 513.424 24.4272 512.976C23.0512 512.688 21.8672 512.528 20.8752 512.496C19.7552 512.464 16.0112 512.464 9.64321 512.464C9.32321 512.464 9.06721 512.496 8.84321 512.528C8.29921 512.592 7.94721 512.72 7.81921 512.912C7.65921 513.136 7.59521 513.52 7.65921 514.064C7.81921 515.248 7.88321 516.208 7.88321 517.008C7.91521 517.456 7.91521 519.632 7.91521 523.6C7.91521 527.248 7.91521 529.328 7.91521 529.776C7.88321 530.192 7.85121 531.152 7.75521 532.656ZM14.3472 520.496C13.6752 520.208 13.3552 519.696 13.3552 518.96C13.3552 518.288 13.7072 517.776 14.3792 517.424C14.7952 517.232 15.1472 517.104 15.4992 517.104C16.0432 517.104 17.5472 517.168 19.9472 517.232C20.0112 517.232 20.1072 517.264 20.2672 517.264C20.7792 517.392 21.1952 517.616 21.4832 517.904C21.7392 518.192 21.8992 518.576 21.8992 518.992C21.8992 519.408 21.7712 519.76 21.5152 520.048C21.2592 520.368 20.8752 520.56 20.3632 520.656C20.0112 520.72 19.4672 520.784 18.7952 520.816C18.0912 520.848 17.6432 520.848 17.4512 520.88C16.3632 520.88 15.7872 520.88 15.7232 520.848C15.2112 520.816 14.7632 520.688 14.3472 520.496Z" fill="#F2F2F2"/>
</svg>
