<svg width="35" height="534" viewBox="0 0 35 534" fill="none" xmlns="http://www.w3.org/2000/svg">
<path d="M27.0709 21.8722C27.615 21.8402 28.031 21.7122 28.2549 21.4882C28.511 21.2322 28.639 20.8482 28.639 20.3042C28.639 19.6642 28.607 18.8962 28.511 17.9682C28.447 17.4242 28.319 17.0722 28.159 16.9442C27.967 16.8162 27.583 16.7842 27.007 16.8802C25.4069 17.1042 24.2229 17.2002 23.423 17.2322C21.9509 17.2642 19.775 17.2642 16.927 17.2322C16.383 17.2322 15.8069 17.1682 15.1989 16.9762C14.0789 16.7202 13.4069 16.0162 13.1829 14.8322C13.0549 14.0322 12.9909 13.3602 12.9909 12.7842C13.0229 10.9282 13.0869 7.8882 13.1509 3.6642C13.1509 3.1202 13.183 2.5442 13.247 1.9362C13.311 1.4242 13.2469 1.0722 13.0549 0.816199C12.8949 0.5922 12.5429 0.496199 12.0309 0.4642C11.1669 0.4322 10.2069 0.4002 9.15095 0.4322C8.86295 0.4642 8.63895 0.496199 8.47895 0.5922C8.35095 0.656199 8.22295 0.784199 8.15895 0.976201C8.09495 1.1362 8.09495 1.3922 8.12695 1.6802C8.12695 1.7122 8.15895 2.0322 8.25495 2.6082C8.31895 3.1842 8.35095 3.6002 8.35095 3.8882C8.44695 6.9922 8.51095 10.4482 8.54295 14.2562C8.54295 14.4162 8.51095 14.7682 8.44695 15.2482C8.41495 15.7602 8.41495 16.1122 8.44695 16.3682C8.57495 17.7762 8.54295 19.2802 8.28695 20.8162C8.22295 21.1362 8.25495 21.3922 8.38295 21.5522C8.54295 21.7122 8.76695 21.8082 9.11895 21.8722C10.0789 21.9682 10.7829 22.0002 11.2629 22.0002C12.2869 22.0002 13.3429 21.9682 14.3989 21.9682C15.4549 21.9362 16.799 21.9042 18.431 21.8722C20.0309 21.8402 21.087 21.8402 21.535 21.8402V21.8722C24.895 21.8722 26.7509 21.8722 27.0709 21.8722Z" fill="#35292B"/>
<path d="M13.969 85.9682C15.6649 86.4482 17.4249 86.5762 19.1849 86.3202C21.521 86.0322 23.5049 85.2322 25.1049 83.8562C26.7369 82.5122 27.7929 80.7522 28.273 78.5122C28.721 76.4962 28.785 74.4802 28.433 72.4642C28.049 70.0322 27.281 68.1122 26.193 66.6722C24.273 64.2082 21.7129 63.0242 18.5129 63.1522C16.3369 63.2162 14.3209 63.8562 12.4329 65.0082C10.3529 66.3522 8.84895 68.0802 7.85695 70.1922C7.31295 71.4082 6.96095 73.0402 6.80095 75.0562C6.70495 76.2082 6.76895 77.2962 6.92895 78.3522C6.99295 78.6722 7.05695 78.9602 7.12095 79.2162C8.14495 82.7042 10.4169 84.9442 13.969 85.9682ZM16.177 82.1922C14.513 81.8082 13.3289 80.7202 12.5929 78.9922C12.0809 77.8402 11.9209 76.4962 12.0169 74.9602C12.2089 72.5602 12.7849 70.7682 13.7129 69.5202C15.089 67.7602 16.7849 67.0562 18.8329 67.3762C20.3049 67.6322 21.4569 68.5602 22.2889 70.1602C22.993 71.4722 23.281 72.9442 23.249 74.5122C23.249 74.7682 23.249 75.0242 23.249 75.3442C23.3449 77.4882 22.5449 79.3122 20.8809 80.8482C19.4089 82.1602 17.841 82.6082 16.177 82.1922Z" fill="#35292B"/>
<path d="M19.1148 150C19.6588 150 20.0428 149.872 20.2348 149.68C20.4588 149.456 20.6188 149.104 20.6828 148.528C20.8428 147.632 21.0348 146.896 21.2588 146.32C22.3468 143.472 23.5628 140.464 24.8108 137.36C25.5148 135.696 26.5708 133.2 28.0108 129.872C28.3948 128.944 28.1068 128.464 27.1788 128.432C26.3148 128.4 25.2908 128.4 24.1068 128.432C23.8188 128.432 23.5948 128.464 23.4348 128.56C23.2428 128.624 23.1148 128.752 22.9868 128.912C22.8588 129.072 22.7948 129.296 22.7308 129.584C22.6988 129.648 22.6348 129.872 22.5708 130.256C22.4748 130.672 22.3788 130.96 22.3148 131.152C21.5788 133.072 20.7788 135.056 19.9148 137.2C19.7548 137.616 19.5308 138.064 19.2108 138.48C18.7308 139.12 18.1548 139.44 17.4828 139.44C16.8108 139.44 16.2348 139.12 15.7548 138.448C15.5628 138.192 15.4028 137.872 15.2748 137.488C14.4428 135.568 13.8668 134.224 13.5788 133.392C13.0668 132.144 12.6508 130.928 12.2668 129.744C12.1388 129.328 11.9468 129.008 11.7228 128.816C11.5308 128.592 11.2108 128.496 10.7948 128.464C9.73882 128.4 8.68283 128.4 7.65882 128.464C7.21082 128.496 6.95482 128.624 6.82682 128.848C6.69882 129.104 6.73082 129.424 6.95482 129.808C6.98682 129.904 7.08283 130.064 7.24283 130.352C7.37083 130.608 7.49882 130.832 7.56282 130.992C8.49082 133.232 9.83483 136.56 11.6268 140.976C12.1708 142.32 12.5548 143.312 12.8108 143.984C12.8428 144.144 13.0028 144.496 13.2268 145.072C13.4508 145.616 13.6108 146.032 13.7068 146.32C13.8028 146.576 13.8988 146.928 14.0268 147.408C14.1548 147.856 14.2508 148.272 14.2828 148.656C14.3148 149.136 14.4428 149.456 14.6668 149.648C14.8908 149.84 15.2428 149.968 15.7228 149.968C15.8188 149.968 19.0508 150 19.1148 150Z" fill="#35292B"/>
<path d="M14.3321 192.4C11.0041 192.4 9.14807 192.4 8.82807 192.432C8.18807 192.432 7.77207 192.528 7.61207 192.752C7.42007 192.944 7.42007 193.36 7.58007 193.968C7.67607 194.416 7.74007 194.768 7.74007 195.024C7.93207 198.864 8.02808 201.328 8.06008 202.416C8.12408 204.368 8.12408 206.48 8.06008 208.848C8.02808 210.096 7.93208 211.216 7.77208 212.208C7.64408 213.008 7.64407 213.52 7.80407 213.712C7.96407 213.904 8.47607 214 9.27607 214C10.6521 214 12.6681 213.968 15.2921 213.936C17.9161 213.872 19.8361 213.872 21.0521 213.872C21.4041 213.84 22.2041 213.84 23.4521 213.84C24.7321 213.84 25.5001 213.84 25.8521 213.84C26.2681 213.84 26.5881 213.808 26.8121 213.808C27.2281 213.712 27.5481 213.584 27.7081 213.36C27.9001 213.168 27.9961 212.848 27.9961 212.432C28.0281 211.536 28.0281 210.672 27.9961 209.808C27.9961 209.392 27.9001 209.104 27.7081 208.912C27.5161 208.752 27.1961 208.72 26.7481 208.816C26.6521 208.816 26.4281 208.848 26.0761 208.912C25.7241 209.008 25.4681 209.04 25.2441 209.04C22.0121 209.136 19.0681 209.2 16.3801 209.2C15.9001 209.232 15.3561 209.136 14.7481 208.944C14.5881 208.912 14.4281 208.848 14.2681 208.72C14.1081 208.624 13.9801 208.496 13.8841 208.336C13.7881 208.208 13.6921 208.048 13.6281 207.888C13.5641 207.728 13.5321 207.536 13.5321 207.344C13.5321 206.608 13.9161 206.096 14.6521 205.776C15.0681 205.584 15.4841 205.488 15.8041 205.488C15.9001 205.456 16.3161 205.456 17.0201 205.456C17.7561 205.456 18.1401 205.488 18.2361 205.488C20.6361 205.456 22.1721 205.424 22.8121 205.424C23.0361 205.424 23.2601 205.36 23.4521 205.232C23.6761 205.136 23.8361 204.976 23.9641 204.816C24.0921 204.624 24.1561 204.432 24.1881 204.208C24.2521 203.568 24.2201 202.832 24.1561 202.096C24.0921 201.456 23.7081 201.072 23.0681 200.976C22.3641 200.88 21.8521 200.816 21.5321 200.848C21.1801 200.848 20.5081 200.88 19.5161 200.912C18.5241 200.944 17.7881 200.976 17.2441 200.976C16.5081 200.944 15.6761 200.848 14.8121 200.624C14.0121 200.432 13.5641 199.952 13.5321 199.12C13.4681 198.256 13.8201 197.68 14.5881 197.424C15.2921 197.168 15.9641 197.04 16.6041 197.04C19.0361 197.008 21.5001 197.008 23.9961 197.04C24.5721 197.04 25.4681 197.168 26.6201 197.36C27.0681 197.456 27.3881 197.424 27.6121 197.296C27.8041 197.168 27.9321 196.88 27.9641 196.432C28.0281 195.504 28.0281 194.576 27.9321 193.648C27.9001 193.2 27.7721 192.88 27.5801 192.72C27.3561 192.528 27.0361 192.4 26.5881 192.336C26.3321 192.304 25.8201 192.272 25.0521 192.304C24.8921 192.304 24.6681 192.336 24.3481 192.368C24.0601 192.4 23.8041 192.4 23.6441 192.4C22.9081 192.4 18.3961 192.4 14.3321 192.4Z" fill="#35292B"/>
<path d="M34.1696 263.408C33.7856 262.576 33.3056 261.904 32.5056 261.456C31.8016 261.072 31.0336 260.944 30.2656 260.912C29.0176 260.848 27.7376 260.88 26.4896 260.88C25.6896 260.88 25.3696 261.2 25.3696 262C25.4336 264.048 25.4016 266.096 25.4016 268.144C25.4016 268.4 25.3376 268.656 25.3056 268.944C25.3056 269.232 25.2736 269.52 25.3056 269.84C25.3376 270.192 25.6576 270.416 26.1376 270.416C26.9376 270.448 27.7056 270.448 28.5056 270.448C29.2416 270.448 29.9776 270.48 30.6816 270.416C31.1296 270.384 31.6096 270.32 31.9936 270.128C33.6256 269.296 34.4256 267.888 34.5856 266.128C34.6816 265.2 34.5536 264.272 34.1696 263.408ZM31.9936 267.12C31.7056 267.664 31.2576 267.984 30.6816 268.144H30.6496C29.9776 268.272 29.2736 268.272 28.6336 268.144C28.6016 268.144 28.6016 268.144 28.6016 268.144C28.0256 268.016 27.7696 267.6 27.6096 267.088C27.3216 266.128 27.5136 265.168 27.7056 264.208C27.8016 263.632 28.2176 263.312 28.8256 263.184C29.6896 262.96 30.5216 263.088 31.2576 263.632C31.7376 263.984 31.9936 264.464 32.1536 265.008C32.3776 265.744 32.3776 266.448 31.9936 267.12ZM20.5376 261.168C20.3776 261.136 20.1856 261.136 20.0256 261.136C19.2576 261.072 18.8416 261.552 19.0016 262.352C19.0976 262.992 19.0976 263.632 18.9696 264.272C18.8416 264.848 18.5216 265.136 18.0096 265.008C17.7536 264.944 17.5296 264.784 17.3696 264.624C17.0176 264.272 16.6976 263.888 16.3776 263.536C15.8656 263.056 15.4816 262.512 15.1936 261.872C15.0336 261.552 14.8096 261.264 14.4256 261.2C14.0416 261.168 13.6576 261.104 13.3056 261.168C12.9216 261.2 12.6016 261.392 12.6016 261.84C12.6016 262.032 12.6016 262.224 12.6336 262.448C12.6656 263.184 12.7296 263.952 12.7296 264.72C12.7616 266.032 12.7616 267.344 12.7296 268.656C12.7296 268.816 12.6976 268.976 12.6656 269.104C12.5376 269.68 12.7296 270.224 13.2096 270.352C13.5616 270.448 13.9776 270.448 14.3296 270.384C14.7136 270.288 14.8416 270.064 14.8416 269.648C14.8416 269.424 14.8096 269.168 14.8096 268.944C14.8096 268.4 14.8096 267.888 14.8416 267.344C14.8736 266.704 15.4816 266.352 16.0256 266.672C16.2176 266.768 16.3776 266.896 16.5056 267.024C16.8576 267.376 17.1776 267.76 17.5296 268.112C17.9776 268.592 18.3616 269.072 18.6496 269.648C18.8096 270.032 19.0976 270.352 19.5456 270.416C19.8016 270.448 20.0576 270.448 20.3136 270.416C20.9216 270.416 21.2736 270.096 21.2416 269.488C21.2416 269.072 21.1456 268.656 21.1456 268.24C21.1776 267.184 21.2096 266.096 21.2416 265.04C21.2416 264.528 21.2416 264.048 21.2416 263.536C21.2416 263.088 21.2736 262.608 21.2416 262.128C21.2096 261.456 21.0496 261.296 20.5376 261.168ZM7.28958 265.072C6.87358 263.952 6.48958 262.864 6.07358 261.776C5.97758 261.488 5.81757 261.2 5.52958 261.136C5.11357 261.072 4.66558 261.04 4.24958 261.008C3.73758 261.008 3.35357 261.328 3.19357 261.808C2.93757 262.544 2.68157 263.28 2.39357 263.984C1.94557 265.168 1.49757 266.288 1.01757 267.44C0.729575 268.144 0.441575 268.848 0.153575 269.52C0.0255747 269.808 0.153575 270.064 0.345575 270.224C0.857575 270.576 2.04157 270.512 2.45757 269.904C2.74557 269.456 3.16157 269.104 3.70557 269.072C4.28157 269.04 4.88958 269.04 5.46558 269.072C5.91358 269.072 6.32958 269.296 6.58558 269.68C6.96958 270.256 7.51358 270.384 7.96158 270.416C9.04958 270.448 9.24158 269.936 9.01758 269.328C8.47357 267.888 7.86558 266.48 7.28958 265.072ZM4.63357 266.768C4.31358 266.768 4.02557 266.448 4.02557 266.128C4.02557 265.84 4.31358 265.584 4.63357 265.584C4.98558 265.584 5.17758 265.808 5.17758 266.192C5.17758 266.544 4.98558 266.768 4.63357 266.768Z" fill="#35292B"/>
<path d="M9.8907 320.432C9.4427 320.432 9.1227 320.432 8.9627 320.464C8.2267 320.56 7.8747 321.008 7.9707 321.744C8.0027 321.936 8.0347 322.352 8.1307 322.96C8.1947 323.568 8.2587 324.08 8.3227 324.496C8.3547 324.912 8.3547 325.328 8.3227 325.712C8.3227 326.768 8.3547 328.368 8.3867 330.448C8.4507 332.528 8.4507 334.416 8.4187 336.08C8.3867 337.744 8.2907 339.344 8.1307 340.848C8.0347 341.552 8.3227 341.936 8.9947 342C10.2747 342.032 11.3947 342.032 12.3867 341.968C12.7707 341.936 13.0267 341.808 13.1867 341.584C13.3467 341.36 13.4107 341.04 13.3787 340.592C13.2507 338.768 13.1867 337.392 13.1867 336.496C13.1867 335.632 13.4427 334.96 13.9227 334.416C14.4027 333.904 15.1067 333.584 15.9387 333.488C16.1947 333.456 16.5147 333.456 16.9307 333.456C17.1547 333.456 17.8907 333.456 19.1707 333.456C20.4507 333.456 21.4427 333.456 22.1467 333.456C22.7227 333.424 23.1707 333.36 23.4587 333.296C23.9387 333.136 24.2267 332.912 24.3547 332.656C24.7067 331.632 24.7067 330.576 24.3547 329.488C24.2907 329.328 24.0347 329.136 23.6187 328.976C23.3947 328.88 23.1067 328.848 22.7547 328.848C22.4667 328.848 21.7627 328.88 20.6427 328.912C19.5227 328.912 18.6907 328.944 18.0827 328.944C17.2507 328.944 16.3227 328.848 15.2667 328.688C14.9787 328.656 14.6267 328.496 14.2747 328.208C13.8907 327.888 13.6987 327.504 13.6987 327.056C13.6667 326.64 13.8587 326.224 14.2747 325.904C14.5627 325.616 14.9147 325.392 15.2987 325.296C16.0347 325.136 16.7067 325.072 17.3467 325.072C20.0027 325.008 22.3707 325.008 24.4187 325.072C25.1227 325.072 25.9867 325.168 27.0107 325.36C27.5227 325.456 27.8427 325.424 28.0347 325.328C28.1947 325.232 28.3227 324.944 28.3867 324.464C28.3867 324.24 28.3867 323.376 28.3227 321.936C28.2907 321.456 28.1947 321.072 28.0027 320.848C27.8107 320.624 27.4587 320.432 26.9787 320.336C26.6587 320.272 26.2747 320.272 25.9227 320.272C25.6347 320.272 25.0907 320.304 24.2587 320.336C23.4587 320.368 22.8187 320.4 22.4027 320.4C22.0187 320.432 20.0027 320.432 16.2907 320.432C12.7707 320.432 10.6267 320.432 9.8907 320.432Z" fill="#35292B"/>
<path d="M14.3321 384.4C11.0041 384.4 9.14807 384.4 8.82807 384.432C8.18807 384.432 7.77207 384.528 7.61207 384.752C7.42007 384.944 7.42007 385.36 7.58007 385.968C7.67607 386.416 7.74007 386.768 7.74007 387.024C7.93207 390.864 8.02808 393.328 8.06008 394.416C8.12408 396.368 8.12408 398.48 8.06008 400.848C8.02808 402.096 7.93208 403.216 7.77208 404.208C7.64408 405.008 7.64407 405.52 7.80407 405.712C7.96407 405.904 8.47607 406 9.27607 406C10.6521 406 12.6681 405.968 15.2921 405.936C17.9161 405.872 19.8361 405.872 21.0521 405.872C21.4041 405.84 22.2041 405.84 23.4521 405.84C24.7321 405.84 25.5001 405.84 25.8521 405.84C26.2681 405.84 26.5881 405.808 26.8121 405.808C27.2281 405.712 27.5481 405.584 27.7081 405.36C27.9001 405.168 27.9961 404.848 27.9961 404.432C28.0281 403.536 28.0281 402.672 27.9961 401.808C27.9961 401.392 27.9001 401.104 27.7081 400.912C27.5161 400.752 27.1961 400.72 26.7481 400.816C26.6521 400.816 26.4281 400.848 26.0761 400.912C25.7241 401.008 25.4681 401.04 25.2441 401.04C22.0121 401.136 19.0681 401.2 16.3801 401.2C15.9001 401.232 15.3561 401.136 14.7481 400.944C14.5881 400.912 14.4281 400.848 14.2681 400.72C14.1081 400.624 13.9801 400.496 13.8841 400.336C13.7881 400.208 13.6921 400.048 13.6281 399.888C13.5641 399.728 13.5321 399.536 13.5321 399.344C13.5321 398.608 13.9161 398.096 14.6521 397.776C15.0681 397.584 15.4841 397.488 15.8041 397.488C15.9001 397.456 16.3161 397.456 17.0201 397.456C17.7561 397.456 18.1401 397.488 18.2361 397.488C20.6361 397.456 22.1721 397.424 22.8121 397.424C23.0361 397.424 23.2601 397.36 23.4521 397.232C23.6761 397.136 23.8361 396.976 23.9641 396.816C24.0921 396.624 24.1561 396.432 24.1881 396.208C24.2521 395.568 24.2201 394.832 24.1561 394.096C24.0921 393.456 23.7081 393.072 23.0681 392.976C22.3641 392.88 21.8521 392.816 21.5321 392.848C21.1801 392.848 20.5081 392.88 19.5161 392.912C18.5241 392.944 17.7881 392.976 17.2441 392.976C16.5081 392.944 15.6761 392.848 14.8121 392.624C14.0121 392.432 13.5641 391.952 13.5321 391.12C13.4681 390.256 13.8201 389.68 14.5881 389.424C15.2921 389.168 15.9641 389.04 16.6041 389.04C19.0361 389.008 21.5001 389.008 23.9961 389.04C24.5721 389.04 25.4681 389.168 26.6201 389.36C27.0681 389.456 27.3881 389.424 27.6121 389.296C27.8041 389.168 27.9321 388.88 27.9641 388.432C28.0281 387.504 28.0281 386.576 27.9321 385.648C27.9001 385.2 27.7721 384.88 27.5801 384.72C27.3561 384.528 27.0361 384.4 26.5881 384.336C26.3321 384.304 25.8201 384.272 25.0521 384.304C24.8921 384.304 24.6681 384.336 24.3481 384.368C24.0601 384.4 23.8041 384.4 23.6441 384.4C22.9081 384.4 18.3961 384.4 14.3321 384.4Z" fill="#35292B"/>
<path d="M27.2086 469.936C28.0086 469.808 28.2646 469.36 27.9126 468.56C26.2166 464.528 25.1286 461.904 24.6166 460.688C24.3286 459.984 23.4326 457.68 21.9286 453.776C21.8966 453.68 21.8006 453.424 21.6406 453.008C21.4806 452.592 21.3526 452.304 21.3206 452.144C21.2566 451.984 21.1926 451.76 21.0646 451.408C20.9686 451.056 20.9046 450.768 20.8406 450.512C20.7766 450.224 20.7446 449.968 20.7446 449.68C20.7126 449.392 20.6166 449.136 20.4566 448.912C20.2966 448.72 20.0726 448.592 19.7846 448.592C18.1526 448.464 16.8086 448.4 15.7846 448.432C15.3366 448.464 15.0166 448.592 14.7926 448.816C14.6006 449.04 14.4406 449.392 14.3446 449.84C14.2166 450.704 14.0566 451.376 13.8646 451.856C12.3286 455.824 11.1126 458.928 10.1846 461.2C9.76857 462.192 8.74458 464.592 7.08057 468.368C6.85658 468.848 6.82457 469.2 6.92057 469.424C7.01657 469.616 7.33657 469.776 7.88057 469.84C8.07257 469.84 8.93657 469.904 10.5046 469.968C11.5286 470 12.2006 469.52 12.5206 468.528C12.9366 467.376 13.7366 466.768 14.9846 466.704C15.9126 466.672 17.5766 466.704 19.9766 466.8C21.1926 466.864 22.0566 467.472 22.5366 468.688C22.7606 469.36 23.2406 469.712 23.9446 469.808C24.0406 469.808 24.7126 469.872 25.9926 470C26.3446 470 26.7606 469.968 27.2086 469.936ZM18.0886 458.352C18.2806 458.416 18.4726 458.512 18.6006 458.64C18.7606 458.768 18.8886 458.896 18.9846 459.056C19.0806 459.216 19.1766 459.408 19.2406 459.6C19.2726 459.824 19.3046 460.048 19.3046 460.272C19.3046 460.816 19.1126 461.296 18.7926 461.648C18.4726 462 18.0246 462.192 17.5126 462.192C16.9686 462.192 16.5206 462.032 16.2006 461.648C15.8486 461.296 15.6886 460.816 15.6886 460.208C15.6886 459.824 15.7526 459.504 15.9126 459.216C16.0726 458.896 16.2966 458.672 16.5526 458.512C16.8406 458.352 17.1606 458.256 17.5126 458.256C17.7046 458.256 17.8966 458.288 18.0886 458.352Z" fill="#35292B"/>
<path d="M7.7557 532.656C7.7237 533.424 7.9797 533.84 8.5237 533.872C9.8357 533.904 10.9557 533.904 11.9157 533.84C12.6197 533.776 12.9397 533.328 12.8757 532.496C12.7797 530.992 12.7157 529.712 12.7157 528.656C12.7157 528.208 12.8437 527.696 13.0677 527.152C13.4197 526.256 14.0597 525.808 15.0517 525.808C16.0117 525.808 16.8117 526.224 17.4197 527.088C18.7317 528.88 19.7237 530.736 20.3637 532.656C20.5237 533.136 20.7477 533.456 20.9717 533.616C21.1957 533.776 21.5477 533.872 22.0597 533.904C22.1877 533.904 22.4757 533.936 22.8917 533.968C23.3077 534 23.6277 534 23.8837 534C24.3957 534 24.8437 533.968 25.2597 533.904C25.8677 533.744 26.0597 533.36 25.8037 532.784C25.7717 532.72 25.7397 532.656 25.7077 532.592C25.6757 532.528 25.6117 532.464 25.5797 532.4C25.5477 532.336 25.5157 532.272 25.4517 532.24C24.3637 530.192 23.7877 529.072 23.6597 528.88C22.7957 527.088 23.2117 525.648 24.9077 524.592C25.2277 524.368 25.4517 524.24 25.5157 524.176C26.9877 523.216 27.8837 521.84 28.2037 520.112C28.3957 518.992 28.3317 517.776 27.9477 516.432C27.4357 514.576 26.2517 513.424 24.4277 512.976C23.0517 512.688 21.8677 512.528 20.8757 512.496C19.7557 512.464 16.0117 512.464 9.6437 512.464C9.3237 512.464 9.0677 512.496 8.8437 512.528C8.2997 512.592 7.9477 512.72 7.8197 512.912C7.6597 513.136 7.5957 513.52 7.6597 514.064C7.8197 515.248 7.8837 516.208 7.8837 517.008C7.9157 517.456 7.9157 519.632 7.9157 523.6C7.9157 527.248 7.9157 529.328 7.9157 529.776C7.8837 530.192 7.8517 531.152 7.7557 532.656ZM14.3477 520.496C13.6757 520.208 13.3557 519.696 13.3557 518.96C13.3557 518.288 13.7077 517.776 14.3797 517.424C14.7957 517.232 15.1477 517.104 15.4997 517.104C16.0437 517.104 17.5477 517.168 19.9477 517.232C20.0117 517.232 20.1077 517.264 20.2677 517.264C20.7797 517.392 21.1957 517.616 21.4837 517.904C21.7397 518.192 21.8997 518.576 21.8997 518.992C21.8997 519.408 21.7717 519.76 21.5157 520.048C21.2597 520.368 20.8757 520.56 20.3637 520.656C20.0117 520.72 19.4677 520.784 18.7957 520.816C18.0917 520.848 17.6437 520.848 17.4517 520.88C16.3637 520.88 15.7877 520.88 15.7237 520.848C15.2117 520.816 14.7637 520.688 14.3477 520.496Z" fill="#35292B"/>
</svg>
