<svg width="900" height="331" viewBox="0 0 900 331" fill="none" xmlns="http://www.w3.org/2000/svg">
<path d="M63.395 277.7C66.185 277.855 68.355 278.01 69.75 278.165C74.555 278.94 78.12 280.645 80.29 282.97C82.46 285.295 83.7 289.015 83.855 293.82C84.01 296.455 83.855 302.345 83.235 311.645C83.08 313.66 83.235 315.055 83.7 315.985C84.165 316.76 85.095 317.225 86.49 317.38C92.69 318 98.27 318.155 103.23 317.845C104.47 317.845 105.4 317.69 106.175 317.225C106.795 316.605 107.26 315.985 107.415 315.21C107.725 314.28 107.725 313.195 107.57 311.955C106.485 297.54 105.865 288.705 105.865 285.295C105.71 277.545 105.865 259.875 106.485 232.285C106.485 229.34 106.795 225.31 107.26 220.35C107.725 216.475 106.175 214.305 102.61 213.995C97.03 213.53 92.38 213.22 88.66 213.22C85.87 213.22 84.01 213.84 83.235 214.925C82.305 216.01 82.15 218.025 82.46 220.97C83.08 229.34 83.235 236.315 82.77 242.05C82.615 245.77 81.53 248.56 79.67 250.575C77.81 252.745 75.02 253.985 71.145 254.605C62.31 256.155 55.025 256.465 49.135 255.535C45.88 254.915 43.09 253.985 41.23 252.745C39.215 251.66 37.665 249.955 36.58 247.94C35.495 245.77 35.03 243.135 34.72 239.88C34.72 238.795 34.565 237.865 34.565 237.09C35.03 228.875 35.495 223.14 35.65 219.885C35.96 216.32 34.72 214.305 31.93 214.15C25.42 213.375 20.15 213.065 16.12 213.22C13.64 213.375 11.935 213.995 11.005 215.08C10.075 216.165 9.76499 218.025 10.075 220.505C10.85 228.565 11.315 232.905 11.315 233.68C11.935 253.365 12.245 267.625 12.245 276.77C12.245 278.165 12.245 281.885 12.4 287.62C12.4 293.51 12.4 298.315 12.245 301.88C12.09 305.6 11.78 309.32 11.005 312.885C10.85 313.97 11.005 315.055 11.47 315.985C12.09 316.76 12.865 317.225 13.95 317.38C21.39 317.845 27.435 318.155 31.93 318C33.48 318 34.565 317.38 35.185 316.45C35.96 315.365 36.115 314.125 35.96 312.42C35.805 311.645 35.65 310.715 35.495 309.63C35.185 308.545 35.03 307.77 35.03 307.305C33.79 299.09 33.635 292.89 34.565 288.705C36.115 282.815 39.525 279.405 45.105 278.63C45.725 278.475 50.065 278.165 58.125 277.235C58.125 277.39 63.085 277.7 63.395 277.7Z" fill="#35292B"/>
<path d="M211.683 317.69C215.558 317.07 216.798 314.9 215.093 311.025C206.878 291.495 201.608 278.785 199.128 272.895C197.733 269.485 193.393 258.325 186.108 239.415C185.953 238.95 185.488 237.71 184.713 235.695C183.938 233.68 183.318 232.285 183.163 231.51C182.853 230.735 182.543 229.65 181.923 227.945C181.458 226.24 181.148 224.845 180.838 223.605C180.528 222.21 180.373 220.97 180.373 219.575C180.218 218.18 179.753 216.94 178.978 215.855C178.203 214.925 177.118 214.305 175.723 214.305C167.818 213.685 161.308 213.375 156.348 213.53C154.178 213.685 152.628 214.305 151.543 215.39C150.613 216.475 149.838 218.18 149.373 220.35C148.753 224.535 147.978 227.79 147.048 230.115C139.608 249.335 133.718 264.37 129.223 275.375C127.208 280.18 122.248 291.805 114.188 310.095C113.103 312.42 112.948 314.125 113.413 315.21C113.878 316.14 115.428 316.915 118.063 317.225C118.993 317.225 123.178 317.535 130.773 317.845C135.733 318 138.988 315.675 140.538 310.87C142.553 305.29 146.428 302.345 152.473 302.035C156.968 301.88 165.028 302.035 176.653 302.5C182.543 302.81 186.728 305.755 189.053 311.645C190.138 314.9 192.463 316.605 195.873 317.07C196.338 317.07 199.593 317.38 205.793 318C207.498 318 209.513 317.845 211.683 317.69ZM167.508 261.58C168.438 261.89 169.368 262.355 169.988 262.975C170.763 263.595 171.383 264.215 171.848 264.99C172.313 265.765 172.778 266.695 173.088 267.625C173.243 268.71 173.398 269.795 173.398 270.88C173.398 273.515 172.468 275.84 170.918 277.545C169.368 279.25 167.198 280.18 164.718 280.18C162.083 280.18 159.913 279.405 158.363 277.545C156.658 275.84 155.883 273.515 155.883 270.57C155.883 268.71 156.193 267.16 156.968 265.765C157.743 264.215 158.828 263.13 160.068 262.355C161.463 261.58 163.013 261.115 164.718 261.115C165.648 261.115 166.578 261.27 167.508 261.58Z" fill="#35292B"/>
<path d="M312.932 317.38C315.567 317.225 317.582 316.605 318.667 315.52C319.907 314.28 320.527 312.42 320.527 309.785C320.527 306.685 320.372 302.965 319.907 298.47C319.597 295.835 318.977 294.13 318.202 293.51C317.272 292.89 315.412 292.735 312.622 293.2C304.872 294.285 299.137 294.75 295.262 294.905C288.132 295.06 277.592 295.06 263.797 294.905C261.162 294.905 258.372 294.595 255.427 293.665C250.002 292.425 246.747 289.015 245.662 283.28C245.042 279.405 244.732 276.15 244.732 273.36C244.887 264.37 245.197 249.645 245.507 229.185C245.507 226.55 245.662 223.76 245.972 220.815C246.282 218.335 245.972 216.63 245.042 215.39C244.267 214.305 242.562 213.84 240.082 213.685C235.897 213.53 231.247 213.375 226.132 213.53C224.737 213.685 223.652 213.84 222.877 214.305C222.257 214.615 221.637 215.235 221.327 216.165C221.017 216.94 221.017 218.18 221.172 219.575C221.172 219.73 221.327 221.28 221.792 224.07C222.102 226.86 222.257 228.875 222.257 230.27C222.722 245.305 223.032 262.045 223.187 280.49C223.187 281.265 223.032 282.97 222.722 285.295C222.567 287.775 222.567 289.48 222.722 290.72C223.342 297.54 223.187 304.825 221.947 312.265C221.637 313.815 221.792 315.055 222.412 315.83C223.187 316.605 224.272 317.07 225.977 317.38C230.627 317.845 234.037 318 236.362 318C241.322 318 246.437 317.845 251.552 317.845C256.667 317.69 263.177 317.535 271.082 317.38C278.832 317.225 283.947 317.225 286.117 317.225V317.38C302.392 317.38 311.382 317.38 312.932 317.38Z" fill="#35292B"/>
<path d="M335.49 213.53C333.32 213.53 331.77 213.53 330.995 213.685C327.43 214.15 325.725 216.32 326.19 219.885C326.345 220.815 326.5 222.83 326.965 225.775C327.275 228.72 327.585 231.2 327.895 233.215C328.05 235.23 328.05 237.245 327.895 239.105C327.895 244.22 328.05 251.97 328.205 262.045C328.515 272.12 328.515 281.265 328.36 289.325C328.205 297.385 327.74 305.135 326.965 312.42C326.5 315.83 327.895 317.69 331.15 318C337.35 318.155 342.775 318.155 347.58 317.845C349.44 317.69 350.68 317.07 351.455 315.985C352.23 314.9 352.54 313.35 352.385 311.18C351.765 302.345 351.455 295.68 351.455 291.34C351.455 287.155 352.695 283.9 355.02 281.265C357.345 278.785 360.755 277.235 364.785 276.77C366.025 276.615 367.575 276.615 369.59 276.615C370.675 276.615 374.24 276.615 380.44 276.615C386.64 276.615 391.445 276.615 394.855 276.615C397.645 276.46 399.815 276.15 401.21 275.84C403.535 275.065 404.93 273.98 405.55 272.74C407.255 267.78 407.255 262.665 405.55 257.395C405.24 256.62 404 255.69 401.985 254.915C400.9 254.45 399.505 254.295 397.8 254.295C396.405 254.295 392.995 254.45 387.57 254.605C382.145 254.605 378.115 254.76 375.17 254.76C371.14 254.76 366.645 254.295 361.53 253.52C360.135 253.365 358.43 252.59 356.725 251.195C354.865 249.645 353.935 247.785 353.935 245.615C353.78 243.6 354.71 241.585 356.725 240.035C358.12 238.64 359.825 237.555 361.685 237.09C365.25 236.315 368.505 236.005 371.605 236.005C384.47 235.695 395.94 235.695 405.86 236.005C409.27 236.005 413.455 236.47 418.415 237.4C420.895 237.865 422.445 237.71 423.375 237.245C424.15 236.78 424.77 235.385 425.08 233.06C425.08 231.975 425.08 227.79 424.77 220.815C424.615 218.49 424.15 216.63 423.22 215.545C422.29 214.46 420.585 213.53 418.26 213.065C416.71 212.755 414.85 212.755 413.145 212.755C411.75 212.755 409.115 212.91 405.085 213.065C401.21 213.22 398.11 213.375 396.095 213.375C394.235 213.53 384.47 213.53 366.49 213.53C349.44 213.53 339.055 213.53 335.49 213.53Z" fill="#35292B"/>
<path d="M522.666 317.38C525.301 317.225 527.316 316.605 528.401 315.52C529.641 314.28 530.261 312.42 530.261 309.785C530.261 306.685 530.106 302.965 529.641 298.47C529.331 295.835 528.711 294.13 527.936 293.51C527.006 292.89 525.146 292.735 522.356 293.2C514.606 294.285 508.871 294.75 504.996 294.905C497.866 295.06 487.326 295.06 473.531 294.905C470.896 294.905 468.106 294.595 465.161 293.665C459.736 292.425 456.481 289.015 455.396 283.28C454.776 279.405 454.466 276.15 454.466 273.36C454.621 264.37 454.931 249.645 455.241 229.185C455.241 226.55 455.396 223.76 455.706 220.815C456.016 218.335 455.706 216.63 454.776 215.39C454.001 214.305 452.296 213.84 449.816 213.685C445.631 213.53 440.981 213.375 435.866 213.53C434.471 213.685 433.386 213.84 432.611 214.305C431.991 214.615 431.371 215.235 431.061 216.165C430.751 216.94 430.751 218.18 430.906 219.575C430.906 219.73 431.061 221.28 431.526 224.07C431.836 226.86 431.991 228.875 431.991 230.27C432.456 245.305 432.766 262.045 432.921 280.49C432.921 281.265 432.766 282.97 432.456 285.295C432.301 287.775 432.301 289.48 432.456 290.72C433.076 297.54 432.921 304.825 431.681 312.265C431.371 313.815 431.526 315.055 432.146 315.83C432.921 316.605 434.006 317.07 435.711 317.38C440.361 317.845 443.771 318 446.096 318C451.056 318 456.171 317.845 461.286 317.845C466.401 317.69 472.911 317.535 480.816 317.38C488.566 317.225 493.681 317.225 495.851 317.225V317.38C512.126 317.38 521.116 317.38 522.666 317.38Z" fill="#35292B"/>
<path d="M540.42 213.84C537.165 214.15 535.615 216.01 535.925 219.575C537.01 235.695 537.785 245.46 537.785 248.87C537.94 257.55 537.94 275.53 537.785 303.12C537.785 304.36 537.785 305.91 537.475 307.925C537.32 310.095 537.165 311.49 537.01 312.265C537.01 315.365 538.095 317.07 540.42 317.38C547.55 317.845 552.82 318.155 556.385 318C558.555 318 559.95 317.38 560.725 316.295C561.655 315.365 561.81 313.66 561.5 311.335C561.5 310.715 561.345 309.63 561.035 308.235C560.725 306.84 560.57 305.6 560.415 304.36C560.26 303.275 560.26 302.19 560.415 301.26C560.415 295.06 560.26 286.38 560.105 275.375C559.95 264.37 559.95 254.295 560.105 245.305C560.105 236.16 560.57 227.635 561.19 219.575C561.5 216.01 559.95 214.15 556.695 213.84C556.385 213.84 553.75 213.84 548.79 213.84C543.52 213.84 540.73 213.84 540.42 213.84Z" fill="#35292B"/>
<path d="M643.313 319.705C646.568 318.62 648.738 318 650.288 317.69C656.333 316.295 660.983 315.365 664.393 314.9C667.183 314.745 669.043 314.28 669.973 313.505C670.748 312.73 671.368 311.025 671.523 308.545C671.988 302.19 672.298 293.51 672.608 282.195C672.608 278.94 670.903 277.08 667.493 276.77C666.408 276.615 663.773 276.615 659.898 276.615C655.248 276.615 652.458 276.925 651.528 277.7C650.753 278.475 650.288 281.265 650.288 285.915C650.443 292.115 647.963 296.765 642.848 299.71C640.368 301.26 637.733 302.19 635.253 302.655C622.543 305.29 611.848 301.26 603.633 290.565C598.518 284.21 595.728 276.615 595.263 267.625C594.643 258.635 596.658 250.575 600.998 243.29C607.043 233.215 615.413 227.48 625.953 225.93C632.308 225 638.818 226.085 645.328 229.03C653.078 232.44 659.278 236.78 664.083 241.895C666.098 244.22 667.958 244.84 669.508 243.91C671.213 242.825 672.143 241.275 672.453 239.105C672.918 234.3 673.228 229.03 673.228 223.295C673.383 222.055 673.383 221.125 673.073 220.35C672.918 219.575 672.608 218.955 672.143 218.49C671.678 218.025 671.213 217.56 670.438 217.25C669.818 216.94 668.888 216.63 667.803 216.32C661.293 214.615 655.868 213.065 651.373 211.515C640.833 207.95 630.913 207.02 621.923 208.415C611.848 210.12 602.238 214.77 593.093 222.52C586.583 228.1 581.778 233.525 578.833 238.95C571.703 251.505 569.533 265.455 572.323 280.645C574.648 293.045 580.848 302.965 591.233 310.56C600.998 317.845 613.088 321.72 627.658 322.185C628.123 322.185 629.053 322.185 630.293 322.185C631.533 322.185 632.618 322.03 633.548 322.03C634.478 322.03 635.408 321.875 636.338 321.72C637.888 321.255 640.213 320.635 643.313 319.705Z" fill="#35292B"/>
<path d="M737.827 277.7C740.617 277.855 742.787 278.01 744.182 278.165C748.987 278.94 752.552 280.645 754.722 282.97C756.892 285.295 758.132 289.015 758.287 293.82C758.442 296.455 758.287 302.345 757.667 311.645C757.512 313.66 757.667 315.055 758.132 315.985C758.597 316.76 759.527 317.225 760.922 317.38C767.122 318 772.702 318.155 777.662 317.845C778.902 317.845 779.832 317.69 780.607 317.225C781.227 316.605 781.692 315.985 781.847 315.21C782.157 314.28 782.157 313.195 782.002 311.955C780.917 297.54 780.297 288.705 780.297 285.295C780.142 277.545 780.297 259.875 780.917 232.285C780.917 229.34 781.227 225.31 781.692 220.35C782.157 216.475 780.607 214.305 777.042 213.995C771.462 213.53 766.812 213.22 763.092 213.22C760.302 213.22 758.442 213.84 757.667 214.925C756.737 216.01 756.582 218.025 756.892 220.97C757.512 229.34 757.667 236.315 757.202 242.05C757.047 245.77 755.962 248.56 754.102 250.575C752.242 252.745 749.452 253.985 745.577 254.605C736.742 256.155 729.457 256.465 723.567 255.535C720.312 254.915 717.522 253.985 715.662 252.745C713.647 251.66 712.097 249.955 711.012 247.94C709.927 245.77 709.462 243.135 709.152 239.88C709.152 238.795 708.997 237.865 708.997 237.09C709.462 228.875 709.927 223.14 710.082 219.885C710.392 216.32 709.152 214.305 706.362 214.15C699.852 213.375 694.582 213.065 690.552 213.22C688.072 213.375 686.367 213.995 685.437 215.08C684.507 216.165 684.197 218.025 684.507 220.505C685.282 228.565 685.747 232.905 685.747 233.68C686.367 253.365 686.677 267.625 686.677 276.77C686.677 278.165 686.677 281.885 686.832 287.62C686.832 293.51 686.832 298.315 686.677 301.88C686.522 305.6 686.212 309.32 685.437 312.885C685.282 313.97 685.437 315.055 685.902 315.985C686.522 316.76 687.297 317.225 688.382 317.38C695.822 317.845 701.867 318.155 706.362 318C707.912 318 708.997 317.38 709.617 316.45C710.392 315.365 710.547 314.125 710.392 312.42C710.237 311.645 710.082 310.715 709.927 309.63C709.617 308.545 709.462 307.77 709.462 307.305C708.222 299.09 708.067 292.89 708.997 288.705C710.547 282.815 713.957 279.405 719.537 278.63C720.157 278.475 724.497 278.165 732.557 277.235C732.557 277.39 737.517 277.7 737.827 277.7Z" fill="#35292B"/>
<path d="M830.314 213.84C810.474 213.84 799.469 213.84 797.144 213.84C795.129 213.84 793.424 214.15 792.029 214.77C790.789 215.39 789.859 216.32 789.239 217.56C788.464 218.8 788.154 220.66 787.999 222.83C787.689 225.775 787.689 228.875 787.999 231.975C787.999 233.835 788.464 235.23 789.394 236.005C790.324 236.625 791.719 236.935 793.579 236.78C794.199 236.78 795.594 236.47 797.764 236.16C799.779 236.005 801.484 235.85 802.724 235.85C809.544 235.54 814.194 235.695 816.519 236.005C818.689 236.47 820.549 237.245 822.099 238.175C823.649 239.26 825.044 240.655 825.974 242.205C827.059 243.91 827.524 245.77 827.834 248.095C828.764 258.325 829.229 266.385 829.074 272.275C829.074 276.15 828.764 289.48 827.989 312.11C827.679 315.365 828.764 317.07 830.934 317.38C838.374 317.845 843.799 318.155 847.519 317.845C849.844 317.845 851.239 317.225 852.014 316.14C852.634 315.21 852.789 313.35 852.479 310.87C851.549 303.895 851.084 298.935 850.929 296.3C850.774 285.14 850.774 272.585 850.929 258.325C850.929 254.915 851.394 251.35 852.324 247.785C854.029 240.965 858.369 237.4 865.499 236.935C866.584 236.935 867.514 236.935 868.289 236.935C872.474 237.245 878.054 237.4 885.029 237.71C887.509 237.865 889.214 237.4 890.144 236.625C891.074 235.85 891.694 234.3 892.159 231.975C892.314 230.735 892.314 228.875 892.469 226.24C892.469 222.675 892.159 220.04 891.539 218.335C890.764 216.63 889.679 215.39 888.129 214.77C886.424 214.15 883.789 213.84 880.224 213.84C878.054 213.84 864.569 213.84 839.924 213.84C833.879 213.84 830.624 213.84 830.314 213.84Z" fill="#35292B"/>
<path d="M18.0894 151.392C11.4974 151.392 7.84089 151.392 7.06839 151.392C6.39889 151.392 5.83239 151.495 5.36889 151.701C4.95689 151.907 4.64789 152.216 4.44189 152.628C4.18439 153.04 4.08139 153.658 4.02989 154.379C3.92689 155.358 3.92689 156.388 4.02989 157.418C4.02989 158.036 4.18439 158.499 4.49339 158.757C4.80239 158.963 5.26589 159.066 5.88389 159.014C6.08989 159.014 6.55339 158.911 7.27439 158.808C7.94389 158.757 8.51039 158.705 8.92239 158.705C11.1884 158.602 12.7334 158.654 13.5059 158.757C14.2269 158.911 14.8449 159.169 15.3599 159.478C15.8749 159.838 16.3384 160.302 16.6474 160.817C17.0079 161.383 17.1624 162.001 17.2654 162.774C17.5744 166.173 17.7289 168.851 17.6774 170.808C17.6774 172.095 17.5744 176.524 17.3169 184.043C17.2139 185.125 17.5744 185.691 18.2954 185.794C20.7674 185.949 22.5699 186.052 23.8059 185.949C24.5784 185.949 25.0419 185.743 25.2994 185.382C25.5054 185.073 25.5569 184.455 25.4539 183.631C25.1449 181.314 24.9904 179.666 24.9389 178.79C24.8874 175.082 24.8874 170.911 24.9389 166.173C24.9389 165.04 25.0934 163.855 25.4024 162.671C25.9689 160.405 27.4109 159.22 29.7799 159.066C30.1404 159.066 30.4494 159.066 30.7069 159.066C32.0974 159.169 33.9514 159.22 36.2689 159.323C37.0929 159.375 37.6594 159.22 37.9684 158.963C38.2774 158.705 38.4834 158.19 38.6379 157.418C38.6894 157.006 38.6894 156.388 38.7409 155.512C38.7409 154.328 38.6379 153.452 38.4319 152.886C38.1744 152.319 37.8139 151.907 37.2989 151.701C36.7324 151.495 35.8569 151.392 34.6724 151.392C33.9514 151.392 29.4709 151.392 21.2824 151.392C19.2739 151.392 18.1924 151.392 18.0894 151.392Z" fill="#35292B"/>
<path d="M60.8778 172.61C61.8048 172.662 62.5258 172.713 62.9893 172.765C64.5858 173.022 65.7703 173.589 66.4913 174.361C67.2123 175.134 67.6243 176.37 67.6758 177.966C67.7273 178.842 67.6758 180.799 67.4698 183.889C67.4183 184.558 67.4698 185.022 67.6243 185.331C67.7788 185.588 68.0878 185.743 68.5513 185.794C70.6113 186 72.4653 186.052 74.1133 185.949C74.5253 185.949 74.8343 185.897 75.0918 185.743C75.2978 185.537 75.4523 185.331 75.5038 185.073C75.6068 184.764 75.6068 184.404 75.5553 183.992C75.1948 179.202 74.9888 176.267 74.9888 175.134C74.9373 172.559 74.9888 166.688 75.1948 157.521C75.1948 156.542 75.2978 155.203 75.4523 153.555C75.6068 152.268 75.0918 151.547 73.9073 151.444C72.0533 151.289 70.5083 151.186 69.2723 151.186C68.3453 151.186 67.7273 151.392 67.4698 151.753C67.1608 152.113 67.1093 152.783 67.2123 153.761C67.4183 156.542 67.4698 158.86 67.3153 160.765C67.2638 162.001 66.9033 162.928 66.2853 163.598C65.6673 164.319 64.7403 164.731 63.4528 164.937C60.5173 165.452 58.0968 165.555 56.1398 165.246C55.0583 165.04 54.1313 164.731 53.5133 164.319C52.8438 163.958 52.3288 163.392 51.9683 162.722C51.6078 162.001 51.4533 161.126 51.3503 160.044C51.3503 159.684 51.2988 159.375 51.2988 159.117C51.4533 156.388 51.6078 154.482 51.6593 153.401C51.7623 152.216 51.3503 151.547 50.4233 151.495C48.2603 151.238 46.5093 151.135 45.1703 151.186C44.3463 151.238 43.7798 151.444 43.4708 151.804C43.1618 152.165 43.0588 152.783 43.1618 153.607C43.4193 156.285 43.5738 157.727 43.5738 157.984C43.7798 164.525 43.8828 169.263 43.8828 172.301C43.8828 172.765 43.8828 174.001 43.9343 175.906C43.9343 177.863 43.9343 179.46 43.8828 180.644C43.8313 181.88 43.7283 183.116 43.4708 184.301C43.4193 184.661 43.4708 185.022 43.6253 185.331C43.8313 185.588 44.0888 185.743 44.4493 185.794C46.9213 185.949 48.9298 186.052 50.4233 186C50.9383 186 51.2988 185.794 51.5048 185.485C51.7623 185.125 51.8138 184.713 51.7623 184.146C51.7108 183.889 51.6593 183.58 51.6078 183.219C51.5048 182.859 51.4533 182.601 51.4533 182.447C51.0413 179.717 50.9898 177.657 51.2988 176.267C51.8138 174.31 52.9468 173.177 54.8008 172.919C55.0068 172.868 56.4488 172.765 59.1268 172.456C59.1268 172.507 60.7748 172.61 60.8778 172.61Z" fill="#35292B"/>
<path d="M93.3072 151.238C87.9512 151.238 84.9642 151.238 84.4492 151.289C83.4192 151.289 82.7496 151.444 82.4921 151.804C82.1831 152.113 82.1832 152.783 82.4407 153.761C82.5952 154.482 82.6982 155.049 82.6982 155.461C83.0072 161.641 83.1616 165.606 83.2132 167.357C83.3161 170.499 83.3161 173.898 83.2132 177.709C83.1616 179.717 83.0071 181.52 82.7496 183.116C82.5436 184.404 82.5436 185.228 82.8011 185.537C83.0586 185.846 83.8827 186 85.1702 186C87.3847 186 90.6291 185.949 94.8521 185.897C99.0751 185.794 102.165 185.794 104.122 185.794C104.689 185.743 105.976 185.743 107.985 185.743C110.045 185.743 111.281 185.743 111.847 185.743C112.517 185.743 113.032 185.691 113.392 185.691C114.062 185.537 114.577 185.331 114.834 184.97C115.143 184.661 115.298 184.146 115.298 183.477C115.349 182.035 115.349 180.644 115.298 179.254C115.298 178.584 115.143 178.121 114.834 177.812C114.525 177.554 114.01 177.503 113.289 177.657C113.135 177.657 112.774 177.709 112.208 177.812C111.641 177.966 111.229 178.018 110.869 178.018C105.667 178.172 100.929 178.275 96.6031 178.275C95.8307 178.327 94.9551 178.172 93.9766 177.863C93.7191 177.812 93.4616 177.709 93.2041 177.503C92.9466 177.348 92.7407 177.142 92.5862 176.885C92.4317 176.679 92.2771 176.421 92.1741 176.164C92.0711 175.906 92.0196 175.597 92.0196 175.288C92.0196 174.104 92.6377 173.28 93.8222 172.765C94.4917 172.456 95.1611 172.301 95.6761 172.301C95.8306 172.25 96.5001 172.25 97.6331 172.25C98.8176 172.25 99.4356 172.301 99.5901 172.301C103.453 172.25 105.925 172.198 106.955 172.198C107.315 172.198 107.676 172.095 107.985 171.889C108.345 171.735 108.603 171.477 108.809 171.22C109.015 170.911 109.118 170.602 109.169 170.241C109.272 169.211 109.221 168.027 109.118 166.842C109.015 165.812 108.397 165.194 107.367 165.04C106.234 164.885 105.41 164.782 104.895 164.834C104.328 164.834 103.247 164.885 101.65 164.937C100.054 164.988 98.8691 165.04 97.9936 165.04C96.8091 164.988 95.4702 164.834 94.0797 164.473C92.7922 164.164 92.0711 163.392 92.0196 162.053C91.9166 160.662 92.4831 159.735 93.7191 159.323C94.8521 158.911 95.9336 158.705 96.9636 158.705C100.878 158.654 104.843 158.654 108.86 158.705C109.787 158.705 111.229 158.911 113.083 159.22C113.804 159.375 114.319 159.323 114.68 159.117C114.989 158.911 115.195 158.448 115.246 157.727C115.349 156.233 115.349 154.74 115.195 153.246C115.143 152.525 114.937 152.01 114.628 151.753C114.268 151.444 113.753 151.238 113.032 151.135C112.62 151.083 111.796 151.032 110.56 151.083C110.302 151.083 109.942 151.135 109.427 151.186C108.963 151.238 108.551 151.238 108.294 151.238C107.109 151.238 99.8477 151.238 93.3072 151.238Z" fill="#35292B"/>
<path d="M146.545 176.318C146.545 175.752 146.597 175.288 146.597 174.928C146.597 174.516 146.648 174.104 146.7 173.743C146.957 172.404 147.575 171.529 148.605 171.117C149.687 170.705 150.768 170.911 151.901 171.683C152.313 171.992 152.674 172.301 152.983 172.61C153.755 173.486 154.888 174.67 156.279 176.267C157.669 177.812 158.648 178.893 159.214 179.511C160.759 181.159 161.635 182.807 161.892 184.455C162.047 185.434 162.716 185.949 163.901 185.949C165.755 186 167.506 186 169.205 185.949C169.875 185.949 170.338 185.794 170.596 185.485C170.853 185.125 170.956 184.61 170.905 183.889C170.544 180.335 170.287 177.657 170.235 175.855C170.184 175.134 170.235 174.104 170.338 172.713C170.39 171.374 170.441 170.499 170.441 170.035C170.493 167.409 170.596 161.95 170.699 153.607C170.699 152.989 170.596 152.525 170.338 152.268C170.132 151.959 169.669 151.856 169.102 151.856C167.3 151.753 165.6 151.753 163.952 151.856C163.489 151.856 163.18 151.907 162.922 152.062C162.716 152.216 162.562 152.422 162.459 152.68C162.407 152.989 162.407 153.349 162.459 153.761C162.459 154.019 162.562 154.431 162.613 154.946C162.716 155.461 162.768 155.924 162.819 156.285C162.871 156.697 162.922 157.057 162.922 157.418C162.922 160.559 162.871 162.877 162.665 164.422C162.459 166.173 161.326 166.997 159.317 166.894C158.39 166.842 157.566 166.43 156.794 165.555C154.528 163.083 152.159 160.405 149.687 157.521C148.657 156.336 148.039 155.049 147.884 153.607C147.781 152.989 147.524 152.525 147.215 152.268C146.854 151.959 146.339 151.804 145.618 151.804C144.125 151.753 142.477 151.753 140.623 151.804C139.799 151.804 139.232 151.959 138.975 152.268C138.717 152.577 138.614 153.143 138.717 154.019C138.923 155.821 139.078 157.572 139.129 159.272C139.335 163.031 139.387 165.709 139.387 167.203C139.387 168.336 139.387 170.087 139.438 172.404C139.49 174.773 139.49 176.885 139.438 178.687C139.387 180.49 139.232 182.241 138.975 183.889C138.769 185.228 139.335 185.897 140.726 185.949C142.322 186.052 143.867 186.052 145.361 185.949C145.927 185.949 146.339 185.897 146.597 185.743C146.854 185.588 147.06 185.382 147.112 185.073C147.163 184.764 147.163 184.301 147.112 183.786C147.06 183.374 147.06 182.962 147.009 182.55C146.957 182.086 146.906 181.623 146.854 181.211C146.854 180.799 146.803 180.387 146.751 179.975C146.751 179.563 146.7 179.151 146.648 178.687C146.597 178.275 146.545 177.812 146.545 177.451C146.545 177.194 146.545 176.833 146.545 176.318Z" fill="#35292B"/>
<path d="M188.612 151.238C183.256 151.238 180.269 151.238 179.754 151.289C178.724 151.289 178.055 151.444 177.797 151.804C177.488 152.113 177.488 152.783 177.746 153.761C177.9 154.482 178.003 155.049 178.003 155.461C178.312 161.641 178.467 165.606 178.518 167.357C178.621 170.499 178.621 173.898 178.518 177.709C178.467 179.717 178.312 181.52 178.055 183.116C177.849 184.404 177.849 185.228 178.106 185.537C178.364 185.846 179.188 186 180.475 186C182.69 186 185.934 185.949 190.157 185.897C194.38 185.794 197.47 185.794 199.427 185.794C199.994 185.743 201.281 185.743 203.29 185.743C205.35 185.743 206.586 185.743 207.152 185.743C207.822 185.743 208.337 185.691 208.697 185.691C209.367 185.537 209.882 185.331 210.139 184.97C210.448 184.661 210.603 184.146 210.603 183.477C210.654 182.035 210.654 180.644 210.603 179.254C210.603 178.584 210.448 178.121 210.139 177.812C209.83 177.554 209.315 177.503 208.594 177.657C208.44 177.657 208.079 177.709 207.513 177.812C206.946 177.966 206.534 178.018 206.174 178.018C200.972 178.172 196.234 178.275 191.908 178.275C191.136 178.327 190.26 178.172 189.282 177.863C189.024 177.812 188.767 177.709 188.509 177.503C188.252 177.348 188.046 177.142 187.891 176.885C187.737 176.679 187.582 176.421 187.479 176.164C187.376 175.906 187.325 175.597 187.325 175.288C187.325 174.104 187.943 173.28 189.127 172.765C189.797 172.456 190.466 172.301 190.981 172.301C191.136 172.25 191.805 172.25 192.938 172.25C194.123 172.25 194.741 172.301 194.895 172.301C198.758 172.25 201.23 172.198 202.26 172.198C202.62 172.198 202.981 172.095 203.29 171.889C203.65 171.735 203.908 171.477 204.114 171.22C204.32 170.911 204.423 170.602 204.474 170.241C204.577 169.211 204.526 168.027 204.423 166.842C204.32 165.812 203.702 165.194 202.672 165.04C201.539 164.885 200.715 164.782 200.2 164.834C199.633 164.834 198.552 164.885 196.955 164.937C195.359 164.988 194.174 165.04 193.299 165.04C192.114 164.988 190.775 164.834 189.385 164.473C188.097 164.164 187.376 163.392 187.325 162.053C187.222 160.662 187.788 159.735 189.024 159.323C190.157 158.911 191.239 158.705 192.269 158.705C196.183 158.654 200.148 158.654 204.165 158.705C205.092 158.705 206.534 158.911 208.388 159.22C209.109 159.375 209.624 159.323 209.985 159.117C210.294 158.911 210.5 158.448 210.551 157.727C210.654 156.233 210.654 154.74 210.5 153.246C210.448 152.525 210.242 152.01 209.933 151.753C209.573 151.444 209.058 151.238 208.337 151.135C207.925 151.083 207.101 151.032 205.865 151.083C205.607 151.083 205.247 151.135 204.732 151.186C204.268 151.238 203.856 151.238 203.599 151.238C202.414 151.238 195.153 151.238 188.612 151.238Z" fill="#35292B"/>
<path d="M216.062 151.083C215.959 151.083 215.804 151.083 215.701 151.083C214.414 151.289 213.95 152.01 214.414 153.246C214.414 153.349 214.568 153.71 214.774 154.276C214.98 154.843 215.135 155.255 215.238 155.564C217.916 165.4 219.976 172.919 221.366 178.224C221.778 179.666 222.087 181.417 222.396 183.425C222.448 183.889 222.551 184.249 222.654 184.507C222.705 184.764 222.86 185.022 223.066 185.228C223.272 185.434 223.529 185.588 223.787 185.64C224.096 185.743 224.405 185.794 224.817 185.794C226.671 185.846 228.731 185.846 231.048 185.794C231.718 185.794 232.181 185.64 232.439 185.382C232.748 185.125 233.005 184.661 233.16 183.992C233.16 183.837 233.211 183.58 233.263 183.271C233.263 182.962 233.314 182.756 233.314 182.704C233.778 179.408 234.499 176.679 235.58 174.413C236.095 173.434 236.816 172.868 237.846 172.765C238.825 172.662 239.7 173.074 240.37 173.949C240.782 174.567 241.091 175.185 241.245 175.906C241.812 178.378 242.327 180.953 242.893 183.631C243.099 184.97 243.717 185.64 244.696 185.743C247.271 185.949 249.434 186 251.236 186C252.112 186 252.781 185.794 253.193 185.382C253.605 184.97 253.863 184.352 253.966 183.425C254.12 182.189 254.223 181.365 254.326 180.953C256.077 174.258 257.416 169.314 258.24 166.224C258.601 164.988 259.013 163.598 259.425 162.156C259.837 160.765 260.3 159.169 260.815 157.418C261.33 155.667 261.691 154.328 262 153.349C262.154 152.731 262.154 152.268 262 151.959C261.794 151.598 261.382 151.392 260.764 151.341C259.528 151.186 258.189 151.083 256.644 151.083C255.253 151.032 254.429 151.186 254.069 151.547C253.708 151.856 253.451 152.731 253.193 154.07C252.987 155.409 252.421 158.036 251.442 161.95C251.339 162.465 251.082 163.031 250.67 163.649C250.155 164.422 249.434 164.834 248.558 164.834C247.683 164.885 246.962 164.576 246.395 163.855C245.88 163.134 245.52 162.413 245.365 161.692C244.85 159.478 244.232 156.697 243.614 153.401C243.408 152.113 242.739 151.444 241.76 151.392C239.134 151.186 237.074 151.083 235.529 151.083C234.55 151.083 233.881 151.289 233.52 151.598C233.108 151.959 232.799 152.628 232.593 153.607C232.13 156.027 231.666 158.242 231.151 160.353C230.997 161.023 230.688 161.744 230.276 162.568C229.658 163.752 228.885 164.319 227.855 164.267C226.671 164.267 225.795 163.649 225.28 162.516C224.714 161.332 224.353 160.25 224.096 159.22C224.096 159.117 223.735 157.16 223.066 153.349C222.963 152.628 222.757 152.113 222.499 151.804C222.242 151.547 221.727 151.341 221.006 151.238C220.851 151.186 216.268 151.083 216.062 151.083Z" fill="#35292B"/>
<path d="M287.658 151.289C286.937 151.289 286.422 151.289 286.165 151.341C284.98 151.495 284.414 152.216 284.568 153.401C284.62 153.71 284.671 154.379 284.826 155.358C284.929 156.336 285.032 157.16 285.135 157.83C285.186 158.499 285.186 159.169 285.135 159.787C285.135 161.486 285.186 164.061 285.238 167.409C285.341 170.756 285.341 173.795 285.289 176.473C285.238 179.151 285.083 181.726 284.826 184.146C284.671 185.279 285.135 185.897 286.216 186C288.276 186.052 290.079 186.052 291.675 185.949C292.293 185.897 292.705 185.691 292.963 185.331C293.22 184.97 293.323 184.455 293.272 183.734C293.066 180.799 292.963 178.584 292.963 177.142C292.963 175.752 293.375 174.67 294.147 173.795C294.92 172.971 296.053 172.456 297.392 172.301C297.804 172.25 298.319 172.25 298.988 172.25C299.349 172.25 300.533 172.25 302.593 172.25C304.653 172.25 306.25 172.25 307.383 172.25C308.31 172.198 309.031 172.095 309.494 171.992C310.267 171.735 310.73 171.374 310.936 170.962C311.503 169.314 311.503 167.615 310.936 165.864C310.833 165.606 310.421 165.297 309.752 165.04C309.391 164.885 308.928 164.834 308.361 164.834C307.898 164.834 306.765 164.885 304.962 164.937C303.16 164.937 301.821 164.988 300.842 164.988C299.503 164.988 298.01 164.834 296.31 164.576C295.847 164.525 295.28 164.267 294.714 163.804C294.096 163.289 293.787 162.671 293.787 161.95C293.735 161.28 294.044 160.611 294.714 160.096C295.177 159.632 295.744 159.272 296.362 159.117C297.546 158.86 298.628 158.757 299.658 158.757C303.932 158.654 307.743 158.654 311.039 158.757C312.172 158.757 313.563 158.911 315.211 159.22C316.035 159.375 316.55 159.323 316.859 159.169C317.116 159.014 317.322 158.551 317.425 157.778C317.425 157.418 317.425 156.027 317.322 153.71C317.271 152.937 317.116 152.319 316.807 151.959C316.498 151.598 315.932 151.289 315.159 151.135C314.644 151.032 314.026 151.032 313.46 151.032C312.996 151.032 312.121 151.083 310.782 151.135C309.494 151.186 308.464 151.238 307.795 151.238C307.177 151.289 303.932 151.289 297.958 151.289C292.293 151.289 288.843 151.289 287.658 151.289Z" fill="#35292B"/>
<path d="M322.348 174.104C322.605 177.297 323.687 179.975 325.592 182.189C327.549 184.404 330.021 185.949 333.06 186.773C336.922 187.803 340.682 187.648 344.235 186.258C349.334 184.249 352.372 180.747 353.351 175.752C353.917 173.022 354.123 170.19 353.969 167.203C353.814 165.194 353.763 162.928 353.763 160.405C353.763 157.881 353.917 155.615 354.278 153.555C354.432 152.628 354.381 151.959 354.072 151.598C353.814 151.289 353.196 151.083 352.218 151.083C350.827 151.032 349.385 151.032 347.84 151.083C347.016 151.083 346.501 151.238 346.244 151.547C345.935 151.856 345.883 152.474 345.986 153.298C346.244 156.027 346.398 157.521 346.398 157.933C346.45 162.516 346.45 167.048 346.398 171.58C346.398 175.391 344.596 178.327 341.094 180.387C338.519 181.88 335.944 181.726 333.369 179.975C331.36 178.636 330.176 176.576 329.815 173.743C329.352 170.138 329.3 165.297 329.661 159.272C329.661 158.448 329.764 157.263 329.867 155.667C329.918 154.07 330.021 153.092 330.021 152.68C330.073 151.753 329.712 151.238 328.991 151.186C326.571 150.98 324.511 150.929 322.966 150.929C321.936 150.98 321.472 151.598 321.575 152.834C321.627 153.864 321.678 155.049 321.678 156.388C321.678 157.727 321.73 159.066 321.781 160.405C321.781 161.744 321.833 162.928 321.884 163.958C322.193 170.344 322.296 173.692 322.348 174.104Z" fill="#35292B"/>
<path d="M391.149 185.794C392.025 185.743 392.694 185.537 393.055 185.176C393.467 184.764 393.673 184.146 393.673 183.271C393.673 182.241 393.621 181.005 393.467 179.511C393.364 178.636 393.158 178.069 392.9 177.863C392.591 177.657 391.973 177.606 391.046 177.76C388.471 178.121 386.566 178.275 385.278 178.327C382.909 178.378 379.407 178.378 374.824 178.327C373.948 178.327 373.021 178.224 372.043 177.915C370.24 177.503 369.159 176.37 368.798 174.464C368.592 173.177 368.489 172.095 368.489 171.168C368.541 168.181 368.644 163.289 368.747 156.491C368.747 155.615 368.798 154.688 368.901 153.71C369.004 152.886 368.901 152.319 368.592 151.907C368.335 151.547 367.768 151.392 366.944 151.341C365.554 151.289 364.009 151.238 362.309 151.289C361.846 151.341 361.485 151.392 361.228 151.547C361.022 151.65 360.816 151.856 360.713 152.165C360.61 152.422 360.61 152.834 360.661 153.298C360.661 153.349 360.713 153.864 360.867 154.791C360.97 155.718 361.022 156.388 361.022 156.851C361.176 161.847 361.279 167.409 361.331 173.537C361.331 173.795 361.279 174.361 361.176 175.134C361.125 175.958 361.125 176.524 361.176 176.936C361.382 179.202 361.331 181.623 360.919 184.095C360.816 184.61 360.867 185.022 361.073 185.279C361.331 185.537 361.691 185.691 362.258 185.794C363.803 185.949 364.936 186 365.708 186C367.356 186 369.056 185.949 370.755 185.949C372.455 185.897 374.618 185.846 377.244 185.794C379.819 185.743 381.519 185.743 382.24 185.743V185.794C387.647 185.794 390.634 185.794 391.149 185.794Z" fill="#35292B"/>
<path d="M428.618 185.794C429.493 185.743 430.163 185.537 430.523 185.176C430.935 184.764 431.141 184.146 431.141 183.271C431.141 182.241 431.09 181.005 430.935 179.511C430.832 178.636 430.626 178.069 430.369 177.863C430.06 177.657 429.442 177.606 428.515 177.76C425.94 178.121 424.034 178.275 422.747 178.327C420.378 178.378 416.876 178.378 412.292 178.327C411.417 178.327 410.49 178.224 409.511 177.915C407.709 177.503 406.627 176.37 406.267 174.464C406.061 173.177 405.958 172.095 405.958 171.168C406.009 168.181 406.112 163.289 406.215 156.491C406.215 155.615 406.267 154.688 406.37 153.71C406.473 152.886 406.37 152.319 406.061 151.907C405.803 151.547 405.237 151.392 404.413 151.341C403.022 151.289 401.477 151.238 399.778 151.289C399.314 151.341 398.954 151.392 398.696 151.547C398.49 151.65 398.284 151.856 398.181 152.165C398.078 152.422 398.078 152.834 398.13 153.298C398.13 153.349 398.181 153.864 398.336 154.791C398.439 155.718 398.49 156.388 398.49 156.851C398.645 161.847 398.748 167.409 398.799 173.537C398.799 173.795 398.748 174.361 398.645 175.134C398.593 175.958 398.593 176.524 398.645 176.936C398.851 179.202 398.799 181.623 398.387 184.095C398.284 184.61 398.336 185.022 398.542 185.279C398.799 185.537 399.16 185.691 399.726 185.794C401.271 185.949 402.404 186 403.177 186C404.825 186 406.524 185.949 408.224 185.949C409.923 185.897 412.086 185.846 414.713 185.794C417.288 185.743 418.987 185.743 419.708 185.743V185.794C425.116 185.794 428.103 185.794 428.618 185.794Z" fill="#35292B"/>
<path d="M483.789 185.794C484.665 185.743 485.334 185.537 485.694 185.176C486.106 184.764 486.312 184.146 486.312 183.271C486.312 182.241 486.261 181.005 486.107 179.511C486.004 178.636 485.798 178.069 485.54 177.863C485.231 177.657 484.613 177.606 483.686 177.76C481.111 178.121 479.205 178.275 477.918 178.327C475.549 178.378 472.047 178.378 467.464 178.327C466.588 178.327 465.661 178.224 464.682 177.915C462.88 177.503 461.798 176.37 461.438 174.464C461.232 173.177 461.129 172.095 461.129 171.168C461.18 168.181 461.284 163.289 461.387 156.491C461.387 155.615 461.438 154.688 461.541 153.71C461.644 152.886 461.541 152.319 461.232 151.907C460.974 151.547 460.408 151.392 459.584 151.341C458.193 151.289 456.649 151.238 454.949 151.289C454.486 151.341 454.125 151.392 453.867 151.547C453.661 151.65 453.455 151.856 453.352 152.165C453.249 152.422 453.249 152.834 453.301 153.298C453.301 153.349 453.352 153.864 453.507 154.791C453.61 155.718 453.661 156.388 453.661 156.851C453.816 161.847 453.919 167.409 453.97 173.537C453.97 173.795 453.919 174.361 453.816 175.134C453.764 175.958 453.764 176.524 453.816 176.936C454.022 179.202 453.971 181.623 453.559 184.095C453.456 184.61 453.507 185.022 453.713 185.279C453.97 185.537 454.331 185.691 454.897 185.794C456.442 185.949 457.575 186 458.348 186C459.996 186 461.695 185.949 463.395 185.949C465.094 185.897 467.258 185.846 469.884 185.794C472.459 185.743 474.158 185.743 474.879 185.743V185.794C480.287 185.794 483.274 185.794 483.789 185.794Z" fill="#35292B"/>
<path d="M501.636 151.238C496.28 151.238 493.293 151.238 492.778 151.289C491.748 151.289 491.078 151.444 490.821 151.804C490.512 152.113 490.512 152.783 490.769 153.761C490.924 154.482 491.027 155.049 491.027 155.461C491.336 161.641 491.49 165.606 491.542 167.357C491.645 170.499 491.645 173.898 491.542 177.709C491.49 179.717 491.336 181.52 491.078 183.116C490.872 184.404 490.872 185.228 491.13 185.537C491.387 185.846 492.211 186 493.499 186C495.713 186 498.958 185.949 503.181 185.897C507.404 185.794 510.494 185.794 512.451 185.794C513.017 185.743 514.305 185.743 516.313 185.743C518.373 185.743 519.609 185.743 520.176 185.743C520.845 185.743 521.36 185.691 521.721 185.691C522.39 185.537 522.905 185.331 523.163 184.97C523.472 184.661 523.626 184.146 523.626 183.477C523.678 182.035 523.678 180.644 523.626 179.254C523.626 178.584 523.472 178.121 523.163 177.812C522.854 177.554 522.339 177.503 521.618 177.657C521.463 177.657 521.103 177.709 520.536 177.812C519.97 177.966 519.558 178.018 519.197 178.018C513.996 178.172 509.258 178.275 504.932 178.275C504.159 178.327 503.284 178.172 502.305 177.863C502.048 177.812 501.79 177.709 501.533 177.503C501.275 177.348 501.069 177.142 500.915 176.885C500.76 176.679 500.606 176.421 500.503 176.164C500.4 175.906 500.348 175.597 500.348 175.288C500.348 174.104 500.966 173.28 502.151 172.765C502.82 172.456 503.49 172.301 504.005 172.301C504.159 172.25 504.829 172.25 505.962 172.25C507.146 172.25 507.764 172.301 507.919 172.301C511.781 172.25 514.253 172.198 515.283 172.198C515.644 172.198 516.004 172.095 516.313 171.889C516.674 171.735 516.931 171.477 517.137 171.22C517.343 170.911 517.446 170.602 517.498 170.241C517.601 169.211 517.549 168.027 517.446 166.842C517.343 165.812 516.725 165.194 515.695 165.04C514.562 164.885 513.738 164.782 513.223 164.834C512.657 164.834 511.575 164.885 509.979 164.937C508.382 164.988 507.198 165.04 506.322 165.04C505.138 164.988 503.799 164.834 502.408 164.473C501.121 164.164 500.4 163.392 500.348 162.053C500.245 160.662 500.812 159.735 502.048 159.323C503.181 158.911 504.262 158.705 505.292 158.705C509.206 158.654 513.172 158.654 517.189 158.705C518.116 158.705 519.558 158.911 521.412 159.22C522.133 159.375 522.648 159.323 523.008 159.117C523.317 158.911 523.523 158.448 523.575 157.727C523.678 156.233 523.678 154.74 523.523 153.246C523.472 152.525 523.266 152.01 522.957 151.753C522.596 151.444 522.081 151.238 521.36 151.135C520.948 151.083 520.124 151.032 518.888 151.083C518.631 151.083 518.27 151.135 517.755 151.186C517.292 151.238 516.88 151.238 516.622 151.238C515.438 151.238 508.176 151.238 501.636 151.238Z" fill="#35292B"/>
<path d="M537.171 176.318C537.171 175.752 537.222 175.288 537.222 174.928C537.222 174.516 537.274 174.104 537.325 173.743C537.583 172.404 538.201 171.529 539.231 171.117C540.312 170.705 541.394 170.911 542.527 171.683C542.939 171.992 543.299 172.301 543.608 172.61C544.381 173.486 545.514 174.67 546.904 176.267C548.295 177.812 549.273 178.893 549.84 179.511C551.385 181.159 552.26 182.807 552.518 184.455C552.672 185.434 553.342 185.949 554.526 185.949C556.38 186 558.131 186 559.831 185.949C560.5 185.949 560.964 185.794 561.221 185.485C561.479 185.125 561.582 184.61 561.53 183.889C561.17 180.335 560.912 177.657 560.861 175.855C560.809 175.134 560.861 174.104 560.964 172.713C561.015 171.374 561.067 170.499 561.067 170.035C561.118 167.409 561.221 161.95 561.324 153.607C561.324 152.989 561.221 152.525 560.964 152.268C560.758 151.959 560.294 151.856 559.728 151.856C557.925 151.753 556.226 151.753 554.578 151.856C554.114 151.856 553.805 151.907 553.548 152.062C553.342 152.216 553.187 152.422 553.084 152.68C553.033 152.989 553.033 153.349 553.084 153.761C553.084 154.019 553.187 154.431 553.239 154.946C553.342 155.461 553.393 155.924 553.445 156.285C553.496 156.697 553.548 157.057 553.548 157.418C553.548 160.559 553.496 162.877 553.29 164.422C553.084 166.173 551.951 166.997 549.943 166.894C549.016 166.842 548.192 166.43 547.419 165.555C545.153 163.083 542.784 160.405 540.312 157.521C539.282 156.336 538.664 155.049 538.51 153.607C538.407 152.989 538.149 152.525 537.84 152.268C537.48 151.959 536.965 151.804 536.244 151.804C534.75 151.753 533.102 151.753 531.248 151.804C530.424 151.804 529.858 151.959 529.6 152.268C529.343 152.577 529.24 153.143 529.343 154.019C529.549 155.821 529.703 157.572 529.755 159.272C529.961 163.031 530.012 165.709 530.012 167.203C530.012 168.336 530.012 170.087 530.064 172.404C530.115 174.773 530.115 176.885 530.064 178.687C530.012 180.49 529.858 182.241 529.6 183.889C529.394 185.228 529.961 185.897 531.351 185.949C532.948 186.052 534.493 186.052 535.986 185.949C536.553 185.949 536.965 185.897 537.222 185.743C537.48 185.588 537.686 185.382 537.737 185.073C537.789 184.764 537.789 184.301 537.737 183.786C537.686 183.374 537.686 182.962 537.634 182.55C537.583 182.086 537.531 181.623 537.48 181.211C537.48 180.799 537.428 180.387 537.377 179.975C537.377 179.563 537.325 179.151 537.274 178.687C537.222 178.275 537.171 177.812 537.171 177.451C537.171 177.194 537.171 176.833 537.171 176.318Z" fill="#35292B"/>
<path d="M591.237 186.567C592.319 186.206 593.04 186 593.555 185.897C595.563 185.434 597.108 185.125 598.241 184.97C599.168 184.919 599.786 184.764 600.095 184.507C600.353 184.249 600.559 183.683 600.61 182.859C600.765 180.747 600.868 177.863 600.971 174.104C600.971 173.022 600.404 172.404 599.271 172.301C598.911 172.25 598.035 172.25 596.748 172.25C595.203 172.25 594.276 172.353 593.967 172.61C593.709 172.868 593.555 173.795 593.555 175.34C593.606 177.4 592.782 178.945 591.083 179.923C590.259 180.438 589.383 180.747 588.559 180.902C584.336 181.777 580.783 180.438 578.053 176.885C576.354 174.773 575.427 172.25 575.272 169.263C575.066 166.276 575.736 163.598 577.178 161.177C579.186 157.83 581.967 155.924 585.469 155.409C587.581 155.1 589.744 155.461 591.907 156.439C594.482 157.572 596.542 159.014 598.138 160.714C598.808 161.486 599.426 161.692 599.941 161.383C600.507 161.023 600.816 160.508 600.919 159.787C601.074 158.19 601.177 156.439 601.177 154.534C601.228 154.122 601.228 153.813 601.125 153.555C601.074 153.298 600.971 153.092 600.816 152.937C600.662 152.783 600.507 152.628 600.25 152.525C600.044 152.422 599.735 152.319 599.374 152.216C597.211 151.65 595.409 151.135 593.915 150.62C590.413 149.435 587.117 149.126 584.13 149.59C580.783 150.156 577.59 151.701 574.551 154.276C572.388 156.13 570.792 157.933 569.813 159.735C567.444 163.907 566.723 168.542 567.65 173.589C568.423 177.709 570.483 181.005 573.933 183.528C577.178 185.949 581.195 187.236 586.036 187.391C586.19 187.391 586.499 187.391 586.911 187.391C587.323 187.391 587.684 187.339 587.993 187.339C588.302 187.339 588.611 187.288 588.92 187.236C589.435 187.082 590.207 186.876 591.237 186.567Z" fill="#35292B"/>
<path d="M619.241 151.392C612.649 151.392 608.993 151.392 608.22 151.392C607.551 151.392 606.984 151.495 606.521 151.701C606.109 151.907 605.8 152.216 605.594 152.628C605.336 153.04 605.233 153.658 605.182 154.379C605.079 155.358 605.079 156.388 605.182 157.418C605.182 158.036 605.336 158.499 605.645 158.757C605.954 158.963 606.418 159.066 607.036 159.014C607.242 159.014 607.705 158.911 608.426 158.808C609.096 158.757 609.662 158.705 610.074 158.705C612.34 158.602 613.885 158.654 614.658 158.757C615.379 158.911 615.997 159.169 616.512 159.478C617.027 159.838 617.49 160.302 617.799 160.817C618.16 161.383 618.314 162.001 618.417 162.774C618.726 166.173 618.881 168.851 618.829 170.808C618.829 172.095 618.726 176.524 618.469 184.043C618.366 185.125 618.726 185.691 619.447 185.794C621.919 185.949 623.722 186.052 624.958 185.949C625.73 185.949 626.194 185.743 626.451 185.382C626.657 185.073 626.709 184.455 626.606 183.631C626.297 181.314 626.142 179.666 626.091 178.79C626.039 175.082 626.039 170.911 626.091 166.173C626.091 165.04 626.245 163.855 626.554 162.671C627.121 160.405 628.563 159.22 630.932 159.066C631.292 159.066 631.601 159.066 631.859 159.066C633.249 159.169 635.103 159.22 637.421 159.323C638.245 159.375 638.811 159.22 639.12 158.963C639.429 158.705 639.635 158.19 639.79 157.418C639.841 157.006 639.841 156.388 639.893 155.512C639.893 154.328 639.79 153.452 639.584 152.886C639.326 152.319 638.966 151.907 638.451 151.701C637.884 151.495 637.009 151.392 635.824 151.392C635.103 151.392 630.623 151.392 622.434 151.392C620.426 151.392 619.344 151.392 619.241 151.392Z" fill="#35292B"/>
<path d="M662.03 172.61C662.957 172.662 663.678 172.713 664.141 172.765C665.738 173.022 666.922 173.589 667.643 174.361C668.364 175.134 668.776 176.37 668.828 177.966C668.879 178.842 668.828 180.799 668.622 183.889C668.57 184.558 668.622 185.022 668.776 185.331C668.931 185.588 669.24 185.743 669.703 185.794C671.763 186 673.617 186.052 675.265 185.949C675.677 185.949 675.986 185.897 676.244 185.743C676.45 185.537 676.604 185.331 676.656 185.073C676.759 184.764 676.759 184.404 676.707 183.992C676.347 179.202 676.141 176.267 676.141 175.134C676.089 172.559 676.141 166.688 676.347 157.521C676.347 156.542 676.45 155.203 676.604 153.555C676.759 152.268 676.244 151.547 675.059 151.444C673.205 151.289 671.66 151.186 670.424 151.186C669.497 151.186 668.879 151.392 668.622 151.753C668.313 152.113 668.261 152.783 668.364 153.761C668.57 156.542 668.622 158.86 668.467 160.765C668.416 162.001 668.055 162.928 667.437 163.598C666.819 164.319 665.892 164.731 664.605 164.937C661.669 165.452 659.249 165.555 657.292 165.246C656.21 165.04 655.283 164.731 654.665 164.319C653.996 163.958 653.481 163.392 653.12 162.722C652.76 162.001 652.605 161.126 652.502 160.044C652.502 159.684 652.451 159.375 652.451 159.117C652.605 156.388 652.76 154.482 652.811 153.401C652.914 152.216 652.502 151.547 651.575 151.495C649.412 151.238 647.661 151.135 646.322 151.186C645.498 151.238 644.932 151.444 644.623 151.804C644.314 152.165 644.211 152.783 644.314 153.607C644.571 156.285 644.726 157.727 644.726 157.984C644.932 164.525 645.035 169.263 645.035 172.301C645.035 172.765 645.035 174.001 645.086 175.906C645.086 177.863 645.086 179.46 645.035 180.644C644.983 181.88 644.88 183.116 644.623 184.301C644.571 184.661 644.623 185.022 644.777 185.331C644.983 185.588 645.241 185.743 645.601 185.794C648.073 185.949 650.082 186.052 651.575 186C652.09 186 652.451 185.794 652.657 185.485C652.914 185.125 652.966 184.713 652.914 184.146C652.863 183.889 652.811 183.58 652.76 183.219C652.657 182.859 652.605 182.601 652.605 182.447C652.193 179.717 652.142 177.657 652.451 176.267C652.966 174.31 654.099 173.177 655.953 172.919C656.159 172.868 657.601 172.765 660.279 172.456C660.279 172.507 661.927 172.61 662.03 172.61Z" fill="#35292B"/>
<path d="M731.578 185.897C732.865 185.691 733.277 184.97 732.711 183.683C729.981 177.194 728.23 172.971 727.406 171.014C726.943 169.881 725.501 166.173 723.08 159.89C723.029 159.735 722.874 159.323 722.617 158.654C722.359 157.984 722.153 157.521 722.102 157.263C721.999 157.006 721.896 156.645 721.69 156.079C721.535 155.512 721.432 155.049 721.329 154.637C721.226 154.173 721.175 153.761 721.175 153.298C721.123 152.834 720.969 152.422 720.711 152.062C720.454 151.753 720.093 151.547 719.63 151.547C717.003 151.341 714.84 151.238 713.192 151.289C712.471 151.341 711.956 151.547 711.596 151.907C711.287 152.268 711.029 152.834 710.875 153.555C710.669 154.946 710.411 156.027 710.102 156.8C707.63 163.186 705.673 168.181 704.18 171.838C703.51 173.434 701.862 177.297 699.184 183.374C698.824 184.146 698.772 184.713 698.927 185.073C699.081 185.382 699.596 185.64 700.472 185.743C700.781 185.743 702.171 185.846 704.695 185.949C706.343 186 707.424 185.228 707.939 183.631C708.609 181.777 709.896 180.799 711.905 180.696C713.398 180.644 716.076 180.696 719.939 180.85C721.896 180.953 723.286 181.932 724.059 183.889C724.419 184.97 725.192 185.537 726.325 185.691C726.479 185.691 727.561 185.794 729.621 186C730.187 186 730.857 185.949 731.578 185.897ZM716.9 167.254C717.209 167.357 717.518 167.512 717.724 167.718C717.982 167.924 718.188 168.13 718.342 168.387C718.497 168.645 718.651 168.954 718.754 169.263C718.806 169.623 718.857 169.984 718.857 170.344C718.857 171.22 718.548 171.992 718.033 172.559C717.518 173.125 716.797 173.434 715.973 173.434C715.098 173.434 714.377 173.177 713.862 172.559C713.295 171.992 713.038 171.22 713.038 170.241C713.038 169.623 713.141 169.108 713.398 168.645C713.656 168.13 714.016 167.769 714.428 167.512C714.892 167.254 715.407 167.1 715.973 167.1C716.282 167.1 716.591 167.151 716.9 167.254Z" fill="#35292B"/>
<path d="M767.793 185.794C768.669 185.743 769.338 185.537 769.699 185.176C770.111 184.764 770.317 184.146 770.317 183.271C770.317 182.241 770.265 181.005 770.111 179.511C770.008 178.636 769.802 178.069 769.544 177.863C769.235 177.657 768.617 177.606 767.69 177.76C765.115 178.121 763.21 178.275 761.922 178.327C759.553 178.378 756.051 178.378 751.468 178.327C750.592 178.327 749.665 178.224 748.687 177.915C746.884 177.503 745.803 176.37 745.442 174.464C745.236 173.177 745.133 172.095 745.133 171.168C745.185 168.181 745.288 163.289 745.391 156.491C745.391 155.615 745.442 154.688 745.545 153.71C745.648 152.886 745.545 152.319 745.236 151.907C744.979 151.547 744.412 151.392 743.588 151.341C742.198 151.289 740.653 151.238 738.953 151.289C738.49 151.341 738.129 151.392 737.872 151.547C737.666 151.65 737.46 151.856 737.357 152.165C737.254 152.422 737.254 152.834 737.305 153.298C737.305 153.349 737.357 153.864 737.511 154.791C737.614 155.718 737.666 156.388 737.666 156.851C737.82 161.847 737.923 167.409 737.975 173.537C737.975 173.795 737.923 174.361 737.82 175.134C737.769 175.958 737.769 176.524 737.82 176.936C738.026 179.202 737.975 181.623 737.563 184.095C737.46 184.61 737.511 185.022 737.717 185.279C737.975 185.537 738.335 185.691 738.902 185.794C740.447 185.949 741.58 186 742.352 186C744 186 745.7 185.949 747.399 185.949C749.099 185.897 751.262 185.846 753.888 185.794C756.463 185.743 758.163 185.743 758.884 185.743V185.794C764.291 185.794 767.278 185.794 767.793 185.794Z" fill="#35292B"/>
<path d="M781.366 150.98C778.43 150.98 776.731 151.032 776.37 151.032C775.855 151.032 775.495 151.135 775.186 151.289C774.928 151.444 774.774 151.701 774.671 152.01C774.619 152.319 774.619 152.731 774.722 153.246C775.083 154.894 775.237 156.027 775.237 156.594C775.34 160.714 775.443 166.739 775.546 174.773C775.598 178.893 775.392 181.983 774.877 183.992C774.619 185.176 775.134 185.846 776.422 185.949C776.731 186 777.246 186 777.864 186C778.379 186 780.233 186 783.426 185.949C786.619 185.846 789.039 185.794 790.739 185.794C791.614 185.743 792.799 185.743 794.344 185.743C795.889 185.743 797.125 185.743 798 185.743C799.494 185.691 800.884 185.537 802.172 185.228C803.408 184.867 804.644 184.404 805.725 183.734C807.476 182.653 808.661 181.262 809.279 179.614C809.897 177.966 809.897 176.164 809.227 174.258C808.815 173.074 808.197 171.941 807.476 170.859C806.086 168.748 805.983 166.585 807.27 164.37C807.631 163.701 807.991 162.877 808.352 161.95C809.176 159.787 809.073 157.727 807.991 155.821C806.961 153.864 805.313 152.628 803.047 152.062C801.039 151.598 798.464 151.238 795.477 151.032C794.601 150.98 793.726 150.929 792.799 150.929C791.82 150.929 790.739 150.929 789.503 150.98C788.318 150.98 787.391 150.98 786.825 150.98C783.426 150.98 781.623 150.98 781.366 150.98ZM784.147 161.795C784.147 160.662 784.816 159.838 786.104 159.22C786.722 158.911 787.546 158.757 788.524 158.757C790.275 158.654 791.923 158.654 793.52 158.757C794.035 158.757 794.807 158.911 795.837 159.22C796.867 159.581 797.434 160.353 797.537 161.538C797.588 162.774 797.125 163.598 796.095 164.01C795.322 164.267 794.241 164.525 792.747 164.731C791.923 164.885 791.151 164.937 790.378 164.937C790.121 164.885 789.657 164.885 789.091 164.834C788.524 164.782 788.009 164.731 787.597 164.679C787.134 164.628 786.722 164.525 786.361 164.422C784.868 164.061 784.147 163.186 784.147 161.795ZM787.237 177.966C786.413 177.812 785.743 177.451 785.228 176.936C784.662 176.421 784.404 175.803 784.353 175.134C784.353 174.516 784.61 173.898 785.177 173.383C785.692 172.816 786.361 172.507 787.237 172.301C789.554 171.838 792.026 171.838 794.601 172.301C796.558 172.713 797.537 173.64 797.537 175.134C797.537 175.906 797.228 176.524 796.661 177.039C796.043 177.554 795.322 177.863 794.395 177.966C793.88 178.069 792.696 178.069 790.945 178.069C789.451 178.069 788.576 178.069 788.421 178.069C787.958 178.069 787.546 178.018 787.237 177.966Z" fill="#35292B"/>
<path d="M816.074 174.104C816.331 177.297 817.413 179.975 819.318 182.189C821.275 184.404 823.747 185.949 826.786 186.773C830.648 187.803 834.408 187.648 837.961 186.258C843.06 184.249 846.098 180.747 847.077 175.752C847.643 173.022 847.849 170.19 847.695 167.203C847.54 165.194 847.489 162.928 847.489 160.405C847.489 157.881 847.643 155.615 848.004 153.555C848.158 152.628 848.107 151.959 847.798 151.598C847.54 151.289 846.922 151.083 845.944 151.083C844.553 151.032 843.111 151.032 841.566 151.083C840.742 151.083 840.227 151.238 839.97 151.547C839.661 151.856 839.609 152.474 839.712 153.298C839.97 156.027 840.124 157.521 840.124 157.933C840.176 162.516 840.176 167.048 840.124 171.58C840.124 175.391 838.322 178.327 834.82 180.387C832.245 181.88 829.67 181.726 827.095 179.975C825.086 178.636 823.902 176.576 823.541 173.743C823.078 170.138 823.026 165.297 823.387 159.272C823.387 158.448 823.49 157.263 823.593 155.667C823.644 154.07 823.747 153.092 823.747 152.68C823.799 151.753 823.438 151.238 822.717 151.186C820.297 150.98 818.237 150.929 816.692 150.929C815.662 150.98 815.198 151.598 815.301 152.834C815.353 153.864 815.404 155.049 815.404 156.388C815.404 157.727 815.456 159.066 815.507 160.405C815.507 161.744 815.559 162.928 815.61 163.958C815.919 170.344 816.022 173.692 816.074 174.104Z" fill="#35292B"/>
<path d="M856.241 151.238C855.366 151.289 854.799 151.444 854.542 151.753C854.284 152.062 854.233 152.68 854.387 153.555C854.593 154.74 854.748 155.461 854.748 155.667C854.902 159.581 854.954 162.465 855.005 164.37C855.057 168.336 855.057 172.25 855.005 176.215C855.005 178.327 854.902 180.799 854.748 183.631C854.696 184.455 854.799 185.022 855.057 185.331C855.366 185.691 855.881 185.897 856.705 185.949C858.147 186.052 859.692 186.052 861.288 185.949C861.958 185.949 862.421 185.743 862.627 185.434C862.885 185.125 862.936 184.661 862.833 183.94C862.833 183.734 862.833 183.477 862.73 183.116C862.679 182.756 862.627 182.498 862.576 182.344C862.009 178.636 862.009 175.391 862.473 172.713C862.782 171.374 863.451 170.499 864.533 170.138C865.563 169.778 866.644 170.087 867.674 171.014C868.138 171.374 868.653 171.889 869.219 172.61C869.477 172.971 869.837 173.486 870.404 174.207C870.919 174.876 871.331 175.443 871.588 175.803C872.103 176.473 872.567 176.782 873.03 176.833C873.442 176.833 873.957 176.524 874.524 175.958C874.73 175.7 874.936 175.391 875.193 175.082C875.451 174.722 875.708 174.413 876.017 174.052C876.275 173.692 876.481 173.383 876.687 173.125C877.768 171.941 878.541 171.117 879.107 170.705C879.828 170.19 880.601 170.035 881.322 170.241C882.094 170.396 882.661 170.859 883.073 171.632C883.382 172.198 883.588 172.765 883.639 173.383C884.103 177.4 884.103 180.902 883.588 183.837C883.433 184.558 883.536 185.073 883.794 185.382C884.103 185.743 884.618 185.949 885.339 185.949C886.832 186.052 888.377 186.052 889.922 185.949C890.746 185.949 891.261 185.743 891.519 185.434C891.725 185.073 891.828 184.558 891.673 183.734C891.313 181.262 891.107 179.408 891.107 178.224C891.107 173.28 891.107 166.43 891.107 157.521C891.107 156.542 891.21 155.306 891.416 153.967C891.57 153.298 891.57 152.783 891.467 152.371C891.313 151.959 891.107 151.701 890.746 151.547C890.386 151.392 889.871 151.289 889.201 151.289C887.553 151.238 885.802 151.238 883.897 151.238C883.433 151.238 883.073 151.289 882.815 151.341C882.506 151.444 882.249 151.598 881.991 151.753C881.785 151.959 881.579 152.165 881.425 152.422C881.27 152.68 881.116 152.989 880.961 153.401C879.725 156.491 878.026 159.117 875.811 161.383C875.09 162.104 874.215 162.465 873.185 162.413C872.155 162.413 871.279 162.053 870.558 161.332C870.043 160.817 869.734 160.456 869.528 160.25C867.211 156.645 865.82 154.379 865.305 153.401C864.584 152.01 863.503 151.341 862.112 151.289C861.958 151.289 856.396 151.238 856.241 151.238Z" fill="#35292B"/>
<path d="M23.6671 15.4862C20.2861 15.6472 17.8711 15.8082 16.5831 15.8082C14.0071 15.9692 12.3971 16.4522 11.5921 17.5792C10.6261 18.8672 10.3041 20.6382 10.6261 23.0532C11.4311 29.0102 11.7531 33.5182 11.9141 36.7382C12.2361 48.3302 12.3971 60.8882 12.7191 74.2512C12.7191 76.0222 12.5581 78.4372 12.3971 81.6572C12.2361 84.8772 12.2361 86.8092 12.2361 87.6142C12.0751 92.6052 11.9141 95.5032 12.0751 96.6302C12.8801 102.748 12.7191 109.349 11.7531 116.433C11.2701 119.17 11.5921 121.102 12.2361 122.068C13.0411 123.034 14.8121 123.678 17.3881 123.839C20.2861 124.161 25.4381 124 32.5221 123.517C34.4541 123.356 35.9031 122.873 36.5471 121.907C37.3521 120.941 37.5131 119.492 37.3521 117.399C37.1911 116.594 37.1911 115.467 37.0301 114.018C36.8691 112.569 36.7081 111.281 36.5471 109.993C36.3861 108.866 36.2251 107.739 36.2251 106.773C36.2251 99.6892 36.5471 94.5372 37.0301 91.4782C38.1571 86.0042 41.6991 82.6232 47.4951 81.4962C50.2321 80.8522 53.2911 80.5302 56.5111 80.5302C59.4091 80.5302 63.1121 80.5302 67.9421 80.5302C72.6111 80.6912 76.4751 80.5302 79.2121 80.5302C89.6771 80.0472 98.0491 77.3102 104.328 72.1582C107.548 69.5822 110.124 66.5232 111.895 62.8202C113.827 59.2782 114.954 55.4142 115.276 51.7112C115.598 48.0082 115.598 44.3052 115.115 40.7632C114.471 37.2212 113.666 34.0012 112.217 31.1032C109.802 25.7902 105.616 21.7652 99.6591 19.1892C93.8631 16.6132 85.8131 15.1642 75.3481 15.0032C72.6111 15.0032 57.9601 15.0032 31.3951 15.0032C29.6241 15.0032 27.0481 15.1642 23.6671 15.4862ZM39.4451 50.7452C38.4791 48.1692 39.1231 45.7542 41.0551 43.5002C43.3091 41.2462 45.4021 39.9582 47.6561 39.4752C57.1551 37.7042 66.4931 37.7042 75.6701 39.4752C80.6611 40.6022 83.0761 43.3392 83.0761 48.0082C83.0761 50.1012 82.2711 51.8722 80.8221 53.6432C79.2121 55.2532 77.2801 56.3802 75.0261 56.7022C69.8741 57.8292 66.8151 58.4732 65.6881 58.6342C65.3661 58.6342 63.4341 58.6342 60.2141 58.6342C59.2481 58.4732 58.2821 58.3122 57.1551 58.1512C56.0281 57.9902 55.0621 57.9902 54.0961 57.8292C53.1301 57.6682 52.1641 57.6682 51.1981 57.5072C50.0711 57.3462 49.1051 57.0242 47.9781 56.8632C47.0121 56.5412 46.0461 56.3802 45.0801 56.0582C42.1821 55.2532 40.2501 53.4822 39.4451 50.7452Z" fill="#35292B"/>
<path d="M121.065 117.238C120.904 121.102 122.192 123.195 124.929 123.356C131.53 123.517 137.165 123.517 141.995 123.195C145.537 122.873 147.147 120.619 146.825 116.433C146.342 108.866 146.02 102.426 146.02 97.1132C146.02 94.8592 146.664 92.2832 147.791 89.5462C149.562 85.0382 152.782 82.7842 157.773 82.7842C162.603 82.7842 166.628 84.8772 169.687 89.2242C176.288 98.2402 181.279 107.578 184.499 117.238C185.304 119.653 186.431 121.263 187.558 122.068C188.685 122.873 190.456 123.356 193.032 123.517C193.676 123.517 195.125 123.678 197.218 123.839C199.311 124 200.921 124 202.209 124C204.785 124 207.039 123.839 209.132 123.517C212.191 122.712 213.157 120.78 211.869 117.882C211.708 117.56 211.547 117.238 211.386 116.916C211.225 116.594 210.903 116.272 210.742 115.95C210.581 115.628 210.42 115.306 210.098 115.145C204.624 104.841 201.726 99.2062 201.082 98.2402C196.735 89.2242 198.828 81.9792 207.361 76.6662C208.971 75.5392 210.098 74.8952 210.42 74.5732C217.826 69.7432 222.334 62.8202 223.944 54.1262C224.91 48.4912 224.588 42.3732 222.656 35.6112C220.08 26.2732 214.123 20.4772 204.946 18.2232C198.023 16.7742 192.066 15.9692 187.075 15.8082C181.44 15.6472 162.603 15.6472 130.564 15.6472C128.954 15.6472 127.666 15.8082 126.539 15.9692C123.802 16.2912 122.031 16.9352 121.387 17.9012C120.582 19.0282 120.26 20.9602 120.582 23.6972C121.387 29.6542 121.709 34.4842 121.709 38.5092C121.87 40.7632 121.87 51.7112 121.87 71.6752C121.87 90.0292 121.87 100.494 121.87 102.748C121.709 104.841 121.548 109.671 121.065 117.238ZM154.231 56.0582C150.85 54.6092 149.24 52.0332 149.24 48.3302C149.24 44.9492 151.011 42.3732 154.392 40.6022C156.485 39.6362 158.256 38.9922 160.027 38.9922C162.764 38.9922 170.331 39.3142 182.406 39.6362C182.728 39.6362 183.211 39.7972 184.016 39.7972C186.592 40.4412 188.685 41.5682 190.134 43.0172C191.422 44.4662 192.227 46.3982 192.227 48.4912C192.227 50.5842 191.583 52.3552 190.295 53.8042C189.007 55.4142 187.075 56.3802 184.499 56.8632C182.728 57.1852 179.991 57.5072 176.61 57.6682C173.068 57.8292 170.814 57.8292 169.848 57.9902C164.374 57.9902 161.476 57.9902 161.154 57.8292C158.578 57.6682 156.324 57.0242 154.231 56.0582Z" fill="#35292B"/>
<path d="M263.553 15.3252C246.809 15.3252 237.471 15.3252 235.861 15.4862C232.641 15.4862 230.548 15.9692 229.743 17.0962C228.777 18.0622 228.777 20.1552 229.582 23.2142C230.065 25.4682 230.387 27.2392 230.387 28.5272C231.353 47.8472 231.836 60.2442 231.997 65.7182C232.319 75.5392 232.319 86.1652 231.997 98.0792C231.836 104.358 231.353 109.993 230.548 114.984C229.904 119.009 229.904 121.585 230.709 122.551C231.514 123.517 234.09 124 238.115 124C245.038 124 255.181 123.839 268.383 123.678C281.585 123.356 291.245 123.356 297.363 123.356C299.134 123.195 303.159 123.195 309.438 123.195C315.878 123.195 319.742 123.195 321.513 123.195C323.606 123.195 325.216 123.034 326.343 123.034C328.436 122.551 330.046 121.907 330.851 120.78C331.817 119.814 332.3 118.204 332.3 116.111C332.461 111.603 332.461 107.256 332.3 102.909C332.3 100.816 331.817 99.3672 330.851 98.4012C329.885 97.5962 328.275 97.4352 326.021 97.9182C325.538 97.9182 324.411 98.0792 322.64 98.4012C320.869 98.8842 319.581 99.0452 318.454 99.0452C302.193 99.5282 287.381 99.8502 273.857 99.8502C271.442 100.011 268.705 99.5282 265.646 98.5622C264.841 98.4012 264.036 98.0792 263.231 97.4352C262.426 96.9522 261.782 96.3082 261.299 95.5032C260.816 94.8592 260.333 94.0542 260.011 93.2492C259.689 92.4442 259.528 91.4782 259.528 90.5122C259.528 86.8092 261.46 84.2332 265.163 82.6232C267.256 81.6572 269.349 81.1742 270.959 81.1742C271.442 81.0132 273.535 81.0132 277.077 81.0132C280.78 81.0132 282.712 81.1742 283.195 81.1742C295.27 81.0132 302.998 80.8522 306.218 80.8522C307.345 80.8522 308.472 80.5302 309.438 79.8862C310.565 79.4032 311.37 78.5982 312.014 77.7932C312.658 76.8272 312.98 75.8612 313.141 74.7342C313.463 71.5142 313.302 67.8112 312.98 64.1082C312.658 60.8882 310.726 58.9562 307.506 58.4732C303.964 57.9902 301.388 57.6682 299.778 57.8292C298.007 57.8292 294.626 57.9902 289.635 58.1512C284.644 58.3122 280.941 58.4732 278.204 58.4732C274.501 58.3122 270.315 57.8292 265.968 56.7022C261.943 55.7362 259.689 53.3212 259.528 49.1352C259.206 44.7882 260.977 41.8902 264.841 40.6022C268.383 39.3142 271.764 38.6702 274.984 38.6702C287.22 38.5092 299.617 38.5092 312.175 38.6702C315.073 38.6702 319.581 39.3142 325.377 40.2802C327.631 40.7632 329.241 40.6022 330.368 39.9582C331.334 39.3142 331.978 37.8652 332.139 35.6112C332.461 30.9422 332.461 26.2732 331.978 21.6042C331.817 19.3502 331.173 17.7402 330.207 16.9352C329.08 15.9692 327.47 15.3252 325.216 15.0032C323.928 14.8422 321.352 14.6812 317.488 14.8422C316.683 14.8422 315.556 15.0032 313.946 15.1642C312.497 15.3252 311.209 15.3252 310.404 15.3252C306.701 15.3252 284 15.3252 263.553 15.3252Z" fill="#35292B"/>
<path d="M372.228 123.839C380.761 126.254 389.616 126.898 398.471 125.61C410.224 124.161 420.206 120.136 428.256 113.213C436.467 106.451 441.78 97.5962 444.195 86.3262C446.449 76.1832 446.771 66.0402 445 55.8972C443.068 43.6612 439.204 34.0012 433.73 26.7562C424.07 14.3592 411.19 8.40216 395.09 9.04616C384.142 9.36817 373.999 12.5882 364.5 18.3842C354.035 25.1462 346.468 33.8402 341.477 44.4662C338.74 50.5842 336.969 58.7952 336.164 68.9382C335.681 74.7342 336.003 80.2082 336.808 85.5212C337.13 87.1312 337.452 88.5802 337.774 89.8682C342.926 107.417 354.357 118.687 372.228 123.839ZM383.337 104.841C374.965 102.909 369.008 97.4352 365.305 88.7412C362.729 82.9452 361.924 76.1832 362.407 68.4552C363.373 56.3802 366.271 47.3642 370.94 41.0852C377.863 32.2302 386.396 28.6882 396.7 30.2982C404.106 31.5862 409.902 36.2552 414.088 44.3052C417.63 50.9062 419.079 58.3122 418.918 66.2012C418.918 67.4892 418.918 68.7772 418.918 70.3872C419.401 81.1742 415.376 90.3512 407.004 98.0792C399.598 104.68 391.709 106.934 383.337 104.841Z" fill="#35292B"/>
<path d="M454.064 117.238C453.903 121.102 455.191 123.195 457.928 123.356C464.529 123.517 470.164 123.517 474.994 123.195C478.536 122.873 480.146 120.619 479.824 116.433C479.341 108.866 479.019 102.426 479.019 97.1132C479.019 94.8592 479.663 92.2832 480.79 89.5462C482.561 85.0382 485.781 82.7842 490.772 82.7842C495.602 82.7842 499.627 84.8772 502.686 89.2242C509.287 98.2402 514.278 107.578 517.498 117.238C518.303 119.653 519.43 121.263 520.557 122.068C521.684 122.873 523.455 123.356 526.031 123.517C526.675 123.517 528.124 123.678 530.217 123.839C532.31 124 533.92 124 535.208 124C537.784 124 540.038 123.839 542.131 123.517C545.19 122.712 546.156 120.78 544.868 117.882C544.707 117.56 544.546 117.238 544.385 116.916C544.224 116.594 543.902 116.272 543.741 115.95C543.58 115.628 543.419 115.306 543.097 115.145C537.623 104.841 534.725 99.2062 534.081 98.2402C529.734 89.2242 531.827 81.9792 540.36 76.6662C541.97 75.5392 543.097 74.8952 543.419 74.5732C550.825 69.7432 555.333 62.8202 556.943 54.1262C557.909 48.4912 557.587 42.3732 555.655 35.6112C553.079 26.2732 547.122 20.4772 537.945 18.2232C531.022 16.7742 525.065 15.9692 520.074 15.8082C514.439 15.6472 495.602 15.6472 463.563 15.6472C461.953 15.6472 460.665 15.8082 459.538 15.9692C456.801 16.2912 455.03 16.9352 454.386 17.9012C453.581 19.0282 453.259 20.9602 453.581 23.6972C454.386 29.6542 454.708 34.4842 454.708 38.5092C454.869 40.7632 454.869 51.7112 454.869 71.6752C454.869 90.0292 454.869 100.494 454.869 102.748C454.708 104.841 454.547 109.671 454.064 117.238ZM487.23 56.0582C483.849 54.6092 482.239 52.0332 482.239 48.3302C482.239 44.9492 484.01 42.3732 487.391 40.6022C489.484 39.6362 491.255 38.9922 493.026 38.9922C495.763 38.9922 503.33 39.3142 515.405 39.6362C515.727 39.6362 516.21 39.7972 517.015 39.7972C519.591 40.4412 521.684 41.5682 523.133 43.0172C524.421 44.4662 525.226 46.3982 525.226 48.4912C525.226 50.5842 524.582 52.3552 523.294 53.8042C522.006 55.4142 520.074 56.3802 517.498 56.8632C515.727 57.1852 512.99 57.5072 509.609 57.6682C506.067 57.8292 503.813 57.8292 502.847 57.9902C497.373 57.9902 494.475 57.9902 494.153 57.8292C491.577 57.6682 489.323 57.0242 487.23 56.0582Z" fill="#35292B"/>
<path d="M622.957 124C626.016 124 629.075 123.678 631.973 123.034C634.71 122.551 637.608 121.585 640.345 120.458C643.082 119.17 645.497 117.721 647.751 115.95C662.885 104.68 670.291 88.4192 670.291 67.4892C670.291 57.9902 668.037 48.8132 663.69 39.7972C658.699 30.4592 652.259 23.5362 643.887 19.3502C638.091 16.4522 630.524 14.8422 621.347 14.6812C617.322 14.6812 600.417 14.5202 570.471 14.5202C569.344 14.5202 568.378 14.6812 567.895 14.6812C564.353 15.1642 562.904 17.0962 563.387 20.6382C563.548 20.7992 563.709 21.4432 564.031 22.7312C564.192 23.8582 564.353 24.8242 564.353 25.6292C564.514 28.2052 564.514 33.6792 564.514 42.0512C564.514 74.2512 564.514 93.4102 564.353 99.5282C564.353 104.358 563.87 109.832 562.743 115.95C562.26 119.17 562.421 121.424 563.226 122.39C564.031 123.517 566.124 124 569.183 124C570.793 124 579.809 124 596.392 124C612.975 124 621.669 124 622.957 124ZM589.469 89.5462C588.503 85.5212 587.859 81.4962 587.859 77.6322C587.859 71.8362 588.02 65.0742 588.503 57.3462C588.825 54.1262 589.308 50.9062 590.435 47.6862C591.723 43.9832 594.138 41.4072 597.68 40.2802C608.789 36.4162 619.415 37.2212 629.88 42.3732C635.676 45.2712 640.023 50.5842 642.76 58.3122C645.819 67.3282 645.98 75.5392 643.404 83.1062C640.506 91.8002 634.388 97.1132 625.05 98.8842C624.406 99.0452 620.059 99.5282 611.687 100.333C604.12 99.5282 600.095 99.0452 599.451 98.8842C593.977 97.7572 590.757 94.6982 589.469 89.5462Z" fill="#35292B"/>
<path d="M710.907 15.3252C694.163 15.3252 684.825 15.3252 683.215 15.4862C679.995 15.4862 677.902 15.9692 677.097 17.0962C676.131 18.0622 676.131 20.1552 676.936 23.2142C677.419 25.4682 677.741 27.2392 677.741 28.5272C678.707 47.8472 679.19 60.2442 679.351 65.7182C679.673 75.5392 679.673 86.1652 679.351 98.0792C679.19 104.358 678.707 109.993 677.902 114.984C677.258 119.009 677.258 121.585 678.063 122.551C678.868 123.517 681.444 124 685.469 124C692.392 124 702.535 123.839 715.737 123.678C728.939 123.356 738.599 123.356 744.717 123.356C746.488 123.195 750.513 123.195 756.792 123.195C763.232 123.195 767.096 123.195 768.867 123.195C770.96 123.195 772.57 123.034 773.697 123.034C775.79 122.551 777.4 121.907 778.205 120.78C779.171 119.814 779.654 118.204 779.654 116.111C779.815 111.603 779.815 107.256 779.654 102.909C779.654 100.816 779.171 99.3672 778.205 98.4012C777.239 97.5962 775.629 97.4352 773.375 97.9182C772.892 97.9182 771.765 98.0792 769.994 98.4012C768.223 98.8842 766.935 99.0452 765.808 99.0452C749.547 99.5282 734.735 99.8502 721.211 99.8502C718.796 100.011 716.059 99.5282 713 98.5622C712.195 98.4012 711.39 98.0792 710.585 97.4352C709.78 96.9522 709.136 96.3082 708.653 95.5032C708.17 94.8592 707.687 94.0542 707.365 93.2492C707.043 92.4442 706.882 91.4782 706.882 90.5122C706.882 86.8092 708.814 84.2332 712.517 82.6232C714.61 81.6572 716.703 81.1742 718.313 81.1742C718.796 81.0132 720.889 81.0132 724.431 81.0132C728.134 81.0132 730.066 81.1742 730.549 81.1742C742.624 81.0132 750.352 80.8522 753.572 80.8522C754.699 80.8522 755.826 80.5302 756.792 79.8862C757.919 79.4032 758.724 78.5982 759.368 77.7932C760.012 76.8272 760.334 75.8612 760.495 74.7342C760.817 71.5142 760.656 67.8112 760.334 64.1082C760.012 60.8882 758.08 58.9562 754.86 58.4732C751.318 57.9902 748.742 57.6682 747.132 57.8292C745.361 57.8292 741.98 57.9902 736.989 58.1512C731.998 58.3122 728.295 58.4732 725.558 58.4732C721.855 58.3122 717.669 57.8292 713.322 56.7022C709.297 55.7362 707.043 53.3212 706.882 49.1352C706.56 44.7882 708.331 41.8902 712.195 40.6022C715.737 39.3142 719.118 38.6702 722.338 38.6702C734.574 38.5092 746.971 38.5092 759.529 38.6702C762.427 38.6702 766.935 39.3142 772.731 40.2802C774.985 40.7632 776.595 40.6022 777.722 39.9582C778.688 39.3142 779.332 37.8652 779.493 35.6112C779.815 30.9422 779.815 26.2732 779.332 21.6042C779.171 19.3502 778.527 17.7402 777.561 16.9352C776.434 15.9692 774.824 15.3252 772.57 15.0032C771.282 14.8422 768.706 14.6812 764.842 14.8422C764.037 14.8422 762.91 15.0032 761.3 15.1642C759.851 15.3252 758.563 15.3252 757.758 15.3252C754.055 15.3252 731.354 15.3252 710.907 15.3252Z" fill="#35292B"/>
<path d="M787.221 117.238C787.06 121.102 788.348 123.195 791.085 123.356C797.686 123.517 803.321 123.517 808.151 123.195C811.693 122.873 813.303 120.619 812.981 116.433C812.498 108.866 812.176 102.426 812.176 97.1132C812.176 94.8592 812.82 92.2832 813.947 89.5462C815.718 85.0382 818.938 82.7842 823.929 82.7842C828.759 82.7842 832.784 84.8772 835.843 89.2242C842.444 98.2402 847.435 107.578 850.655 117.238C851.46 119.653 852.587 121.263 853.714 122.068C854.841 122.873 856.612 123.356 859.188 123.517C859.832 123.517 861.281 123.678 863.374 123.839C865.467 124 867.077 124 868.365 124C870.941 124 873.195 123.839 875.288 123.517C878.347 122.712 879.313 120.78 878.025 117.882C877.864 117.56 877.703 117.238 877.542 116.916C877.381 116.594 877.059 116.272 876.898 115.95C876.737 115.628 876.576 115.306 876.254 115.145C870.78 104.841 867.882 99.2062 867.238 98.2402C862.891 89.2242 864.984 81.9792 873.517 76.6662C875.127 75.5392 876.254 74.8952 876.576 74.5732C883.982 69.7432 888.49 62.8202 890.1 54.1262C891.066 48.4912 890.744 42.3732 888.812 35.6112C886.236 26.2732 880.279 20.4772 871.102 18.2232C864.179 16.7742 858.222 15.9692 853.231 15.8082C847.596 15.6472 828.759 15.6472 796.72 15.6472C795.11 15.6472 793.822 15.8082 792.695 15.9692C789.958 16.2912 788.187 16.9352 787.543 17.9012C786.738 19.0282 786.416 20.9602 786.738 23.6972C787.543 29.6542 787.865 34.4842 787.865 38.5092C788.026 40.7632 788.026 51.7112 788.026 71.6752C788.026 90.0292 788.026 100.494 788.026 102.748C787.865 104.841 787.704 109.671 787.221 117.238ZM820.387 56.0582C817.006 54.6092 815.396 52.0332 815.396 48.3302C815.396 44.9492 817.167 42.3732 820.548 40.6022C822.641 39.6362 824.412 38.9922 826.183 38.9922C828.92 38.9922 836.487 39.3142 848.562 39.6362C848.884 39.6362 849.367 39.7972 850.172 39.7972C852.748 40.4412 854.841 41.5682 856.29 43.0172C857.578 44.4662 858.383 46.3982 858.383 48.4912C858.383 50.5842 857.739 52.3552 856.451 53.8042C855.163 55.4142 853.231 56.3802 850.655 56.8632C848.884 57.1852 846.147 57.5072 842.766 57.6682C839.224 57.8292 836.97 57.8292 836.004 57.9902C830.53 57.9902 827.632 57.9902 827.31 57.8292C824.734 57.6682 822.48 57.0242 820.387 56.0582Z" fill="#35292B"/>
</svg>
