<svg width="72" height="73" viewBox="0 0 72 73" fill="none" xmlns="http://www.w3.org/2000/svg">
<path d="M50.9916 21.0089C37.4439 7.4612 19.4179 0 0.234375 0V14.1148C15.6477 14.1148 30.1292 20.1076 41.0112 30.9896C51.8929 41.8716 57.886 56.3531 57.886 71.7664H72.0008C72.0005 52.5829 64.5393 34.5567 50.9916 21.0089Z" fill="white"/>
<path d="M0.0878906 23.8857V38.0005C18.7066 38.0005 33.8542 53.148 33.8542 71.7671H47.969C47.969 45.3652 26.4898 23.8857 0.0878906 23.8857Z" fill="white"/>
<path d="M10.1094 72.1593C15.6927 72.1593 20.2188 67.6331 20.2188 62.0499C20.2188 56.4666 15.6927 51.9404 10.1094 51.9404C4.52614 51.9404 0 56.4666 0 62.0499C0 67.6331 4.52614 72.1593 10.1094 72.1593Z" fill="white"/>
</svg>
