<svg width="72" height="72" viewBox="0 0 72 72" fill="none" xmlns="http://www.w3.org/2000/svg">
<g clip-path="url(#clip0_1108_839)">
<path d="M35.9983 0.118652C16.1773 0.118652 0.108398 16.1871 0.108398 36.0081C0.108398 55.8299 16.1773 71.8971 35.9983 71.8971C55.8214 71.8971 71.8886 55.8299 71.8886 36.0081C71.8886 16.1884 55.8214 0.120367 35.9978 0.120367L35.9983 0.118652V0.118652ZM52.4571 51.8815C51.8143 52.9358 50.4343 53.2701 49.38 52.6229C40.9534 47.4758 30.3454 46.3101 17.8525 49.1644C16.6487 49.4387 15.4487 48.6844 15.1744 47.4801C14.8988 46.2758 15.6501 45.0758 16.857 44.8015C30.5284 41.6768 42.2554 43.0229 51.7157 48.8044C52.77 49.4515 53.1043 50.8272 52.4571 51.8815V51.8815ZM56.85 42.1079C56.04 43.4258 54.3171 43.8415 53.0014 43.0315C43.3543 37.1005 28.6487 35.3832 17.238 38.8469C15.7581 39.2939 14.1951 38.4599 13.746 36.9827C13.3003 35.5028 14.1347 33.9428 15.612 33.4928C28.6461 29.5379 44.85 31.4537 55.9285 38.2615C57.2443 39.0715 57.66 40.7944 56.85 42.1084V42.1079ZM57.2271 31.9319C45.66 25.0615 26.5757 24.4298 15.5318 27.7817C13.7584 28.3195 11.883 27.3184 11.3455 25.5449C10.8081 23.7707 11.8084 21.8965 13.5831 21.3574C26.2607 17.5088 47.3357 18.2524 60.6531 26.1582C62.2517 27.1049 62.7746 29.1651 61.8274 30.7581C60.8846 32.3532 58.8188 32.8791 57.2288 31.9319H57.2271Z" fill="white"/>
</g>
<defs>
<clipPath id="clip0_1108_839">
<rect width="72" height="72" fill="white"/>
</clipPath>
</defs>
</svg>
