<svg width="20" height="20" viewBox="0 0 20 20" fill="none" xmlns="http://www.w3.org/2000/svg">
<path d="M9.99944 0.0332031C4.4936 0.0332031 0.0300293 4.49666 0.0300293 10.0025C0.0300293 15.5086 4.4936 19.9717 9.99944 19.9717C15.5059 19.9717 19.969 15.5086 19.969 10.0025C19.969 4.49701 15.5059 0.0336793 9.99932 0.0336793L9.99944 0.0332031ZM14.5713 14.4118C14.3928 14.7046 14.0094 14.7975 13.7166 14.6177C11.3759 13.188 8.4292 12.8642 4.95896 13.657C4.62455 13.7332 4.29122 13.5237 4.21503 13.1892C4.13848 12.8546 4.34717 12.5213 4.68241 12.4451C8.48003 11.5771 11.7375 11.9511 14.3654 13.557C14.6582 13.7368 14.7511 14.1189 14.5713 14.4118ZM15.7916 11.6969C15.5666 12.063 15.088 12.1784 14.7225 11.9534C12.0428 10.3059 7.95789 9.82892 4.78824 10.7911C4.37717 10.9152 3.94301 10.6836 3.81824 10.2732C3.69443 9.86213 3.92622 9.4288 4.33658 9.3038C7.95717 8.20523 12.4582 8.73737 15.5356 10.6284C15.9011 10.8534 16.0166 11.332 15.7916 11.697V11.6969ZM15.8963 8.87023C12.6832 6.96178 7.38205 6.7863 4.31432 7.71737C3.8217 7.86678 3.30074 7.58868 3.15146 7.09606C3.00217 6.6032 3.28003 6.08261 3.77301 5.93285C7.29455 4.8638 13.1487 5.07035 16.848 7.26642C17.2921 7.52939 17.4373 8.10166 17.1742 8.54416C16.9123 8.98725 16.3385 9.13332 15.8968 8.87023H15.8963Z" fill="#333333"/>
</svg>
