<svg width="20" height="20" viewBox="0 0 20 20" fill="none" xmlns="http://www.w3.org/2000/svg">
<path fill-rule="evenodd" clip-rule="evenodd" d="M19.726 5.46301C19.726 5.26575 19.7233 5.06575 19.7178 4.86849C19.7069 4.43562 19.6795 4 19.6027 3.5726C19.526 3.13973 19.3973 2.73425 19.1973 2.33973C19 1.95342 18.7425 1.59726 18.4356 1.29041C18.1288 0.983562 17.7726 0.726027 17.3863 0.528767C16.9918 0.328767 16.589 0.2 16.1562 0.123288C15.7288 0.0465753 15.2932 0.0219178 14.8603 0.00821918C14.6603 0.00547945 14.4603 0.00273973 14.263 0C14.0274 0 13.7918 0 13.5562 0H6.16986C5.93425 0 5.69863 0 5.46301 0C5.26575 0 5.06575 0.00273973 4.86849 0.00821918C4.43562 0.0191781 4 0.0465753 3.5726 0.123288C3.13973 0.20274 2.73425 0.328767 2.34247 0.531507C1.95342 0.728767 1.6 0.986301 1.29315 1.29315C0.986301 1.6 0.726027 1.95342 0.528767 2.34247C0.328767 2.73699 0.2 3.13973 0.123288 3.57534C0.0465753 4.00274 0.0219178 4.43836 0.00821918 4.87123C0.00547945 5.06849 0.00273973 5.26575 0 5.46575C0 5.70137 0 5.93699 0 6.1726V13.5589C0 13.7945 0 14.0301 0 14.2658C0 14.463 0.00273973 14.663 0.00821918 14.8603C0.0191781 15.2932 0.0465753 15.7288 0.123288 16.1562C0.2 16.589 0.328767 16.9945 0.528767 17.389C0.726027 17.7753 0.983562 18.1315 1.29041 18.4384C1.59726 18.7452 1.95342 19.0027 2.33973 19.2C2.73425 19.4 3.13699 19.5288 3.56986 19.6055C3.99726 19.6822 4.43288 19.7069 4.86575 19.7205C5.06301 19.726 5.26301 19.7288 5.46027 19.7288C5.69589 19.7315 5.93151 19.7288 6.16712 19.7288H13.5507C13.7863 19.7288 14.0219 19.7288 14.2575 19.7288C14.4548 19.7288 14.6548 19.726 14.8521 19.7205C15.2849 19.7096 15.7205 19.6822 16.1479 19.6055C16.5808 19.5288 16.9863 19.4 17.3781 19.2C17.7644 19.0027 18.1205 18.7452 18.4274 18.4384C18.7342 18.1315 18.9918 17.7781 19.189 17.389C19.389 16.9945 19.5178 16.5918 19.5945 16.1562C19.6712 15.7288 19.6959 15.2932 19.7096 14.8603C19.7151 14.663 19.7178 14.463 19.7178 14.2658C19.7205 14.0301 19.7178 13.7945 19.7178 13.5589V6.16986C19.726 5.93425 19.726 5.69863 19.726 5.46301ZM14.4411 12.8356C14.4411 13.0849 14.4384 13.3123 14.3863 13.5616C14.3342 13.8055 14.2411 14.0329 14.0986 14.2384C13.9562 14.4438 13.7726 14.611 13.5589 14.737C13.3425 14.8658 13.1151 14.937 12.874 14.9863C12.4192 15.0767 12.1096 15.0986 11.8164 15.0411C11.5342 14.9836 11.2959 14.8548 11.1041 14.6795C10.8219 14.4192 10.6438 14.0685 10.6055 13.7041C10.5616 13.274 10.7041 12.8164 11.0247 12.4767C11.1863 12.3068 11.3918 12.1726 11.6658 12.0658C11.9507 11.9562 12.2658 11.8877 12.7507 11.7918C12.8795 11.7671 13.0055 11.7397 13.1342 11.7151C13.3014 11.6822 13.4466 11.6384 13.5616 11.4959C13.6795 11.3534 13.6795 11.1781 13.6795 11.0082V6.66301C13.6795 6.33151 13.5315 6.2411 13.2137 6.30137C12.9863 6.34521 8.11233 7.32877 8.11233 7.32877C7.83836 7.39452 7.73973 7.48493 7.73973 7.8274V14.1918C7.73973 14.4411 7.72603 14.6685 7.67397 14.9178C7.62192 15.1616 7.52877 15.389 7.3863 15.5945C7.24384 15.8 7.06027 15.9671 6.84658 16.0932C6.63014 16.2219 6.40274 16.2959 6.16164 16.3452C5.70685 16.4356 5.39726 16.4575 5.10411 16.4C4.82192 16.3425 4.58356 16.211 4.39178 16.0356C4.10959 15.7753 3.94521 15.4247 3.90411 15.0603C3.86027 14.6301 3.98904 14.1726 4.31233 13.8329C4.47397 13.663 4.67945 13.5288 4.95342 13.4219C5.23836 13.3123 5.55342 13.2438 6.03836 13.1479C6.16712 13.1233 6.29315 13.0959 6.42192 13.0712C6.58904 13.0384 6.73425 12.9945 6.84932 12.8521C6.96438 12.7096 6.97808 12.5425 6.97808 12.3726C6.97808 11.0247 6.97808 5.03288 6.97808 5.03288C6.97808 4.93425 6.9863 4.86849 6.99178 4.83562C7.01644 4.68219 7.07671 4.54795 7.18904 4.45479C7.28219 4.37808 7.40274 4.32329 7.55342 4.29041H7.55616L13.4247 3.10411C13.4767 3.09315 13.8986 3.01918 13.9479 3.0137C14.2658 2.9863 14.4438 3.19452 14.4438 3.53151L14.4411 12.8356Z" fill="#333333"/>
</svg>
