<svg width="62" height="20" viewBox="0 0 62 20" fill="none" xmlns="http://www.w3.org/2000/svg">
<g clip-path="url(#clip0)">
<path d="M40.1428 7.49976C37.5892 7.49976 36.2844 9.50572 36.2844 12.5275C36.2844 15.384 37.6953 17.528 40.1428 17.528C42.9107 17.528 43.9485 15.0002 43.9485 12.5275C43.9466 9.94568 42.6424 7.49976 40.1421 7.49976H40.1428ZM33.3575 0.00028038H36.3908V7.25246H36.4445C37.2694 5.8792 38.9988 5.0273 40.5424 5.0273C44.8793 5.0273 46.9821 8.43491 46.9821 12.5836C46.9821 16.4009 45.1197 20 41.0476 20C39.185 20 37.1892 19.5339 36.284 17.6652H36.2314V19.6167H33.3572V0.000669479L33.3575 0.00028038ZM58.1697 10.1656C57.93 8.43472 56.7062 7.50005 55.0297 7.50005C53.459 7.50005 51.2507 8.35215 51.2507 12.6654C51.2507 15.0283 52.2616 17.5289 54.8966 17.5289C56.6525 17.5289 57.8761 16.3185 58.1697 14.2854H61.2029C60.6438 17.9668 58.4358 20 54.8966 20C50.5854 20 48.2173 16.8412 48.2173 12.6654C48.2173 8.37996 50.4793 5.02817 55.003 5.02817C58.196 5.02817 60.9111 6.67635 61.2029 10.1656H58.1697Z" fill="#333333"/>
<path d="M22.7522 19.5737H0L10.6248 9.91821e-05H33.3773L22.7522 19.5737Z" fill="#333333"/>
</g>
<defs>
<clipPath id="clip0">
<rect width="61.2048" height="20" fill="white"/>
</clipPath>
</defs>
</svg>
