<svg width="545" height="94" viewBox="0 0 545 94" fill="none" xmlns="http://www.w3.org/2000/svg">
<path d="M51.272 73.568C48.072 75.872 43.208 76.896 36.808 76.64C31.688 76.512 27.336 74.08 23.752 69.472C21.576 66.784 20.68 62.816 20.68 57.568C20.68 55.776 20.424 54.624 19.784 53.984C19.144 53.344 17.992 52.96 16.328 52.96C12.616 52.832 8.904 52.832 5.064 52.96C3.784 52.96 2.76 53.088 1.992 53.472C1.224 53.856 0.712 54.496 0.584 55.264C0.328 56.032 0.328 57.056 0.456 58.208C1.352 63.712 2.248 67.552 3.144 69.856C7.496 82.4 16.072 90.08 28.616 92.64C30.92 93.152 35.528 93.536 42.312 93.792C49.608 94.048 57.032 91.488 64.584 85.984C71.496 80.992 75.592 74.464 77.128 66.528C78.024 62.048 78.536 57.312 78.664 52.192C78.92 46.688 78.92 41.824 78.792 37.472C78.664 33.12 78.664 28.256 78.792 22.752C78.92 17.376 79.304 12.384 79.944 8.032C80.072 6.752 79.816 5.728 79.176 4.96C78.408 4.19199 77.384 3.67999 75.848 3.67999C71.24 3.424 66.888 3.424 62.664 3.67999C59.592 3.808 58.312 5.6 58.824 9.056C59.336 12.64 59.592 14.56 59.592 14.816C59.72 17.76 59.976 28.128 60.488 46.176C59.976 54.752 59.72 59.36 59.592 60.256C58.824 65.76 56.136 70.24 51.272 73.568ZM114.258 91.872C121.042 93.792 128.082 94.304 135.122 93.28C144.466 92.128 152.402 88.928 158.802 83.424C165.33 78.048 169.554 71.008 171.474 62.048C173.266 53.984 173.522 45.92 172.114 37.856C170.578 28.128 167.506 20.448 163.154 14.688C155.474 4.83199 145.234 0.095993 132.434 0.607994C123.73 0.863998 115.666 3.424 108.114 8.032C99.794 13.408 93.778 20.32 89.81 28.768C87.634 33.632 86.226 40.16 85.586 48.224C85.202 52.832 85.458 57.184 86.098 61.408C86.354 62.688 86.61 63.84 86.866 64.864C90.962 78.816 100.05 87.776 114.258 91.872ZM123.09 76.768C116.434 75.232 111.698 70.88 108.754 63.968C106.706 59.36 106.066 53.984 106.45 47.84C107.218 38.24 109.522 31.072 113.234 26.08C118.738 19.04 125.522 16.224 133.714 17.504C139.602 18.528 144.21 22.24 147.538 28.64C150.354 33.888 151.506 39.776 151.378 46.048C151.378 47.072 151.378 48.096 151.378 49.376C151.762 57.952 148.562 65.248 141.906 71.392C136.018 76.64 129.746 78.432 123.09 76.768ZM206.968 5.6C193.656 5.6 186.232 5.6 184.952 5.728C182.392 5.728 180.728 6.112 180.088 7.008C179.32 7.77599 179.32 9.43999 179.96 11.872C180.344 13.664 180.6 15.072 180.6 16.096C181.368 31.456 181.752 41.312 181.88 45.664C182.136 53.472 182.136 61.92 181.88 71.392C181.752 76.384 181.368 80.864 180.728 84.832C180.216 88.032 180.216 90.08 180.856 90.848C181.496 91.616 183.544 92 186.744 92C192.248 92 200.312 91.872 210.808 91.744C221.304 91.488 228.984 91.488 233.848 91.488C235.256 91.36 238.456 91.36 243.448 91.36C248.568 91.36 251.64 91.36 253.048 91.36C254.712 91.36 255.992 91.232 256.888 91.232C258.552 90.848 259.832 90.336 260.472 89.44C261.24 88.672 261.624 87.392 261.624 85.728C261.752 82.144 261.752 78.688 261.624 75.232C261.624 73.568 261.24 72.416 260.472 71.648C259.704 71.008 258.424 70.88 256.632 71.264C256.248 71.264 255.352 71.392 253.944 71.648C252.536 72.032 251.512 72.16 250.616 72.16C237.688 72.544 225.912 72.8 215.16 72.8C213.24 72.928 211.064 72.544 208.632 71.776C207.992 71.648 207.352 71.392 206.712 70.88C206.072 70.496 205.56 69.984 205.176 69.344C204.792 68.832 204.408 68.192 204.152 67.552C203.896 66.912 203.768 66.144 203.768 65.376C203.768 62.432 205.304 60.384 208.248 59.104C209.912 58.336 211.576 57.952 212.856 57.952C213.24 57.824 214.904 57.824 217.72 57.824C220.664 57.824 222.2 57.952 222.584 57.952C232.184 57.824 238.328 57.696 240.888 57.696C241.784 57.696 242.68 57.44 243.448 56.928C244.344 56.544 244.984 55.904 245.496 55.264C246.008 54.496 246.264 53.728 246.392 52.832C246.648 50.272 246.52 47.328 246.264 44.384C246.008 41.824 244.472 40.288 241.912 39.904C239.096 39.52 237.048 39.264 235.768 39.392C234.36 39.392 231.672 39.52 227.704 39.648C223.736 39.776 220.792 39.904 218.616 39.904C215.672 39.776 212.344 39.392 208.888 38.496C205.688 37.728 203.896 35.808 203.768 32.48C203.512 29.024 204.92 26.72 207.992 25.696C210.808 24.672 213.496 24.16 216.056 24.16C225.784 24.032 235.64 24.032 245.624 24.16C247.928 24.16 251.512 24.672 256.12 25.44C257.912 25.824 259.192 25.696 260.088 25.184C260.856 24.672 261.368 23.52 261.496 21.728C261.752 18.016 261.752 14.304 261.368 10.592C261.24 8.8 260.728 7.52 259.96 6.88C259.064 6.112 257.784 5.6 255.992 5.34399C254.968 5.216 252.92 5.088 249.848 5.216C249.208 5.216 248.312 5.34399 247.032 5.47199C245.88 5.6 244.856 5.6 244.216 5.6C241.272 5.6 223.224 5.6 206.968 5.6ZM352.6 92C355.032 92 357.464 91.744 359.768 91.232C361.944 90.848 364.248 90.08 366.424 89.184C368.6 88.16 370.52 87.008 372.312 85.6C384.344 76.64 390.232 63.712 390.232 47.072C390.232 39.52 388.44 32.224 384.984 25.056C381.016 17.632 375.896 12.128 369.24 8.8C364.632 6.49599 358.616 5.216 351.32 5.088C348.12 5.088 334.68 4.96 310.872 4.96C309.976 4.96 309.208 5.088 308.824 5.088C306.008 5.47199 304.856 7.008 305.24 9.824C305.368 9.952 305.496 10.464 305.752 11.488C305.88 12.384 306.008 13.152 306.008 13.792C306.136 15.84 306.136 20.192 306.136 26.848C306.136 52.448 306.136 67.68 306.008 72.544C306.008 76.384 305.624 80.736 304.728 85.6C304.344 88.16 304.472 89.952 305.112 90.72C305.752 91.616 307.416 92 309.848 92C311.128 92 318.296 92 331.48 92C344.664 92 351.576 92 352.6 92ZM325.976 64.608C325.208 61.408 324.696 58.208 324.696 55.136C324.696 50.528 324.824 45.152 325.208 39.008C325.464 36.448 325.848 33.888 326.744 31.328C327.768 28.384 329.688 26.336 332.504 25.44C341.336 22.368 349.784 23.008 358.104 27.104C362.712 29.408 366.168 33.632 368.344 39.776C370.776 46.944 370.904 53.472 368.856 59.488C366.552 66.4 361.688 70.624 354.264 72.032C353.752 72.16 350.296 72.544 343.64 73.184C337.624 72.544 334.424 72.16 333.912 72.032C329.56 71.136 327 68.704 325.976 64.608ZM469.184 91.744C472.384 91.232 473.408 89.44 472 86.24C465.216 70.112 460.864 59.616 458.816 54.752C457.664 51.936 454.08 42.72 448.064 27.104C447.936 26.72 447.552 25.696 446.912 24.032C446.272 22.368 445.76 21.216 445.632 20.576C445.376 19.936 445.12 19.04 444.608 17.632C444.224 16.224 443.968 15.072 443.712 14.048C443.456 12.896 443.328 11.872 443.328 10.72C443.2 9.56799 442.816 8.544 442.176 7.64799C441.536 6.88 440.64 6.368 439.488 6.368C432.96 5.856 427.584 5.6 423.488 5.728C421.696 5.856 420.416 6.368 419.52 7.26399C418.752 8.16 418.112 9.56799 417.728 11.36C417.216 14.816 416.576 17.504 415.808 19.424C409.664 35.296 404.8 47.712 401.088 56.8C399.424 60.768 395.328 70.368 388.672 85.472C387.776 87.392 387.648 88.8 388.032 89.696C388.416 90.464 389.696 91.104 391.872 91.36C392.64 91.36 396.096 91.616 402.368 91.872C406.464 92 409.152 90.08 410.432 86.112C412.096 81.504 415.296 79.072 420.288 78.816C424 78.688 430.656 78.816 440.256 79.2C445.12 79.456 448.576 81.888 450.496 86.752C451.392 89.44 453.312 90.848 456.128 91.232C456.512 91.232 459.2 91.488 464.32 92C465.728 92 467.392 91.872 469.184 91.744ZM432.704 45.408C433.472 45.664 434.24 46.048 434.752 46.56C435.392 47.072 435.904 47.584 436.288 48.224C436.672 48.864 437.056 49.632 437.312 50.4C437.44 51.296 437.568 52.192 437.568 53.088C437.568 55.264 436.8 57.184 435.52 58.592C434.24 60 432.448 60.768 430.4 60.768C428.224 60.768 426.432 60.128 425.152 58.592C423.744 57.184 423.104 55.264 423.104 52.832C423.104 51.296 423.36 50.016 424 48.864C424.64 47.584 425.536 46.688 426.56 46.048C427.712 45.408 428.992 45.024 430.4 45.024C431.168 45.024 431.936 45.152 432.704 45.408ZM462.942 5.856C458.334 5.98399 457.31 8.032 459.486 12C460.766 14.176 462.558 17.248 464.99 21.216C467.294 25.312 469.086 28.128 470.11 29.92C472.414 33.888 475.87 39.648 480.35 47.328C484.83 55.008 487.262 59.232 487.646 60.128C490.718 65.248 492.126 70.752 491.87 76.768C491.87 78.048 491.742 79.712 491.614 81.888C491.486 84.192 491.358 85.728 491.23 86.624C491.102 88.416 491.486 89.568 491.998 90.336C492.638 90.976 493.79 91.36 495.454 91.616C495.71 91.616 496.222 91.616 496.734 91.744C497.246 91.744 497.758 91.872 498.27 91.872C498.654 91.872 499.038 91.872 499.422 91.872C503.902 92 506.846 92 507.998 91.872C509.534 91.616 510.686 90.976 511.198 90.208C511.838 89.44 511.966 88.16 511.582 86.496C511.454 86.112 511.326 85.344 511.198 84.32C510.942 83.296 510.814 82.528 510.686 81.888C509.534 73.312 510.686 66.016 513.886 60.256C519.774 50.016 526.046 39.136 532.958 27.616C534.11 25.696 535.902 22.88 538.334 19.168C540.638 15.456 542.174 12.896 543.07 11.488C543.966 9.952 544.35 8.8 543.966 7.904C543.454 7.008 542.43 6.368 540.638 6.112C539.87 5.98399 538.718 5.856 537.182 5.856C533.982 5.856 531.038 5.856 528.478 5.856C525.79 5.856 523.87 6.368 522.59 7.26399C521.31 8.16 520.158 9.952 519.006 12.384C517.598 15.328 514.398 21.472 509.278 31.072C508.894 31.968 507.998 32.864 506.974 33.888C505.054 35.552 503.134 36.32 500.958 36.192C498.782 36.192 496.862 35.424 495.07 33.76C492.894 31.456 491.23 29.152 490.078 26.848C488.158 23.392 485.726 18.144 482.526 11.104C480.99 7.77599 478.558 6.112 475.23 5.98399C474.974 5.856 472.926 5.856 468.958 5.856C465.246 5.856 463.198 5.856 462.942 5.856Z" fill="#333333"/>
</svg>
