<svg width="514" height="94" viewBox="0 0 514 94" fill="none" xmlns="http://www.w3.org/2000/svg">
<path d="M51.272 73.568C48.072 75.872 43.208 76.896 36.808 76.64C31.688 76.512 27.336 74.08 23.752 69.472C21.576 66.784 20.68 62.816 20.68 57.568C20.68 55.776 20.424 54.624 19.784 53.984C19.144 53.344 17.992 52.96 16.328 52.96C12.616 52.832 8.904 52.832 5.064 52.96C3.784 52.96 2.76 53.088 1.992 53.472C1.224 53.856 0.712 54.496 0.584 55.264C0.328 56.032 0.328 57.056 0.456 58.208C1.352 63.712 2.248 67.552 3.144 69.856C7.496 82.4 16.072 90.08 28.616 92.64C30.92 93.152 35.528 93.536 42.312 93.792C49.608 94.048 57.032 91.488 64.584 85.984C71.496 80.992 75.592 74.464 77.128 66.528C78.024 62.048 78.536 57.312 78.664 52.192C78.92 46.688 78.92 41.824 78.792 37.472C78.664 33.12 78.664 28.256 78.792 22.752C78.92 17.376 79.304 12.384 79.944 8.032C80.072 6.752 79.816 5.728 79.176 4.96C78.408 4.19199 77.384 3.67999 75.848 3.67999C71.24 3.424 66.888 3.424 62.664 3.67999C59.592 3.808 58.312 5.6 58.824 9.056C59.336 12.64 59.592 14.56 59.592 14.816C59.72 17.76 59.976 28.128 60.488 46.176C59.976 54.752 59.72 59.36 59.592 60.256C58.824 65.76 56.136 70.24 51.272 73.568ZM109.138 91.872C115.922 93.792 122.962 94.304 130.002 93.28C139.346 92.128 147.282 88.928 153.682 83.424C160.21 78.048 164.434 71.008 166.354 62.048C168.146 53.984 168.402 45.92 166.994 37.856C165.458 28.128 162.386 20.448 158.034 14.688C150.354 4.83199 140.114 0.095993 127.314 0.607994C118.61 0.863998 110.546 3.424 102.994 8.032C94.674 13.408 88.658 20.32 84.69 28.768C82.514 33.632 81.106 40.16 80.466 48.224C80.082 52.832 80.338 57.184 80.978 61.408C81.234 62.688 81.49 63.84 81.746 64.864C85.842 78.816 94.93 87.776 109.138 91.872ZM117.97 76.768C111.314 75.232 106.578 70.88 103.634 63.968C101.586 59.36 100.946 53.984 101.33 47.84C102.098 38.24 104.402 31.072 108.114 26.08C113.618 19.04 120.402 16.224 128.594 17.504C134.482 18.528 139.09 22.24 142.418 28.64C145.234 33.888 146.386 39.776 146.258 46.048C146.258 47.072 146.258 48.096 146.258 49.376C146.642 57.952 143.442 65.248 136.786 71.392C130.898 76.64 124.626 78.432 117.97 76.768ZM196.728 5.6C183.416 5.6 175.992 5.6 174.712 5.728C172.152 5.728 170.488 6.112 169.848 7.008C169.08 7.77599 169.08 9.43999 169.72 11.872C170.104 13.664 170.36 15.072 170.36 16.096C171.128 31.456 171.512 41.312 171.64 45.664C171.896 53.472 171.896 61.92 171.64 71.392C171.512 76.384 171.128 80.864 170.488 84.832C169.976 88.032 169.976 90.08 170.616 90.848C171.256 91.616 173.304 92 176.504 92C182.008 92 190.072 91.872 200.568 91.744C211.064 91.488 218.744 91.488 223.608 91.488C225.016 91.36 228.216 91.36 233.208 91.36C238.328 91.36 241.4 91.36 242.808 91.36C244.472 91.36 245.752 91.232 246.648 91.232C248.312 90.848 249.592 90.336 250.232 89.44C251 88.672 251.384 87.392 251.384 85.728C251.512 82.144 251.512 78.688 251.384 75.232C251.384 73.568 251 72.416 250.232 71.648C249.464 71.008 248.184 70.88 246.392 71.264C246.008 71.264 245.112 71.392 243.704 71.648C242.296 72.032 241.272 72.16 240.376 72.16C227.448 72.544 215.672 72.8 204.92 72.8C203 72.928 200.824 72.544 198.392 71.776C197.752 71.648 197.112 71.392 196.472 70.88C195.832 70.496 195.32 69.984 194.936 69.344C194.552 68.832 194.168 68.192 193.912 67.552C193.656 66.912 193.528 66.144 193.528 65.376C193.528 62.432 195.064 60.384 198.008 59.104C199.672 58.336 201.336 57.952 202.616 57.952C203 57.824 204.664 57.824 207.48 57.824C210.424 57.824 211.96 57.952 212.344 57.952C221.944 57.824 228.088 57.696 230.648 57.696C231.544 57.696 232.44 57.44 233.208 56.928C234.104 56.544 234.744 55.904 235.256 55.264C235.768 54.496 236.024 53.728 236.152 52.832C236.408 50.272 236.28 47.328 236.024 44.384C235.768 41.824 234.232 40.288 231.672 39.904C228.856 39.52 226.808 39.264 225.528 39.392C224.12 39.392 221.432 39.52 217.464 39.648C213.496 39.776 210.552 39.904 208.376 39.904C205.432 39.776 202.104 39.392 198.648 38.496C195.448 37.728 193.656 35.808 193.528 32.48C193.272 29.024 194.68 26.72 197.752 25.696C200.568 24.672 203.256 24.16 205.816 24.16C215.544 24.032 225.4 24.032 235.384 24.16C237.688 24.16 241.272 24.672 245.88 25.44C247.672 25.824 248.952 25.696 249.848 25.184C250.616 24.672 251.128 23.52 251.256 21.728C251.512 18.016 251.512 14.304 251.128 10.592C251 8.8 250.488 7.52 249.72 6.88C248.824 6.112 247.544 5.6 245.752 5.34399C244.728 5.216 242.68 5.088 239.608 5.216C238.968 5.216 238.072 5.34399 236.792 5.47199C235.64 5.6 234.616 5.6 233.976 5.6C231.032 5.6 212.984 5.6 196.728 5.6ZM332.12 92C334.552 92 336.984 91.744 339.288 91.232C341.464 90.848 343.768 90.08 345.944 89.184C348.12 88.16 350.04 87.008 351.832 85.6C363.864 76.64 369.752 63.712 369.752 47.072C369.752 39.52 367.96 32.224 364.504 25.056C360.536 17.632 355.416 12.128 348.76 8.8C344.152 6.49599 338.136 5.216 330.84 5.088C327.64 5.088 314.2 4.96 290.392 4.96C289.496 4.96 288.728 5.088 288.344 5.088C285.528 5.47199 284.376 7.008 284.76 9.824C284.888 9.952 285.016 10.464 285.272 11.488C285.4 12.384 285.528 13.152 285.528 13.792C285.656 15.84 285.656 20.192 285.656 26.848C285.656 52.448 285.656 67.68 285.528 72.544C285.528 76.384 285.144 80.736 284.248 85.6C283.864 88.16 283.992 89.952 284.632 90.72C285.272 91.616 286.936 92 289.368 92C290.648 92 297.816 92 311 92C324.184 92 331.096 92 332.12 92ZM305.496 64.608C304.728 61.408 304.216 58.208 304.216 55.136C304.216 50.528 304.344 45.152 304.728 39.008C304.984 36.448 305.368 33.888 306.264 31.328C307.288 28.384 309.208 26.336 312.024 25.44C320.856 22.368 329.304 23.008 337.624 27.104C342.232 29.408 345.688 33.632 347.864 39.776C350.296 46.944 350.424 53.472 348.376 59.488C346.072 66.4 341.208 70.624 333.784 72.032C333.272 72.16 329.816 72.544 323.16 73.184C317.144 72.544 313.944 72.16 313.432 72.032C309.08 71.136 306.52 68.704 305.496 64.608ZM443.584 91.744C446.784 91.232 447.808 89.44 446.4 86.24C439.616 70.112 435.264 59.616 433.216 54.752C432.064 51.936 428.48 42.72 422.464 27.104C422.336 26.72 421.952 25.696 421.312 24.032C420.672 22.368 420.16 21.216 420.032 20.576C419.776 19.936 419.52 19.04 419.008 17.632C418.624 16.224 418.368 15.072 418.112 14.048C417.856 12.896 417.728 11.872 417.728 10.72C417.6 9.56799 417.216 8.544 416.576 7.64799C415.936 6.88 415.04 6.368 413.888 6.368C407.36 5.856 401.984 5.6 397.888 5.728C396.096 5.856 394.816 6.368 393.92 7.26399C393.152 8.16 392.512 9.56799 392.128 11.36C391.616 14.816 390.976 17.504 390.208 19.424C384.064 35.296 379.2 47.712 375.488 56.8C373.824 60.768 369.728 70.368 363.072 85.472C362.176 87.392 362.048 88.8 362.432 89.696C362.816 90.464 364.096 91.104 366.272 91.36C367.04 91.36 370.496 91.616 376.768 91.872C380.864 92 383.552 90.08 384.832 86.112C386.496 81.504 389.696 79.072 394.688 78.816C398.4 78.688 405.056 78.816 414.656 79.2C419.52 79.456 422.976 81.888 424.896 86.752C425.792 89.44 427.712 90.848 430.528 91.232C430.912 91.232 433.6 91.488 438.72 92C440.128 92 441.792 91.872 443.584 91.744ZM407.104 45.408C407.872 45.664 408.64 46.048 409.152 46.56C409.792 47.072 410.304 47.584 410.688 48.224C411.072 48.864 411.456 49.632 411.712 50.4C411.84 51.296 411.968 52.192 411.968 53.088C411.968 55.264 411.2 57.184 409.92 58.592C408.64 60 406.848 60.768 404.8 60.768C402.624 60.768 400.832 60.128 399.552 58.592C398.144 57.184 397.504 55.264 397.504 52.832C397.504 51.296 397.76 50.016 398.4 48.864C399.04 47.584 399.936 46.688 400.96 46.048C402.112 45.408 403.392 45.024 404.8 45.024C405.568 45.024 406.336 45.152 407.104 45.408ZM432.222 5.856C427.614 5.98399 426.59 8.032 428.766 12C430.046 14.176 431.838 17.248 434.27 21.216C436.574 25.312 438.366 28.128 439.39 29.92C441.694 33.888 445.15 39.648 449.63 47.328C454.11 55.008 456.542 59.232 456.926 60.128C459.998 65.248 461.406 70.752 461.15 76.768C461.15 78.048 461.022 79.712 460.894 81.888C460.766 84.192 460.638 85.728 460.51 86.624C460.382 88.416 460.766 89.568 461.278 90.336C461.918 90.976 463.07 91.36 464.734 91.616C464.99 91.616 465.502 91.616 466.014 91.744C466.526 91.744 467.038 91.872 467.55 91.872C467.934 91.872 468.318 91.872 468.702 91.872C473.182 92 476.126 92 477.278 91.872C478.814 91.616 479.966 90.976 480.478 90.208C481.118 89.44 481.246 88.16 480.862 86.496C480.734 86.112 480.606 85.344 480.478 84.32C480.222 83.296 480.094 82.528 479.966 81.888C478.814 73.312 479.966 66.016 483.166 60.256C489.054 50.016 495.326 39.136 502.238 27.616C503.39 25.696 505.182 22.88 507.614 19.168C509.918 15.456 511.454 12.896 512.35 11.488C513.246 9.952 513.63 8.8 513.246 7.904C512.734 7.008 511.71 6.368 509.918 6.112C509.15 5.98399 507.998 5.856 506.462 5.856C503.262 5.856 500.318 5.856 497.758 5.856C495.07 5.856 493.15 6.368 491.87 7.26399C490.59 8.16 489.438 9.952 488.286 12.384C486.878 15.328 483.678 21.472 478.558 31.072C478.174 31.968 477.278 32.864 476.254 33.888C474.334 35.552 472.414 36.32 470.238 36.192C468.062 36.192 466.142 35.424 464.35 33.76C462.174 31.456 460.51 29.152 459.358 26.848C457.438 23.392 455.006 18.144 451.806 11.104C450.27 7.77599 447.838 6.112 444.51 5.98399C444.254 5.856 442.206 5.856 438.238 5.856C434.526 5.856 432.478 5.856 432.222 5.856Z" fill="#333333"/>
</svg>
