<svg width="900" height="334" viewBox="0 0 900 334" fill="none" xmlns="http://www.w3.org/2000/svg">
<path d="M63.395 277.7C66.185 277.855 68.355 278.01 69.75 278.165C74.555 278.94 78.12 280.645 80.29 282.97C82.46 285.295 83.7 289.015 83.855 293.82C84.01 296.455 83.855 302.345 83.235 311.645C83.08 313.66 83.235 315.055 83.7 315.985C84.165 316.76 85.095 317.225 86.49 317.38C92.69 318 98.27 318.155 103.23 317.845C104.47 317.845 105.4 317.69 106.175 317.225C106.795 316.605 107.26 315.985 107.415 315.21C107.725 314.28 107.725 313.195 107.57 311.955C106.485 297.54 105.865 288.705 105.865 285.295C105.71 277.545 105.865 259.875 106.485 232.285C106.485 229.34 106.795 225.31 107.26 220.35C107.725 216.475 106.175 214.305 102.61 213.995C97.03 213.53 92.38 213.22 88.66 213.22C85.87 213.22 84.01 213.84 83.235 214.925C82.305 216.01 82.15 218.025 82.46 220.97C83.08 229.34 83.235 236.315 82.77 242.05C82.615 245.77 81.53 248.56 79.67 250.575C77.81 252.745 75.02 253.985 71.145 254.605C62.31 256.155 55.025 256.465 49.135 255.535C45.88 254.915 43.09 253.985 41.23 252.745C39.215 251.66 37.665 249.955 36.58 247.94C35.495 245.77 35.03 243.135 34.72 239.88C34.72 238.795 34.565 237.865 34.565 237.09C35.03 228.875 35.495 223.14 35.65 219.885C35.96 216.32 34.72 214.305 31.93 214.15C25.42 213.375 20.15 213.065 16.12 213.22C13.64 213.375 11.935 213.995 11.005 215.08C10.075 216.165 9.76499 218.025 10.075 220.505C10.85 228.565 11.315 232.905 11.315 233.68C11.935 253.365 12.245 267.625 12.245 276.77C12.245 278.165 12.245 281.885 12.4 287.62C12.4 293.51 12.4 298.315 12.245 301.88C12.09 305.6 11.78 309.32 11.005 312.885C10.85 313.97 11.005 315.055 11.47 315.985C12.09 316.76 12.865 317.225 13.95 317.38C21.39 317.845 27.435 318.155 31.93 318C33.48 318 34.565 317.38 35.185 316.45C35.96 315.365 36.115 314.125 35.96 312.42C35.805 311.645 35.65 310.715 35.495 309.63C35.185 308.545 35.03 307.77 35.03 307.305C33.79 299.09 33.635 292.89 34.565 288.705C36.115 282.815 39.525 279.405 45.105 278.63C45.725 278.475 50.065 278.165 58.125 277.235C58.125 277.39 63.085 277.7 63.395 277.7Z" fill="#35292B"/>
<path d="M211.683 317.69C215.558 317.07 216.798 314.9 215.093 311.025C206.878 291.495 201.608 278.785 199.128 272.895C197.733 269.485 193.393 258.325 186.108 239.415C185.953 238.95 185.488 237.71 184.713 235.695C183.938 233.68 183.318 232.285 183.163 231.51C182.853 230.735 182.543 229.65 181.923 227.945C181.458 226.24 181.148 224.845 180.838 223.605C180.528 222.21 180.373 220.97 180.373 219.575C180.218 218.18 179.753 216.94 178.978 215.855C178.203 214.925 177.118 214.305 175.723 214.305C167.818 213.685 161.308 213.375 156.348 213.53C154.178 213.685 152.628 214.305 151.543 215.39C150.613 216.475 149.838 218.18 149.373 220.35C148.753 224.535 147.978 227.79 147.048 230.115C139.608 249.335 133.718 264.37 129.223 275.375C127.208 280.18 122.248 291.805 114.188 310.095C113.103 312.42 112.948 314.125 113.413 315.21C113.878 316.14 115.428 316.915 118.063 317.225C118.993 317.225 123.178 317.535 130.773 317.845C135.733 318 138.988 315.675 140.538 310.87C142.553 305.29 146.428 302.345 152.473 302.035C156.968 301.88 165.028 302.035 176.653 302.5C182.543 302.81 186.728 305.755 189.053 311.645C190.138 314.9 192.463 316.605 195.873 317.07C196.338 317.07 199.593 317.38 205.793 318C207.498 318 209.513 317.845 211.683 317.69ZM167.508 261.58C168.438 261.89 169.368 262.355 169.988 262.975C170.763 263.595 171.383 264.215 171.848 264.99C172.313 265.765 172.778 266.695 173.088 267.625C173.243 268.71 173.398 269.795 173.398 270.88C173.398 273.515 172.468 275.84 170.918 277.545C169.368 279.25 167.198 280.18 164.718 280.18C162.083 280.18 159.913 279.405 158.363 277.545C156.658 275.84 155.883 273.515 155.883 270.57C155.883 268.71 156.193 267.16 156.968 265.765C157.743 264.215 158.828 263.13 160.068 262.355C161.463 261.58 163.013 261.115 164.718 261.115C165.648 261.115 166.578 261.27 167.508 261.58Z" fill="#35292B"/>
<path d="M312.932 317.38C315.567 317.225 317.582 316.605 318.667 315.52C319.907 314.28 320.527 312.42 320.527 309.785C320.527 306.685 320.372 302.965 319.907 298.47C319.597 295.835 318.977 294.13 318.202 293.51C317.272 292.89 315.412 292.735 312.622 293.2C304.872 294.285 299.137 294.75 295.262 294.905C288.132 295.06 277.592 295.06 263.797 294.905C261.162 294.905 258.372 294.595 255.427 293.665C250.002 292.425 246.747 289.015 245.662 283.28C245.042 279.405 244.732 276.15 244.732 273.36C244.887 264.37 245.197 249.645 245.507 229.185C245.507 226.55 245.662 223.76 245.972 220.815C246.282 218.335 245.972 216.63 245.042 215.39C244.267 214.305 242.562 213.84 240.082 213.685C235.897 213.53 231.247 213.375 226.132 213.53C224.737 213.685 223.652 213.84 222.877 214.305C222.257 214.615 221.637 215.235 221.327 216.165C221.017 216.94 221.017 218.18 221.172 219.575C221.172 219.73 221.327 221.28 221.792 224.07C222.102 226.86 222.257 228.875 222.257 230.27C222.722 245.305 223.032 262.045 223.187 280.49C223.187 281.265 223.032 282.97 222.722 285.295C222.567 287.775 222.567 289.48 222.722 290.72C223.342 297.54 223.187 304.825 221.947 312.265C221.637 313.815 221.792 315.055 222.412 315.83C223.187 316.605 224.272 317.07 225.977 317.38C230.627 317.845 234.037 318 236.362 318C241.322 318 246.437 317.845 251.552 317.845C256.667 317.69 263.177 317.535 271.082 317.38C278.832 317.225 283.947 317.225 286.117 317.225V317.38C302.392 317.38 311.382 317.38 312.932 317.38Z" fill="#35292B"/>
<path d="M335.49 213.53C333.32 213.53 331.77 213.53 330.995 213.685C327.43 214.15 325.725 216.32 326.19 219.885C326.345 220.815 326.5 222.83 326.965 225.775C327.275 228.72 327.585 231.2 327.895 233.215C328.05 235.23 328.05 237.245 327.895 239.105C327.895 244.22 328.05 251.97 328.205 262.045C328.515 272.12 328.515 281.265 328.36 289.325C328.205 297.385 327.74 305.135 326.965 312.42C326.5 315.83 327.895 317.69 331.15 318C337.35 318.155 342.775 318.155 347.58 317.845C349.44 317.69 350.68 317.07 351.455 315.985C352.23 314.9 352.54 313.35 352.385 311.18C351.765 302.345 351.455 295.68 351.455 291.34C351.455 287.155 352.695 283.9 355.02 281.265C357.345 278.785 360.755 277.235 364.785 276.77C366.025 276.615 367.575 276.615 369.59 276.615C370.675 276.615 374.24 276.615 380.44 276.615C386.64 276.615 391.445 276.615 394.855 276.615C397.645 276.46 399.815 276.15 401.21 275.84C403.535 275.065 404.93 273.98 405.55 272.74C407.255 267.78 407.255 262.665 405.55 257.395C405.24 256.62 404 255.69 401.985 254.915C400.9 254.45 399.505 254.295 397.8 254.295C396.405 254.295 392.995 254.45 387.57 254.605C382.145 254.605 378.115 254.76 375.17 254.76C371.14 254.76 366.645 254.295 361.53 253.52C360.135 253.365 358.43 252.59 356.725 251.195C354.865 249.645 353.935 247.785 353.935 245.615C353.78 243.6 354.71 241.585 356.725 240.035C358.12 238.64 359.825 237.555 361.685 237.09C365.25 236.315 368.505 236.005 371.605 236.005C384.47 235.695 395.94 235.695 405.86 236.005C409.27 236.005 413.455 236.47 418.415 237.4C420.895 237.865 422.445 237.71 423.375 237.245C424.15 236.78 424.77 235.385 425.08 233.06C425.08 231.975 425.08 227.79 424.77 220.815C424.615 218.49 424.15 216.63 423.22 215.545C422.29 214.46 420.585 213.53 418.26 213.065C416.71 212.755 414.85 212.755 413.145 212.755C411.75 212.755 409.115 212.91 405.085 213.065C401.21 213.22 398.11 213.375 396.095 213.375C394.235 213.53 384.47 213.53 366.49 213.53C349.44 213.53 339.055 213.53 335.49 213.53Z" fill="#35292B"/>
<path d="M522.666 317.38C525.301 317.225 527.316 316.605 528.401 315.52C529.641 314.28 530.261 312.42 530.261 309.785C530.261 306.685 530.106 302.965 529.641 298.47C529.331 295.835 528.711 294.13 527.936 293.51C527.006 292.89 525.146 292.735 522.356 293.2C514.606 294.285 508.871 294.75 504.996 294.905C497.866 295.06 487.326 295.06 473.531 294.905C470.896 294.905 468.106 294.595 465.161 293.665C459.736 292.425 456.481 289.015 455.396 283.28C454.776 279.405 454.466 276.15 454.466 273.36C454.621 264.37 454.931 249.645 455.241 229.185C455.241 226.55 455.396 223.76 455.706 220.815C456.016 218.335 455.706 216.63 454.776 215.39C454.001 214.305 452.296 213.84 449.816 213.685C445.631 213.53 440.981 213.375 435.866 213.53C434.471 213.685 433.386 213.84 432.611 214.305C431.991 214.615 431.371 215.235 431.061 216.165C430.751 216.94 430.751 218.18 430.906 219.575C430.906 219.73 431.061 221.28 431.526 224.07C431.836 226.86 431.991 228.875 431.991 230.27C432.456 245.305 432.766 262.045 432.921 280.49C432.921 281.265 432.766 282.97 432.456 285.295C432.301 287.775 432.301 289.48 432.456 290.72C433.076 297.54 432.921 304.825 431.681 312.265C431.371 313.815 431.526 315.055 432.146 315.83C432.921 316.605 434.006 317.07 435.711 317.38C440.361 317.845 443.771 318 446.096 318C451.056 318 456.171 317.845 461.286 317.845C466.401 317.69 472.911 317.535 480.816 317.38C488.566 317.225 493.681 317.225 495.851 317.225V317.38C512.126 317.38 521.116 317.38 522.666 317.38Z" fill="#35292B"/>
<path d="M540.42 213.84C537.165 214.15 535.615 216.01 535.925 219.575C537.01 235.695 537.785 245.46 537.785 248.87C537.94 257.55 537.94 275.53 537.785 303.12C537.785 304.36 537.785 305.91 537.475 307.925C537.32 310.095 537.165 311.49 537.01 312.265C537.01 315.365 538.095 317.07 540.42 317.38C547.55 317.845 552.82 318.155 556.385 318C558.555 318 559.95 317.38 560.725 316.295C561.655 315.365 561.81 313.66 561.5 311.335C561.5 310.715 561.345 309.63 561.035 308.235C560.725 306.84 560.57 305.6 560.415 304.36C560.26 303.275 560.26 302.19 560.415 301.26C560.415 295.06 560.26 286.38 560.105 275.375C559.95 264.37 559.95 254.295 560.105 245.305C560.105 236.16 560.57 227.635 561.19 219.575C561.5 216.01 559.95 214.15 556.695 213.84C556.385 213.84 553.75 213.84 548.79 213.84C543.52 213.84 540.73 213.84 540.42 213.84Z" fill="#35292B"/>
<path d="M643.313 319.705C646.568 318.62 648.738 318 650.288 317.69C656.333 316.295 660.983 315.365 664.393 314.9C667.183 314.745 669.043 314.28 669.973 313.505C670.748 312.73 671.368 311.025 671.523 308.545C671.988 302.19 672.298 293.51 672.608 282.195C672.608 278.94 670.903 277.08 667.493 276.77C666.408 276.615 663.773 276.615 659.898 276.615C655.248 276.615 652.458 276.925 651.528 277.7C650.753 278.475 650.288 281.265 650.288 285.915C650.443 292.115 647.963 296.765 642.848 299.71C640.368 301.26 637.733 302.19 635.253 302.655C622.543 305.29 611.848 301.26 603.633 290.565C598.518 284.21 595.728 276.615 595.263 267.625C594.643 258.635 596.658 250.575 600.998 243.29C607.043 233.215 615.413 227.48 625.953 225.93C632.308 225 638.818 226.085 645.328 229.03C653.078 232.44 659.278 236.78 664.083 241.895C666.098 244.22 667.958 244.84 669.508 243.91C671.213 242.825 672.143 241.275 672.453 239.105C672.918 234.3 673.228 229.03 673.228 223.295C673.383 222.055 673.383 221.125 673.073 220.35C672.918 219.575 672.608 218.955 672.143 218.49C671.678 218.025 671.213 217.56 670.438 217.25C669.818 216.94 668.888 216.63 667.803 216.32C661.293 214.615 655.868 213.065 651.373 211.515C640.833 207.95 630.913 207.02 621.923 208.415C611.848 210.12 602.238 214.77 593.093 222.52C586.583 228.1 581.778 233.525 578.833 238.95C571.703 251.505 569.533 265.455 572.323 280.645C574.648 293.045 580.848 302.965 591.233 310.56C600.998 317.845 613.088 321.72 627.658 322.185C628.123 322.185 629.053 322.185 630.293 322.185C631.533 322.185 632.618 322.03 633.548 322.03C634.478 322.03 635.408 321.875 636.338 321.72C637.888 321.255 640.213 320.635 643.313 319.705Z" fill="#35292B"/>
<path d="M737.827 277.7C740.617 277.855 742.787 278.01 744.182 278.165C748.987 278.94 752.552 280.645 754.722 282.97C756.892 285.295 758.132 289.015 758.287 293.82C758.442 296.455 758.287 302.345 757.667 311.645C757.512 313.66 757.667 315.055 758.132 315.985C758.597 316.76 759.527 317.225 760.922 317.38C767.122 318 772.702 318.155 777.662 317.845C778.902 317.845 779.832 317.69 780.607 317.225C781.227 316.605 781.692 315.985 781.847 315.21C782.157 314.28 782.157 313.195 782.002 311.955C780.917 297.54 780.297 288.705 780.297 285.295C780.142 277.545 780.297 259.875 780.917 232.285C780.917 229.34 781.227 225.31 781.692 220.35C782.157 216.475 780.607 214.305 777.042 213.995C771.462 213.53 766.812 213.22 763.092 213.22C760.302 213.22 758.442 213.84 757.667 214.925C756.737 216.01 756.582 218.025 756.892 220.97C757.512 229.34 757.667 236.315 757.202 242.05C757.047 245.77 755.962 248.56 754.102 250.575C752.242 252.745 749.452 253.985 745.577 254.605C736.742 256.155 729.457 256.465 723.567 255.535C720.312 254.915 717.522 253.985 715.662 252.745C713.647 251.66 712.097 249.955 711.012 247.94C709.927 245.77 709.462 243.135 709.152 239.88C709.152 238.795 708.997 237.865 708.997 237.09C709.462 228.875 709.927 223.14 710.082 219.885C710.392 216.32 709.152 214.305 706.362 214.15C699.852 213.375 694.582 213.065 690.552 213.22C688.072 213.375 686.367 213.995 685.437 215.08C684.507 216.165 684.197 218.025 684.507 220.505C685.282 228.565 685.747 232.905 685.747 233.68C686.367 253.365 686.677 267.625 686.677 276.77C686.677 278.165 686.677 281.885 686.832 287.62C686.832 293.51 686.832 298.315 686.677 301.88C686.522 305.6 686.212 309.32 685.437 312.885C685.282 313.97 685.437 315.055 685.902 315.985C686.522 316.76 687.297 317.225 688.382 317.38C695.822 317.845 701.867 318.155 706.362 318C707.912 318 708.997 317.38 709.617 316.45C710.392 315.365 710.547 314.125 710.392 312.42C710.237 311.645 710.082 310.715 709.927 309.63C709.617 308.545 709.462 307.77 709.462 307.305C708.222 299.09 708.067 292.89 708.997 288.705C710.547 282.815 713.957 279.405 719.537 278.63C720.157 278.475 724.497 278.165 732.557 277.235C732.557 277.39 737.517 277.7 737.827 277.7Z" fill="#35292B"/>
<path d="M830.314 213.84C810.474 213.84 799.469 213.84 797.144 213.84C795.129 213.84 793.424 214.15 792.029 214.77C790.789 215.39 789.859 216.32 789.239 217.56C788.464 218.8 788.154 220.66 787.999 222.83C787.689 225.775 787.689 228.875 787.999 231.975C787.999 233.835 788.464 235.23 789.394 236.005C790.324 236.625 791.719 236.935 793.579 236.78C794.199 236.78 795.594 236.47 797.764 236.16C799.779 236.005 801.484 235.85 802.724 235.85C809.544 235.54 814.194 235.695 816.519 236.005C818.689 236.47 820.549 237.245 822.099 238.175C823.649 239.26 825.044 240.655 825.974 242.205C827.059 243.91 827.524 245.77 827.834 248.095C828.764 258.325 829.229 266.385 829.074 272.275C829.074 276.15 828.764 289.48 827.989 312.11C827.679 315.365 828.764 317.07 830.934 317.38C838.374 317.845 843.799 318.155 847.519 317.845C849.844 317.845 851.239 317.225 852.014 316.14C852.634 315.21 852.789 313.35 852.479 310.87C851.549 303.895 851.084 298.935 850.929 296.3C850.774 285.14 850.774 272.585 850.929 258.325C850.929 254.915 851.394 251.35 852.324 247.785C854.029 240.965 858.369 237.4 865.499 236.935C866.584 236.935 867.514 236.935 868.289 236.935C872.474 237.245 878.054 237.4 885.029 237.71C887.509 237.865 889.214 237.4 890.144 236.625C891.074 235.85 891.694 234.3 892.159 231.975C892.314 230.735 892.314 228.875 892.469 226.24C892.469 222.675 892.159 220.04 891.539 218.335C890.764 216.63 889.679 215.39 888.129 214.77C886.424 214.15 883.789 213.84 880.224 213.84C878.054 213.84 864.569 213.84 839.924 213.84C833.879 213.84 830.624 213.84 830.314 213.84Z" fill="#35292B"/>
<path d="M23.776 178.944C22.551 179.826 20.689 180.218 18.239 180.12C16.279 180.071 14.613 179.14 13.241 177.376C12.408 176.347 12.065 174.828 12.065 172.819C12.065 172.133 11.967 171.692 11.722 171.447C11.477 171.202 11.036 171.055 10.399 171.055C8.97796 171.006 7.55696 171.006 6.08696 171.055C5.59696 171.055 5.20496 171.104 4.91096 171.251C4.61696 171.398 4.42096 171.643 4.37196 171.937C4.27396 172.231 4.27396 172.623 4.32296 173.064C4.66596 175.171 5.00896 176.641 5.35196 177.523C7.01796 182.325 10.301 185.265 15.103 186.245C15.985 186.441 17.749 186.588 20.346 186.686C23.139 186.784 25.981 185.804 28.872 183.697C31.518 181.786 33.086 179.287 33.674 176.249C34.017 174.534 34.213 172.721 34.262 170.761C34.36 168.654 34.36 166.792 34.311 165.126C34.262 163.46 34.262 161.598 34.311 159.491C34.36 157.433 34.507 155.522 34.752 153.856C34.801 153.366 34.703 152.974 34.458 152.68C34.164 152.386 33.772 152.19 33.184 152.19C31.42 152.092 29.754 152.092 28.137 152.19C26.961 152.239 26.471 152.925 26.667 154.248C26.863 155.62 26.961 156.355 26.961 156.453C27.01 157.58 27.108 161.549 27.304 168.458C27.108 171.741 27.01 173.505 26.961 173.848C26.667 175.955 25.638 177.67 23.776 178.944Z" fill="#35292B"/>
<path d="M50.8278 185.951C53.4248 186.686 56.1198 186.882 58.8148 186.49C62.3918 186.049 65.4298 184.824 67.8798 182.717C70.3788 180.659 71.9958 177.964 72.7308 174.534C73.4168 171.447 73.5148 168.36 72.9758 165.273C72.3878 161.549 71.2118 158.609 69.5458 156.404C66.6058 152.631 62.6858 150.818 57.7858 151.014C54.4538 151.112 51.3668 152.092 48.4758 153.856C45.2908 155.914 42.9878 158.56 41.4688 161.794C40.6358 163.656 40.0968 166.155 39.8518 169.242C39.7048 171.006 39.8028 172.672 40.0478 174.289C40.1458 174.779 40.2438 175.22 40.3418 175.612C41.9098 180.953 45.3888 184.383 50.8278 185.951ZM54.2088 180.169C51.6608 179.581 49.8478 177.915 48.7208 175.269C47.9368 173.505 47.6918 171.447 47.8388 169.095C48.1328 165.42 49.0148 162.676 50.4358 160.765C52.5428 158.07 55.1398 156.992 58.2758 157.482C60.5298 157.874 62.2938 159.295 63.5678 161.745C64.6458 163.754 65.0868 166.008 65.0378 168.409C65.0378 168.801 65.0378 169.193 65.0378 169.683C65.1848 172.966 63.9598 175.759 61.4118 178.111C59.1578 180.12 56.7568 180.806 54.2088 180.169Z" fill="#35292B"/>
<path d="M89.2583 152.925C84.1623 152.925 81.3203 152.925 80.8303 152.974C79.8503 152.974 79.2133 153.121 78.9683 153.464C78.6743 153.758 78.6743 154.395 78.9193 155.326C79.0663 156.012 79.1643 156.551 79.1643 156.943C79.4583 162.823 79.6053 166.596 79.6543 168.262C79.7523 171.251 79.7523 174.485 79.6543 178.111C79.6053 180.022 79.4583 181.737 79.2133 183.256C79.0173 184.481 79.0173 185.265 79.2623 185.559C79.5073 185.853 80.2913 186 81.5163 186C83.6233 186 86.7103 185.951 90.7283 185.902C94.7463 185.804 97.6863 185.804 99.5483 185.804C100.087 185.755 101.312 185.755 103.223 185.755C105.183 185.755 106.359 185.755 106.898 185.755C107.535 185.755 108.025 185.706 108.368 185.706C109.005 185.559 109.495 185.363 109.74 185.02C110.034 184.726 110.181 184.236 110.181 183.599C110.23 182.227 110.23 180.904 110.181 179.581C110.181 178.944 110.034 178.503 109.74 178.209C109.446 177.964 108.956 177.915 108.27 178.062C108.123 178.062 107.78 178.111 107.241 178.209C106.702 178.356 106.31 178.405 105.967 178.405C101.018 178.552 96.5103 178.65 92.3943 178.65C91.6593 178.699 90.8263 178.552 89.8953 178.258C89.6503 178.209 89.4053 178.111 89.1603 177.915C88.9153 177.768 88.7193 177.572 88.5723 177.327C88.4253 177.131 88.2783 176.886 88.1803 176.641C88.0823 176.396 88.0333 176.102 88.0333 175.808C88.0333 174.681 88.6213 173.897 89.7483 173.407C90.3853 173.113 91.0223 172.966 91.5123 172.966C91.6593 172.917 92.2963 172.917 93.3743 172.917C94.5013 172.917 95.0893 172.966 95.2363 172.966C98.9113 172.917 101.263 172.868 102.243 172.868C102.586 172.868 102.929 172.77 103.223 172.574C103.566 172.427 103.811 172.182 104.007 171.937C104.203 171.643 104.301 171.349 104.35 171.006C104.448 170.026 104.399 168.899 104.301 167.772C104.203 166.792 103.615 166.204 102.635 166.057C101.557 165.91 100.773 165.812 100.283 165.861C99.7443 165.861 98.7153 165.91 97.1963 165.959C95.6773 166.008 94.5503 166.057 93.7173 166.057C92.5903 166.008 91.3163 165.861 89.9933 165.518C88.7683 165.224 88.0823 164.489 88.0333 163.215C87.9353 161.892 88.4743 161.01 89.6503 160.618C90.7283 160.226 91.7573 160.03 92.7373 160.03C96.4613 159.981 100.234 159.981 104.056 160.03C104.938 160.03 106.31 160.226 108.074 160.52C108.76 160.667 109.25 160.618 109.593 160.422C109.887 160.226 110.083 159.785 110.132 159.099C110.23 157.678 110.23 156.257 110.083 154.836C110.034 154.15 109.838 153.66 109.544 153.415C109.201 153.121 108.711 152.925 108.025 152.827C107.633 152.778 106.849 152.729 105.673 152.778C105.428 152.778 105.085 152.827 104.595 152.876C104.154 152.925 103.762 152.925 103.517 152.925C102.39 152.925 95.4813 152.925 89.2583 152.925Z" fill="#35292B"/>
<path d="M118.511 150.132C118.462 149.005 117.776 148.417 116.6 148.319C116.11 148.319 115.62 148.319 115.228 148.368C114.15 148.515 113.513 149.152 113.366 150.279C113.366 150.328 113.366 152.778 113.366 152.827C113.464 154.297 114.248 155.081 115.669 155.13C116.453 155.179 117.139 154.983 117.629 154.64C118.119 154.297 118.462 153.709 118.511 152.974C118.609 152.043 118.609 151.112 118.511 150.132Z" fill="#35292B"/>
<path d="M123.833 157.384C123.147 158.462 122.706 159.687 122.51 161.01C122.363 162.382 122.51 163.705 123.049 165.126C123.539 166.498 124.421 167.625 125.646 168.458C127.263 169.585 128.831 170.271 130.448 170.614C131.722 170.957 134.074 171.349 137.504 171.888C139.072 172.182 140.346 172.721 141.375 173.554C142.306 174.338 142.796 175.318 142.845 176.543C142.894 177.719 142.453 178.748 141.522 179.532C140.591 180.365 139.464 180.855 138.239 180.953C135.25 181.247 132.653 180.806 130.35 179.777C129.615 179.434 128.586 178.944 127.263 178.307C125.94 177.67 125.009 177.229 124.421 176.935C122.853 176.2 121.971 176.69 121.824 178.356C121.775 179.63 121.775 180.953 121.873 182.276C121.922 182.962 122.069 183.452 122.314 183.746C122.559 183.991 123.049 184.236 123.784 184.383C125.891 184.824 127.851 185.314 129.517 185.755C135.152 187.176 140.346 186.98 145.001 185.216C148.088 184.138 150.195 182.178 151.371 179.385C152.351 177.082 152.449 174.926 151.616 172.868C150.783 170.761 149.117 169.193 146.569 168.115C145.736 167.772 143.972 167.282 141.228 166.645C140.591 166.498 139.709 166.351 138.435 166.106C137.21 165.91 136.328 165.763 135.838 165.616C134.613 165.371 133.584 164.783 132.751 163.803C131.967 162.921 131.673 161.843 131.869 160.618C132.016 159.344 132.653 158.462 133.633 157.874C135.152 156.992 136.671 156.649 138.288 156.894C140.591 157.188 142.698 157.825 144.511 158.805C146.03 159.589 147.108 160.128 147.647 160.373C149.656 161.206 150.734 160.52 150.832 158.364C150.832 157.58 150.832 156.698 150.832 155.718C150.783 154.885 150.636 154.346 150.391 154.003C150.097 153.709 149.607 153.464 148.774 153.366C148.627 153.317 148.431 153.268 148.137 153.219C147.843 153.17 147.647 153.17 147.451 153.121C147.255 153.072 147.059 153.023 146.814 152.974C146.618 152.925 146.373 152.827 146.177 152.778C144.021 151.798 140.934 151.259 136.867 151.161C135.25 151.112 133.143 151.504 130.546 152.337C127.606 153.219 125.401 154.885 123.833 157.384Z" fill="#35292B"/>
<path d="M181.83 176.788C181.83 176.249 181.879 175.808 181.879 175.465C181.879 175.073 181.928 174.681 181.977 174.338C182.222 173.064 182.81 172.231 183.79 171.839C184.819 171.447 185.848 171.643 186.926 172.378C187.318 172.672 187.661 172.966 187.955 173.26C188.69 174.093 189.768 175.22 191.091 176.739C192.414 178.209 193.345 179.238 193.884 179.826C195.354 181.394 196.187 182.962 196.432 184.53C196.579 185.461 197.216 185.951 198.343 185.951C200.107 186 201.773 186 203.39 185.951C204.027 185.951 204.468 185.804 204.713 185.51C204.958 185.167 205.056 184.677 205.007 183.991C204.664 180.61 204.419 178.062 204.37 176.347C204.321 175.661 204.37 174.681 204.468 173.358C204.517 172.084 204.566 171.251 204.566 170.81C204.615 168.311 204.713 163.117 204.811 155.179C204.811 154.591 204.713 154.15 204.468 153.905C204.272 153.611 203.831 153.513 203.292 153.513C201.577 153.415 199.96 153.415 198.392 153.513C197.951 153.513 197.657 153.562 197.412 153.709C197.216 153.856 197.069 154.052 196.971 154.297C196.922 154.591 196.922 154.934 196.971 155.326C196.971 155.571 197.069 155.963 197.118 156.453C197.216 156.943 197.265 157.384 197.314 157.727C197.363 158.119 197.412 158.462 197.412 158.805C197.412 161.794 197.363 163.999 197.167 165.469C196.971 167.135 195.893 167.919 193.982 167.821C193.1 167.772 192.316 167.38 191.581 166.547C189.425 164.195 187.171 161.647 184.819 158.903C183.839 157.776 183.251 156.551 183.104 155.179C183.006 154.591 182.761 154.15 182.467 153.905C182.124 153.611 181.634 153.464 180.948 153.464C179.527 153.415 177.959 153.415 176.195 153.464C175.411 153.464 174.872 153.611 174.627 153.905C174.382 154.199 174.284 154.738 174.382 155.571C174.578 157.286 174.725 158.952 174.774 160.569C174.97 164.146 175.019 166.694 175.019 168.115C175.019 169.193 175.019 170.859 175.068 173.064C175.117 175.318 175.117 177.327 175.068 179.042C175.019 180.757 174.872 182.423 174.627 183.991C174.431 185.265 174.97 185.902 176.293 185.951C177.812 186.049 179.282 186.049 180.703 185.951C181.242 185.951 181.634 185.902 181.879 185.755C182.124 185.608 182.32 185.412 182.369 185.118C182.418 184.824 182.418 184.383 182.369 183.893C182.32 183.501 182.32 183.109 182.271 182.717C182.222 182.276 182.173 181.835 182.124 181.443C182.124 181.051 182.075 180.659 182.026 180.267C182.026 179.875 181.977 179.483 181.928 179.042C181.879 178.65 181.83 178.209 181.83 177.866C181.83 177.621 181.83 177.278 181.83 176.788Z" fill="#35292B"/>
<path d="M221.855 152.925C216.759 152.925 213.917 152.925 213.427 152.974C212.447 152.974 211.81 153.121 211.565 153.464C211.271 153.758 211.271 154.395 211.516 155.326C211.663 156.012 211.761 156.551 211.761 156.943C212.055 162.823 212.202 166.596 212.251 168.262C212.349 171.251 212.349 174.485 212.251 178.111C212.202 180.022 212.055 181.737 211.81 183.256C211.614 184.481 211.614 185.265 211.859 185.559C212.104 185.853 212.888 186 214.113 186C216.22 186 219.307 185.951 223.325 185.902C227.343 185.804 230.283 185.804 232.145 185.804C232.684 185.755 233.909 185.755 235.82 185.755C237.78 185.755 238.956 185.755 239.495 185.755C240.132 185.755 240.622 185.706 240.965 185.706C241.602 185.559 242.092 185.363 242.337 185.02C242.631 184.726 242.778 184.236 242.778 183.599C242.827 182.227 242.827 180.904 242.778 179.581C242.778 178.944 242.631 178.503 242.337 178.209C242.043 177.964 241.553 177.915 240.867 178.062C240.72 178.062 240.377 178.111 239.838 178.209C239.299 178.356 238.907 178.405 238.564 178.405C233.615 178.552 229.107 178.65 224.991 178.65C224.256 178.699 223.423 178.552 222.492 178.258C222.247 178.209 222.002 178.111 221.757 177.915C221.512 177.768 221.316 177.572 221.169 177.327C221.022 177.131 220.875 176.886 220.777 176.641C220.679 176.396 220.63 176.102 220.63 175.808C220.63 174.681 221.218 173.897 222.345 173.407C222.982 173.113 223.619 172.966 224.109 172.966C224.256 172.917 224.893 172.917 225.971 172.917C227.098 172.917 227.686 172.966 227.833 172.966C231.508 172.917 233.86 172.868 234.84 172.868C235.183 172.868 235.526 172.77 235.82 172.574C236.163 172.427 236.408 172.182 236.604 171.937C236.8 171.643 236.898 171.349 236.947 171.006C237.045 170.026 236.996 168.899 236.898 167.772C236.8 166.792 236.212 166.204 235.232 166.057C234.154 165.91 233.37 165.812 232.88 165.861C232.341 165.861 231.312 165.91 229.793 165.959C228.274 166.008 227.147 166.057 226.314 166.057C225.187 166.008 223.913 165.861 222.59 165.518C221.365 165.224 220.679 164.489 220.63 163.215C220.532 161.892 221.071 161.01 222.247 160.618C223.325 160.226 224.354 160.03 225.334 160.03C229.058 159.981 232.831 159.981 236.653 160.03C237.535 160.03 238.907 160.226 240.671 160.52C241.357 160.667 241.847 160.618 242.19 160.422C242.484 160.226 242.68 159.785 242.729 159.099C242.827 157.678 242.827 156.257 242.68 154.836C242.631 154.15 242.435 153.66 242.141 153.415C241.798 153.121 241.308 152.925 240.622 152.827C240.23 152.778 239.446 152.729 238.27 152.778C238.025 152.778 237.682 152.827 237.192 152.876C236.751 152.925 236.359 152.925 236.114 152.925C234.987 152.925 228.078 152.925 221.855 152.925Z" fill="#35292B"/>
<path d="M247.972 152.778C247.874 152.778 247.727 152.778 247.629 152.778C246.404 152.974 245.963 153.66 246.404 154.836C246.404 154.934 246.551 155.277 246.747 155.816C246.943 156.355 247.09 156.747 247.188 157.041C249.736 166.4 251.696 173.554 253.019 178.601C253.411 179.973 253.705 181.639 253.999 183.55C254.048 183.991 254.146 184.334 254.244 184.579C254.293 184.824 254.44 185.069 254.636 185.265C254.832 185.461 255.077 185.608 255.322 185.657C255.616 185.755 255.91 185.804 256.302 185.804C258.066 185.853 260.026 185.853 262.231 185.804C262.868 185.804 263.309 185.657 263.554 185.412C263.848 185.167 264.093 184.726 264.24 184.089C264.24 183.942 264.289 183.697 264.338 183.403C264.338 183.109 264.387 182.913 264.387 182.864C264.828 179.728 265.514 177.131 266.543 174.975C267.033 174.044 267.719 173.505 268.699 173.407C269.63 173.309 270.463 173.701 271.1 174.534C271.492 175.122 271.786 175.71 271.933 176.396C272.472 178.748 272.962 181.198 273.501 183.746C273.697 185.02 274.285 185.657 275.216 185.755C277.666 185.951 279.724 186 281.439 186C282.272 186 282.909 185.804 283.301 185.412C283.693 185.02 283.938 184.432 284.036 183.55C284.183 182.374 284.281 181.59 284.379 181.198C286.045 174.828 287.319 170.124 288.103 167.184C288.446 166.008 288.838 164.685 289.23 163.313C289.622 161.99 290.063 160.471 290.553 158.805C291.043 157.139 291.386 155.865 291.68 154.934C291.827 154.346 291.827 153.905 291.68 153.611C291.484 153.268 291.092 153.072 290.504 153.023C289.328 152.876 288.054 152.778 286.584 152.778C285.261 152.729 284.477 152.876 284.134 153.219C283.791 153.513 283.546 154.346 283.301 155.62C283.105 156.894 282.566 159.393 281.635 163.117C281.537 163.607 281.292 164.146 280.9 164.734C280.41 165.469 279.724 165.861 278.891 165.861C278.058 165.91 277.372 165.616 276.833 164.93C276.343 164.244 276 163.558 275.853 162.872C275.363 160.765 274.775 158.119 274.187 154.983C273.991 153.758 273.354 153.121 272.423 153.072C269.924 152.876 267.964 152.778 266.494 152.778C265.563 152.778 264.926 152.974 264.583 153.268C264.191 153.611 263.897 154.248 263.701 155.179C263.26 157.482 262.819 159.589 262.329 161.598C262.182 162.235 261.888 162.921 261.496 163.705C260.908 164.832 260.173 165.371 259.193 165.322C258.066 165.322 257.233 164.734 256.743 163.656C256.204 162.529 255.861 161.5 255.616 160.52C255.616 160.422 255.273 158.56 254.636 154.934C254.538 154.248 254.342 153.758 254.097 153.464C253.852 153.219 253.362 153.023 252.676 152.925C252.529 152.876 248.168 152.778 247.972 152.778Z" fill="#35292B"/>
<path d="M316.093 152.974C315.407 152.974 314.917 152.974 314.672 153.023C313.545 153.17 313.006 153.856 313.153 154.983C313.202 155.277 313.251 155.914 313.398 156.845C313.496 157.776 313.594 158.56 313.692 159.197C313.741 159.834 313.741 160.471 313.692 161.059C313.692 162.676 313.741 165.126 313.79 168.311C313.888 171.496 313.888 174.387 313.839 176.935C313.79 179.483 313.643 181.933 313.398 184.236C313.251 185.314 313.692 185.902 314.721 186C316.681 186.049 318.396 186.049 319.915 185.951C320.503 185.902 320.895 185.706 321.14 185.363C321.385 185.02 321.483 184.53 321.434 183.844C321.238 181.051 321.14 178.944 321.14 177.572C321.14 176.249 321.532 175.22 322.267 174.387C323.002 173.603 324.08 173.113 325.354 172.966C325.746 172.917 326.236 172.917 326.873 172.917C327.216 172.917 328.343 172.917 330.303 172.917C332.263 172.917 333.782 172.917 334.86 172.917C335.742 172.868 336.428 172.77 336.869 172.672C337.604 172.427 338.045 172.084 338.241 171.692C338.78 170.124 338.78 168.507 338.241 166.841C338.143 166.596 337.751 166.302 337.114 166.057C336.771 165.91 336.33 165.861 335.791 165.861C335.35 165.861 334.272 165.91 332.557 165.959C330.842 165.959 329.568 166.008 328.637 166.008C327.363 166.008 325.942 165.861 324.325 165.616C323.884 165.567 323.345 165.322 322.806 164.881C322.218 164.391 321.924 163.803 321.924 163.117C321.875 162.48 322.169 161.843 322.806 161.353C323.247 160.912 323.786 160.569 324.374 160.422C325.501 160.177 326.53 160.079 327.51 160.079C331.577 159.981 335.203 159.981 338.339 160.079C339.417 160.079 340.74 160.226 342.308 160.52C343.092 160.667 343.582 160.618 343.876 160.471C344.121 160.324 344.317 159.883 344.415 159.148C344.415 158.805 344.415 157.482 344.317 155.277C344.268 154.542 344.121 153.954 343.827 153.611C343.533 153.268 342.994 152.974 342.259 152.827C341.769 152.729 341.181 152.729 340.642 152.729C340.201 152.729 339.368 152.778 338.094 152.827C336.869 152.876 335.889 152.925 335.252 152.925C334.664 152.974 331.577 152.974 325.893 152.974C320.503 152.974 317.22 152.974 316.093 152.974Z" fill="#35292B"/>
<path d="M349.098 174.681C349.343 177.719 350.372 180.267 352.185 182.374C354.047 184.481 356.399 185.951 359.29 186.735C362.965 187.715 366.542 187.568 369.923 186.245C374.774 184.334 377.665 181.002 378.596 176.249C379.135 173.652 379.331 170.957 379.184 168.115C379.037 166.204 378.988 164.048 378.988 161.647C378.988 159.246 379.135 157.09 379.478 155.13C379.625 154.248 379.576 153.611 379.282 153.268C379.037 152.974 378.449 152.778 377.518 152.778C376.195 152.729 374.823 152.729 373.353 152.778C372.569 152.778 372.079 152.925 371.834 153.219C371.54 153.513 371.491 154.101 371.589 154.885C371.834 157.482 371.981 158.903 371.981 159.295C372.03 163.656 372.03 167.968 371.981 172.28C371.981 175.906 370.266 178.699 366.934 180.659C364.484 182.08 362.034 181.933 359.584 180.267C357.673 178.993 356.546 177.033 356.203 174.338C355.762 170.908 355.713 166.302 356.056 160.569C356.056 159.785 356.154 158.658 356.252 157.139C356.301 155.62 356.399 154.689 356.399 154.297C356.448 153.415 356.105 152.925 355.419 152.876C353.116 152.68 351.156 152.631 349.686 152.631C348.706 152.68 348.265 153.268 348.363 154.444C348.412 155.424 348.461 156.551 348.461 157.825C348.461 159.099 348.51 160.373 348.559 161.647C348.559 162.921 348.608 164.048 348.657 165.028C348.951 171.104 349.049 174.289 349.098 174.681Z" fill="#35292B"/>
<path d="M414.56 185.804C415.393 185.755 416.03 185.559 416.373 185.216C416.765 184.824 416.961 184.236 416.961 183.403C416.961 182.423 416.912 181.247 416.765 179.826C416.667 178.993 416.471 178.454 416.226 178.258C415.932 178.062 415.344 178.013 414.462 178.16C412.012 178.503 410.199 178.65 408.974 178.699C406.72 178.748 403.388 178.748 399.027 178.699C398.194 178.699 397.312 178.601 396.381 178.307C394.666 177.915 393.637 176.837 393.294 175.024C393.098 173.799 393 172.77 393 171.888C393.049 169.046 393.147 164.391 393.245 157.923C393.245 157.09 393.294 156.208 393.392 155.277C393.49 154.493 393.392 153.954 393.098 153.562C392.853 153.219 392.314 153.072 391.53 153.023C390.207 152.974 388.737 152.925 387.12 152.974C386.679 153.023 386.336 153.072 386.091 153.219C385.895 153.317 385.699 153.513 385.601 153.807C385.503 154.052 385.503 154.444 385.552 154.885C385.552 154.934 385.601 155.424 385.748 156.306C385.846 157.188 385.895 157.825 385.895 158.266C386.042 163.019 386.14 168.311 386.189 174.142C386.189 174.387 386.14 174.926 386.042 175.661C385.993 176.445 385.993 176.984 386.042 177.376C386.238 179.532 386.189 181.835 385.797 184.187C385.699 184.677 385.748 185.069 385.944 185.314C386.189 185.559 386.532 185.706 387.071 185.804C388.541 185.951 389.619 186 390.354 186C391.922 186 393.539 185.951 395.156 185.951C396.773 185.902 398.831 185.853 401.33 185.804C403.78 185.755 405.397 185.755 406.083 185.755V185.804C411.228 185.804 414.07 185.804 414.56 185.804Z" fill="#35292B"/>
<path d="M450.21 185.804C451.043 185.755 451.68 185.559 452.023 185.216C452.415 184.824 452.611 184.236 452.611 183.403C452.611 182.423 452.562 181.247 452.415 179.826C452.317 178.993 452.121 178.454 451.876 178.258C451.582 178.062 450.994 178.013 450.112 178.16C447.662 178.503 445.849 178.65 444.624 178.699C442.37 178.748 439.038 178.748 434.677 178.699C433.844 178.699 432.962 178.601 432.031 178.307C430.316 177.915 429.287 176.837 428.944 175.024C428.748 173.799 428.65 172.77 428.65 171.888C428.699 169.046 428.797 164.391 428.895 157.923C428.895 157.09 428.944 156.208 429.042 155.277C429.14 154.493 429.042 153.954 428.748 153.562C428.503 153.219 427.964 153.072 427.18 153.023C425.857 152.974 424.387 152.925 422.77 152.974C422.329 153.023 421.986 153.072 421.741 153.219C421.545 153.317 421.349 153.513 421.251 153.807C421.153 154.052 421.153 154.444 421.202 154.885C421.202 154.934 421.251 155.424 421.398 156.306C421.496 157.188 421.545 157.825 421.545 158.266C421.692 163.019 421.79 168.311 421.839 174.142C421.839 174.387 421.79 174.926 421.692 175.661C421.643 176.445 421.643 176.984 421.692 177.376C421.888 179.532 421.839 181.835 421.447 184.187C421.349 184.677 421.398 185.069 421.594 185.314C421.839 185.559 422.182 185.706 422.721 185.804C424.191 185.951 425.269 186 426.004 186C427.572 186 429.189 185.951 430.806 185.951C432.423 185.902 434.481 185.853 436.98 185.804C439.43 185.755 441.047 185.755 441.733 185.755V185.804C446.878 185.804 449.72 185.804 450.21 185.804Z" fill="#35292B"/>
<path d="M502.703 185.804C503.536 185.755 504.173 185.559 504.516 185.216C504.908 184.824 505.104 184.236 505.104 183.403C505.104 182.423 505.055 181.247 504.908 179.826C504.81 178.993 504.614 178.454 504.369 178.258C504.075 178.062 503.487 178.013 502.605 178.16C500.155 178.503 498.342 178.65 497.117 178.699C494.863 178.748 491.531 178.748 487.17 178.699C486.337 178.699 485.455 178.601 484.524 178.307C482.809 177.915 481.78 176.837 481.437 175.024C481.241 173.799 481.143 172.77 481.143 171.888C481.192 169.046 481.29 164.391 481.388 157.923C481.388 157.09 481.437 156.208 481.535 155.277C481.633 154.493 481.535 153.954 481.241 153.562C480.996 153.219 480.457 153.072 479.673 153.023C478.35 152.974 476.88 152.925 475.263 152.974C474.822 153.023 474.479 153.072 474.234 153.219C474.038 153.317 473.842 153.513 473.744 153.807C473.646 154.052 473.646 154.444 473.695 154.885C473.695 154.934 473.744 155.424 473.891 156.306C473.989 157.188 474.038 157.825 474.038 158.266C474.185 163.019 474.283 168.311 474.332 174.142C474.332 174.387 474.283 174.926 474.185 175.661C474.136 176.445 474.136 176.984 474.185 177.376C474.381 179.532 474.332 181.835 473.94 184.187C473.842 184.677 473.891 185.069 474.087 185.314C474.332 185.559 474.675 185.706 475.214 185.804C476.684 185.951 477.762 186 478.497 186C480.065 186 481.682 185.951 483.299 185.951C484.916 185.902 486.974 185.853 489.473 185.804C491.923 185.755 493.54 185.755 494.226 185.755V185.804C499.371 185.804 502.213 185.804 502.703 185.804Z" fill="#35292B"/>
<path d="M519.683 152.925C514.587 152.925 511.745 152.925 511.255 152.974C510.275 152.974 509.638 153.121 509.393 153.464C509.099 153.758 509.099 154.395 509.344 155.326C509.491 156.012 509.589 156.551 509.589 156.943C509.883 162.823 510.03 166.596 510.079 168.262C510.177 171.251 510.177 174.485 510.079 178.111C510.03 180.022 509.883 181.737 509.638 183.256C509.442 184.481 509.442 185.265 509.687 185.559C509.932 185.853 510.716 186 511.941 186C514.048 186 517.135 185.951 521.153 185.902C525.171 185.804 528.111 185.804 529.973 185.804C530.512 185.755 531.737 185.755 533.648 185.755C535.608 185.755 536.784 185.755 537.323 185.755C537.96 185.755 538.45 185.706 538.793 185.706C539.43 185.559 539.92 185.363 540.165 185.02C540.459 184.726 540.606 184.236 540.606 183.599C540.655 182.227 540.655 180.904 540.606 179.581C540.606 178.944 540.459 178.503 540.165 178.209C539.871 177.964 539.381 177.915 538.695 178.062C538.548 178.062 538.205 178.111 537.666 178.209C537.127 178.356 536.735 178.405 536.392 178.405C531.443 178.552 526.935 178.65 522.819 178.65C522.084 178.699 521.251 178.552 520.32 178.258C520.075 178.209 519.83 178.111 519.585 177.915C519.34 177.768 519.144 177.572 518.997 177.327C518.85 177.131 518.703 176.886 518.605 176.641C518.507 176.396 518.458 176.102 518.458 175.808C518.458 174.681 519.046 173.897 520.173 173.407C520.81 173.113 521.447 172.966 521.937 172.966C522.084 172.917 522.721 172.917 523.799 172.917C524.926 172.917 525.514 172.966 525.661 172.966C529.336 172.917 531.688 172.868 532.668 172.868C533.011 172.868 533.354 172.77 533.648 172.574C533.991 172.427 534.236 172.182 534.432 171.937C534.628 171.643 534.726 171.349 534.775 171.006C534.873 170.026 534.824 168.899 534.726 167.772C534.628 166.792 534.04 166.204 533.06 166.057C531.982 165.91 531.198 165.812 530.708 165.861C530.169 165.861 529.14 165.91 527.621 165.959C526.102 166.008 524.975 166.057 524.142 166.057C523.015 166.008 521.741 165.861 520.418 165.518C519.193 165.224 518.507 164.489 518.458 163.215C518.36 161.892 518.899 161.01 520.075 160.618C521.153 160.226 522.182 160.03 523.162 160.03C526.886 159.981 530.659 159.981 534.481 160.03C535.363 160.03 536.735 160.226 538.499 160.52C539.185 160.667 539.675 160.618 540.018 160.422C540.312 160.226 540.508 159.785 540.557 159.099C540.655 157.678 540.655 156.257 540.508 154.836C540.459 154.15 540.263 153.66 539.969 153.415C539.626 153.121 539.136 152.925 538.45 152.827C538.058 152.778 537.274 152.729 536.098 152.778C535.853 152.778 535.51 152.827 535.02 152.876C534.579 152.925 534.187 152.925 533.942 152.925C532.815 152.925 525.906 152.925 519.683 152.925Z" fill="#35292B"/>
<path d="M553.493 176.788C553.493 176.249 553.542 175.808 553.542 175.465C553.542 175.073 553.591 174.681 553.64 174.338C553.885 173.064 554.473 172.231 555.453 171.839C556.482 171.447 557.511 171.643 558.589 172.378C558.981 172.672 559.324 172.966 559.618 173.26C560.353 174.093 561.431 175.22 562.754 176.739C564.077 178.209 565.008 179.238 565.547 179.826C567.017 181.394 567.85 182.962 568.095 184.53C568.242 185.461 568.879 185.951 570.006 185.951C571.77 186 573.436 186 575.053 185.951C575.69 185.951 576.131 185.804 576.376 185.51C576.621 185.167 576.719 184.677 576.67 183.991C576.327 180.61 576.082 178.062 576.033 176.347C575.984 175.661 576.033 174.681 576.131 173.358C576.18 172.084 576.229 171.251 576.229 170.81C576.278 168.311 576.376 163.117 576.474 155.179C576.474 154.591 576.376 154.15 576.131 153.905C575.935 153.611 575.494 153.513 574.955 153.513C573.24 153.415 571.623 153.415 570.055 153.513C569.614 153.513 569.32 153.562 569.075 153.709C568.879 153.856 568.732 154.052 568.634 154.297C568.585 154.591 568.585 154.934 568.634 155.326C568.634 155.571 568.732 155.963 568.781 156.453C568.879 156.943 568.928 157.384 568.977 157.727C569.026 158.119 569.075 158.462 569.075 158.805C569.075 161.794 569.026 163.999 568.83 165.469C568.634 167.135 567.556 167.919 565.645 167.821C564.763 167.772 563.979 167.38 563.244 166.547C561.088 164.195 558.834 161.647 556.482 158.903C555.502 157.776 554.914 156.551 554.767 155.179C554.669 154.591 554.424 154.15 554.13 153.905C553.787 153.611 553.297 153.464 552.611 153.464C551.19 153.415 549.622 153.415 547.858 153.464C547.074 153.464 546.535 153.611 546.29 153.905C546.045 154.199 545.947 154.738 546.045 155.571C546.241 157.286 546.388 158.952 546.437 160.569C546.633 164.146 546.682 166.694 546.682 168.115C546.682 169.193 546.682 170.859 546.731 173.064C546.78 175.318 546.78 177.327 546.731 179.042C546.682 180.757 546.535 182.423 546.29 183.991C546.094 185.265 546.633 185.902 547.956 185.951C549.475 186.049 550.945 186.049 552.366 185.951C552.905 185.951 553.297 185.902 553.542 185.755C553.787 185.608 553.983 185.412 554.032 185.118C554.081 184.824 554.081 184.383 554.032 183.893C553.983 183.501 553.983 183.109 553.934 182.717C553.885 182.276 553.836 181.835 553.787 181.443C553.787 181.051 553.738 180.659 553.689 180.267C553.689 179.875 553.64 179.483 553.591 179.042C553.542 178.65 553.493 178.209 553.493 177.866C553.493 177.621 553.493 177.278 553.493 176.788Z" fill="#35292B"/>
<path d="M604.935 186.539C605.964 186.196 606.65 186 607.14 185.902C609.051 185.461 610.521 185.167 611.599 185.02C612.481 184.971 613.069 184.824 613.363 184.579C613.608 184.334 613.804 183.795 613.853 183.011C614 181.002 614.098 178.258 614.196 174.681C614.196 173.652 613.657 173.064 612.579 172.966C612.236 172.917 611.403 172.917 610.178 172.917C608.708 172.917 607.826 173.015 607.532 173.26C607.287 173.505 607.14 174.387 607.14 175.857C607.189 177.817 606.405 179.287 604.788 180.218C604.004 180.708 603.171 181.002 602.387 181.149C598.369 181.982 594.988 180.708 592.391 177.327C590.774 175.318 589.892 172.917 589.745 170.075C589.549 167.233 590.186 164.685 591.558 162.382C593.469 159.197 596.115 157.384 599.447 156.894C601.456 156.6 603.514 156.943 605.572 157.874C608.022 158.952 609.982 160.324 611.501 161.941C612.138 162.676 612.726 162.872 613.216 162.578C613.755 162.235 614.049 161.745 614.147 161.059C614.294 159.54 614.392 157.874 614.392 156.061C614.441 155.669 614.441 155.375 614.343 155.13C614.294 154.885 614.196 154.689 614.049 154.542C613.902 154.395 613.755 154.248 613.51 154.15C613.314 154.052 613.02 153.954 612.677 153.856C610.619 153.317 608.904 152.827 607.483 152.337C604.151 151.21 601.015 150.916 598.173 151.357C594.988 151.896 591.95 153.366 589.059 155.816C587.001 157.58 585.482 159.295 584.551 161.01C582.297 164.979 581.611 169.389 582.493 174.191C583.228 178.111 585.188 181.247 588.471 183.648C591.558 185.951 595.38 187.176 599.986 187.323C600.133 187.323 600.427 187.323 600.819 187.323C601.211 187.323 601.554 187.274 601.848 187.274C602.142 187.274 602.436 187.225 602.73 187.176C603.22 187.029 603.955 186.833 604.935 186.539Z" fill="#35292B"/>
<path d="M631.58 153.072C625.308 153.072 621.829 153.072 621.094 153.072C620.457 153.072 619.918 153.17 619.477 153.366C619.085 153.562 618.791 153.856 618.595 154.248C618.35 154.64 618.252 155.228 618.203 155.914C618.105 156.845 618.105 157.825 618.203 158.805C618.203 159.393 618.35 159.834 618.644 160.079C618.938 160.275 619.379 160.373 619.967 160.324C620.163 160.324 620.604 160.226 621.29 160.128C621.927 160.079 622.466 160.03 622.858 160.03C625.014 159.932 626.484 159.981 627.219 160.079C627.905 160.226 628.493 160.471 628.983 160.765C629.473 161.108 629.914 161.549 630.208 162.039C630.551 162.578 630.698 163.166 630.796 163.901C631.09 167.135 631.237 169.683 631.188 171.545C631.188 172.77 631.09 176.984 630.845 184.138C630.747 185.167 631.09 185.706 631.776 185.804C634.128 185.951 635.843 186.049 637.019 185.951C637.754 185.951 638.195 185.755 638.44 185.412C638.636 185.118 638.685 184.53 638.587 183.746C638.293 181.541 638.146 179.973 638.097 179.14C638.048 175.612 638.048 171.643 638.097 167.135C638.097 166.057 638.244 164.93 638.538 163.803C639.077 161.647 640.449 160.52 642.703 160.373C643.046 160.373 643.34 160.373 643.585 160.373C644.908 160.471 646.672 160.52 648.877 160.618C649.661 160.667 650.2 160.52 650.494 160.275C650.788 160.03 650.984 159.54 651.131 158.805C651.18 158.413 651.18 157.825 651.229 156.992C651.229 155.865 651.131 155.032 650.935 154.493C650.69 153.954 650.347 153.562 649.857 153.366C649.318 153.17 648.485 153.072 647.358 153.072C646.672 153.072 642.409 153.072 634.618 153.072C632.707 153.072 631.678 153.072 631.58 153.072Z" fill="#35292B"/>
<path d="M672.291 173.26C673.173 173.309 673.859 173.358 674.3 173.407C675.819 173.652 676.946 174.191 677.632 174.926C678.318 175.661 678.71 176.837 678.759 178.356C678.808 179.189 678.759 181.051 678.563 183.991C678.514 184.628 678.563 185.069 678.71 185.363C678.857 185.608 679.151 185.755 679.592 185.804C681.552 186 683.316 186.049 684.884 185.951C685.276 185.951 685.57 185.902 685.815 185.755C686.011 185.559 686.158 185.363 686.207 185.118C686.305 184.824 686.305 184.481 686.256 184.089C685.913 179.532 685.717 176.739 685.717 175.661C685.668 173.211 685.717 167.625 685.913 158.903C685.913 157.972 686.011 156.698 686.158 155.13C686.305 153.905 685.815 153.219 684.688 153.121C682.924 152.974 681.454 152.876 680.278 152.876C679.396 152.876 678.808 153.072 678.563 153.415C678.269 153.758 678.22 154.395 678.318 155.326C678.514 157.972 678.563 160.177 678.416 161.99C678.367 163.166 678.024 164.048 677.436 164.685C676.848 165.371 675.966 165.763 674.741 165.959C671.948 166.449 669.645 166.547 667.783 166.253C666.754 166.057 665.872 165.763 665.284 165.371C664.647 165.028 664.157 164.489 663.814 163.852C663.471 163.166 663.324 162.333 663.226 161.304C663.226 160.961 663.177 160.667 663.177 160.422C663.324 157.825 663.471 156.012 663.52 154.983C663.618 153.856 663.226 153.219 662.344 153.17C660.286 152.925 658.62 152.827 657.346 152.876C656.562 152.925 656.023 153.121 655.729 153.464C655.435 153.807 655.337 154.395 655.435 155.179C655.68 157.727 655.827 159.099 655.827 159.344C656.023 165.567 656.121 170.075 656.121 172.966C656.121 173.407 656.121 174.583 656.17 176.396C656.17 178.258 656.17 179.777 656.121 180.904C656.072 182.08 655.974 183.256 655.729 184.383C655.68 184.726 655.729 185.069 655.876 185.363C656.072 185.608 656.317 185.755 656.66 185.804C659.012 185.951 660.923 186.049 662.344 186C662.834 186 663.177 185.804 663.373 185.51C663.618 185.167 663.667 184.775 663.618 184.236C663.569 183.991 663.52 183.697 663.471 183.354C663.373 183.011 663.324 182.766 663.324 182.619C662.932 180.022 662.883 178.062 663.177 176.739C663.667 174.877 664.745 173.799 666.509 173.554C666.705 173.505 668.077 173.407 670.625 173.113C670.625 173.162 672.193 173.26 672.291 173.26Z" fill="#35292B"/>
<path d="M738.463 185.902C739.688 185.706 740.08 185.02 739.541 183.795C736.944 177.621 735.278 173.603 734.494 171.741C734.053 170.663 732.681 167.135 730.378 161.157C730.329 161.01 730.182 160.618 729.937 159.981C729.692 159.344 729.496 158.903 729.447 158.658C729.349 158.413 729.251 158.07 729.055 157.531C728.908 156.992 728.81 156.551 728.712 156.159C728.614 155.718 728.565 155.326 728.565 154.885C728.516 154.444 728.369 154.052 728.124 153.709C727.879 153.415 727.536 153.219 727.095 153.219C724.596 153.023 722.538 152.925 720.97 152.974C720.284 153.023 719.794 153.219 719.451 153.562C719.157 153.905 718.912 154.444 718.765 155.13C718.569 156.453 718.324 157.482 718.03 158.217C715.678 164.293 713.816 169.046 712.395 172.525C711.758 174.044 710.19 177.719 707.642 183.501C707.299 184.236 707.25 184.775 707.397 185.118C707.544 185.412 708.034 185.657 708.867 185.755C709.161 185.755 710.484 185.853 712.885 185.951C714.453 186 715.482 185.265 715.972 183.746C716.609 181.982 717.834 181.051 719.745 180.953C721.166 180.904 723.714 180.953 727.389 181.1C729.251 181.198 730.574 182.129 731.309 183.991C731.652 185.02 732.387 185.559 733.465 185.706C733.612 185.706 734.641 185.804 736.601 186C737.14 186 737.777 185.951 738.463 185.902ZM724.498 168.164C724.792 168.262 725.086 168.409 725.282 168.605C725.527 168.801 725.723 168.997 725.87 169.242C726.017 169.487 726.164 169.781 726.262 170.075C726.311 170.418 726.36 170.761 726.36 171.104C726.36 171.937 726.066 172.672 725.576 173.211C725.086 173.75 724.4 174.044 723.616 174.044C722.783 174.044 722.097 173.799 721.607 173.211C721.068 172.672 720.823 171.937 720.823 171.006C720.823 170.418 720.921 169.928 721.166 169.487C721.411 168.997 721.754 168.654 722.146 168.409C722.587 168.164 723.077 168.017 723.616 168.017C723.91 168.017 724.204 168.066 724.498 168.164Z" fill="#35292B"/>
<path d="M772.92 185.804C773.753 185.755 774.39 185.559 774.733 185.216C775.125 184.824 775.321 184.236 775.321 183.403C775.321 182.423 775.272 181.247 775.125 179.826C775.027 178.993 774.831 178.454 774.586 178.258C774.292 178.062 773.705 178.013 772.823 178.16C770.373 178.503 768.559 178.65 767.334 178.699C765.08 178.748 761.748 178.748 757.387 178.699C756.554 178.699 755.672 178.601 754.741 178.307C753.026 177.915 751.997 176.837 751.654 175.024C751.458 173.799 751.36 172.77 751.36 171.888C751.409 169.046 751.507 164.391 751.605 157.923C751.605 157.09 751.655 156.208 751.753 155.277C751.851 154.493 751.752 153.954 751.458 153.562C751.213 153.219 750.675 153.072 749.891 153.023C748.568 152.974 747.097 152.925 745.48 152.974C745.039 153.023 744.696 153.072 744.451 153.219C744.255 153.317 744.059 153.513 743.961 153.807C743.863 154.052 743.863 154.444 743.912 154.885C743.912 154.934 743.961 155.424 744.108 156.306C744.206 157.188 744.255 157.825 744.255 158.266C744.402 163.019 744.5 168.311 744.549 174.142C744.549 174.387 744.5 174.926 744.402 175.661C744.353 176.445 744.353 176.984 744.402 177.376C744.598 179.532 744.549 181.835 744.157 184.187C744.059 184.677 744.109 185.069 744.305 185.314C744.55 185.559 744.892 185.706 745.431 185.804C746.901 185.951 747.979 186 748.714 186C750.282 186 751.899 185.951 753.516 185.951C755.133 185.902 757.191 185.853 759.69 185.804C762.14 185.755 763.757 185.755 764.443 185.755V185.804C769.588 185.804 772.43 185.804 772.92 185.804Z" fill="#35292B"/>
<path d="M785.834 152.68C783.041 152.68 781.424 152.729 781.081 152.729C780.591 152.729 780.248 152.827 779.954 152.974C779.709 153.121 779.562 153.366 779.464 153.66C779.415 153.954 779.415 154.346 779.513 154.836C779.856 156.404 780.003 157.482 780.003 158.021C780.101 161.941 780.199 167.674 780.297 175.318C780.346 179.238 780.15 182.178 779.66 184.089C779.415 185.216 779.905 185.853 781.13 185.951C781.424 186 781.914 186 782.502 186C782.992 186 784.756 186 787.794 185.951C790.832 185.853 793.135 185.804 794.752 185.804C795.585 185.755 796.712 185.755 798.182 185.755C799.652 185.755 800.828 185.755 801.661 185.755C803.082 185.706 804.405 185.559 805.63 185.265C806.806 184.922 807.982 184.481 809.011 183.844C810.677 182.815 811.804 181.492 812.392 179.924C812.98 178.356 812.98 176.641 812.343 174.828C811.951 173.701 811.363 172.623 810.677 171.594C809.354 169.585 809.256 167.527 810.481 165.42C810.824 164.783 811.167 163.999 811.51 163.117C812.294 161.059 812.196 159.099 811.167 157.286C810.187 155.424 808.619 154.248 806.463 153.709C804.552 153.268 802.102 152.925 799.26 152.729C798.427 152.68 797.594 152.631 796.712 152.631C795.781 152.631 794.752 152.631 793.576 152.68C792.449 152.68 791.567 152.68 791.028 152.68C787.794 152.68 786.079 152.68 785.834 152.68ZM788.48 162.97C788.48 161.892 789.117 161.108 790.342 160.52C790.93 160.226 791.714 160.079 792.645 160.079C794.311 159.981 795.879 159.981 797.398 160.079C797.888 160.079 798.623 160.226 799.603 160.52C800.583 160.863 801.122 161.598 801.22 162.725C801.269 163.901 800.828 164.685 799.848 165.077C799.113 165.322 798.084 165.567 796.663 165.763C795.879 165.91 795.144 165.959 794.409 165.959C794.164 165.91 793.723 165.91 793.184 165.861C792.645 165.812 792.155 165.763 791.763 165.714C791.322 165.665 790.93 165.567 790.587 165.469C789.166 165.126 788.48 164.293 788.48 162.97ZM791.42 178.356C790.636 178.209 789.999 177.866 789.509 177.376C788.97 176.886 788.725 176.298 788.676 175.661C788.676 175.073 788.921 174.485 789.46 173.995C789.95 173.456 790.587 173.162 791.42 172.966C793.625 172.525 795.977 172.525 798.427 172.966C800.289 173.358 801.22 174.24 801.22 175.661C801.22 176.396 800.926 176.984 800.387 177.474C799.799 177.964 799.113 178.258 798.231 178.356C797.741 178.454 796.614 178.454 794.948 178.454C793.527 178.454 792.694 178.454 792.547 178.454C792.106 178.454 791.714 178.405 791.42 178.356Z" fill="#35292B"/>
<path d="M818.857 174.681C819.102 177.719 820.131 180.267 821.944 182.374C823.806 184.481 826.158 185.951 829.049 186.735C832.724 187.715 836.301 187.568 839.682 186.245C844.533 184.334 847.424 181.002 848.355 176.249C848.894 173.652 849.09 170.957 848.943 168.115C848.796 166.204 848.747 164.048 848.747 161.647C848.747 159.246 848.894 157.09 849.237 155.13C849.384 154.248 849.335 153.611 849.041 153.268C848.796 152.974 848.208 152.778 847.277 152.778C845.954 152.729 844.582 152.729 843.112 152.778C842.328 152.778 841.838 152.925 841.593 153.219C841.299 153.513 841.25 154.101 841.348 154.885C841.593 157.482 841.74 158.903 841.74 159.295C841.789 163.656 841.789 167.968 841.74 172.28C841.74 175.906 840.025 178.699 836.693 180.659C834.243 182.08 831.793 181.933 829.343 180.267C827.432 178.993 826.305 177.033 825.962 174.338C825.521 170.908 825.472 166.302 825.815 160.569C825.815 159.785 825.913 158.658 826.011 157.139C826.06 155.62 826.158 154.689 826.158 154.297C826.207 153.415 825.864 152.925 825.178 152.876C822.875 152.68 820.915 152.631 819.445 152.631C818.465 152.68 818.024 153.268 818.122 154.444C818.171 155.424 818.22 156.551 818.22 157.825C818.22 159.099 818.269 160.373 818.318 161.647C818.318 162.921 818.367 164.048 818.416 165.028C818.71 171.104 818.808 174.289 818.857 174.681Z" fill="#35292B"/>
<path d="M857.075 152.925C856.242 152.974 855.703 153.121 855.458 153.415C855.213 153.709 855.164 154.297 855.311 155.13C855.507 156.257 855.654 156.943 855.654 157.139C855.801 160.863 855.85 163.607 855.899 165.42C855.948 169.193 855.948 172.917 855.899 176.69C855.899 178.699 855.801 181.051 855.654 183.746C855.605 184.53 855.703 185.069 855.948 185.363C856.242 185.706 856.732 185.902 857.516 185.951C858.888 186.049 860.358 186.049 861.877 185.951C862.514 185.951 862.955 185.755 863.151 185.461C863.396 185.167 863.445 184.726 863.347 184.04C863.347 183.844 863.347 183.599 863.249 183.256C863.2 182.913 863.151 182.668 863.102 182.521C862.563 178.993 862.563 175.906 863.004 173.358C863.298 172.084 863.935 171.251 864.964 170.908C865.944 170.565 866.973 170.859 867.953 171.741C868.394 172.084 868.884 172.574 869.423 173.26C869.668 173.603 870.011 174.093 870.55 174.779C871.04 175.416 871.432 175.955 871.677 176.298C872.167 176.935 872.608 177.229 873.049 177.278C873.441 177.278 873.931 176.984 874.47 176.445C874.666 176.2 874.862 175.906 875.107 175.612C875.352 175.269 875.597 174.975 875.891 174.632C876.136 174.289 876.332 173.995 876.528 173.75C877.557 172.623 878.292 171.839 878.831 171.447C879.517 170.957 880.252 170.81 880.938 171.006C881.673 171.153 882.212 171.594 882.604 172.329C882.898 172.868 883.094 173.407 883.143 173.995C883.584 177.817 883.584 181.149 883.094 183.942C882.947 184.628 883.045 185.118 883.29 185.412C883.584 185.755 884.074 185.951 884.76 185.951C886.181 186.049 887.651 186.049 889.121 185.951C889.905 185.951 890.395 185.755 890.64 185.461C890.836 185.118 890.934 184.628 890.787 183.844C890.444 181.492 890.248 179.728 890.248 178.601C890.248 173.897 890.248 167.38 890.248 158.903C890.248 157.972 890.346 156.796 890.542 155.522C890.689 154.885 890.689 154.395 890.591 154.003C890.444 153.611 890.248 153.366 889.905 153.219C889.562 153.072 889.072 152.974 888.435 152.974C886.867 152.925 885.201 152.925 883.388 152.925C882.947 152.925 882.604 152.974 882.359 153.023C882.065 153.121 881.82 153.268 881.575 153.415C881.379 153.611 881.183 153.807 881.036 154.052C880.889 154.297 880.742 154.591 880.595 154.983C879.419 157.923 877.802 160.422 875.695 162.578C875.009 163.264 874.176 163.607 873.196 163.558C872.216 163.558 871.383 163.215 870.697 162.529C870.207 162.039 869.913 161.696 869.717 161.5C867.512 158.07 866.189 155.914 865.699 154.983C865.013 153.66 863.984 153.023 862.661 152.974C862.514 152.974 857.222 152.925 857.075 152.925Z" fill="#35292B"/>
<path d="M23.6671 15.4862C20.2861 15.6472 17.8711 15.8082 16.5831 15.8082C14.0071 15.9692 12.3971 16.4522 11.5921 17.5792C10.6261 18.8672 10.3041 20.6382 10.6261 23.0532C11.4311 29.0102 11.7531 33.5182 11.9141 36.7382C12.2361 48.3302 12.3971 60.8882 12.7191 74.2512C12.7191 76.0222 12.5581 78.4372 12.3971 81.6572C12.2361 84.8772 12.2361 86.8092 12.2361 87.6142C12.0751 92.6052 11.9141 95.5032 12.0751 96.6302C12.8801 102.748 12.7191 109.349 11.7531 116.433C11.2701 119.17 11.5921 121.102 12.2361 122.068C13.0411 123.034 14.8121 123.678 17.3881 123.839C20.2861 124.161 25.4381 124 32.5221 123.517C34.4541 123.356 35.9031 122.873 36.5471 121.907C37.3521 120.941 37.5131 119.492 37.3521 117.399C37.1911 116.594 37.1911 115.467 37.0301 114.018C36.8691 112.569 36.7081 111.281 36.5471 109.993C36.3861 108.866 36.2251 107.739 36.2251 106.773C36.2251 99.6892 36.5471 94.5372 37.0301 91.4782C38.1571 86.0042 41.6991 82.6232 47.4951 81.4962C50.2321 80.8522 53.2911 80.5302 56.5111 80.5302C59.4091 80.5302 63.1121 80.5302 67.9421 80.5302C72.6111 80.6912 76.4751 80.5302 79.2121 80.5302C89.6771 80.0472 98.0491 77.3102 104.328 72.1582C107.548 69.5822 110.124 66.5232 111.895 62.8202C113.827 59.2782 114.954 55.4142 115.276 51.7112C115.598 48.0082 115.598 44.3052 115.115 40.7632C114.471 37.2212 113.666 34.0012 112.217 31.1032C109.802 25.7902 105.616 21.7652 99.6591 19.1892C93.8631 16.6132 85.8131 15.1642 75.3481 15.0032C72.6111 15.0032 57.9601 15.0032 31.3951 15.0032C29.6241 15.0032 27.0481 15.1642 23.6671 15.4862ZM39.4451 50.7452C38.4791 48.1692 39.1231 45.7542 41.0551 43.5002C43.3091 41.2462 45.4021 39.9582 47.6561 39.4752C57.1551 37.7042 66.4931 37.7042 75.6701 39.4752C80.6611 40.6022 83.0761 43.3392 83.0761 48.0082C83.0761 50.1012 82.2711 51.8722 80.8221 53.6432C79.2121 55.2532 77.2801 56.3802 75.0261 56.7022C69.8741 57.8292 66.8151 58.4732 65.6881 58.6342C65.3661 58.6342 63.4341 58.6342 60.2141 58.6342C59.2481 58.4732 58.2821 58.3122 57.1551 58.1512C56.0281 57.9902 55.0621 57.9902 54.0961 57.8292C53.1301 57.6682 52.1641 57.6682 51.1981 57.5072C50.0711 57.3462 49.1051 57.0242 47.9781 56.8632C47.0121 56.5412 46.0461 56.3802 45.0801 56.0582C42.1821 55.2532 40.2501 53.4822 39.4451 50.7452Z" fill="#35292B"/>
<path d="M121.065 117.238C120.904 121.102 122.192 123.195 124.929 123.356C131.53 123.517 137.165 123.517 141.995 123.195C145.537 122.873 147.147 120.619 146.825 116.433C146.342 108.866 146.02 102.426 146.02 97.1132C146.02 94.8592 146.664 92.2832 147.791 89.5462C149.562 85.0382 152.782 82.7842 157.773 82.7842C162.603 82.7842 166.628 84.8772 169.687 89.2242C176.288 98.2402 181.279 107.578 184.499 117.238C185.304 119.653 186.431 121.263 187.558 122.068C188.685 122.873 190.456 123.356 193.032 123.517C193.676 123.517 195.125 123.678 197.218 123.839C199.311 124 200.921 124 202.209 124C204.785 124 207.039 123.839 209.132 123.517C212.191 122.712 213.157 120.78 211.869 117.882C211.708 117.56 211.547 117.238 211.386 116.916C211.225 116.594 210.903 116.272 210.742 115.95C210.581 115.628 210.42 115.306 210.098 115.145C204.624 104.841 201.726 99.2062 201.082 98.2402C196.735 89.2242 198.828 81.9792 207.361 76.6662C208.971 75.5392 210.098 74.8952 210.42 74.5732C217.826 69.7432 222.334 62.8202 223.944 54.1262C224.91 48.4912 224.588 42.3732 222.656 35.6112C220.08 26.2732 214.123 20.4772 204.946 18.2232C198.023 16.7742 192.066 15.9692 187.075 15.8082C181.44 15.6472 162.603 15.6472 130.564 15.6472C128.954 15.6472 127.666 15.8082 126.539 15.9692C123.802 16.2912 122.031 16.9352 121.387 17.9012C120.582 19.0282 120.26 20.9602 120.582 23.6972C121.387 29.6542 121.709 34.4842 121.709 38.5092C121.87 40.7632 121.87 51.7112 121.87 71.6752C121.87 90.0292 121.87 100.494 121.87 102.748C121.709 104.841 121.548 109.671 121.065 117.238ZM154.231 56.0582C150.85 54.6092 149.24 52.0332 149.24 48.3302C149.24 44.9492 151.011 42.3732 154.392 40.6022C156.485 39.6362 158.256 38.9922 160.027 38.9922C162.764 38.9922 170.331 39.3142 182.406 39.6362C182.728 39.6362 183.211 39.7972 184.016 39.7972C186.592 40.4412 188.685 41.5682 190.134 43.0172C191.422 44.4662 192.227 46.3982 192.227 48.4912C192.227 50.5842 191.583 52.3552 190.295 53.8042C189.007 55.4142 187.075 56.3802 184.499 56.8632C182.728 57.1852 179.991 57.5072 176.61 57.6682C173.068 57.8292 170.814 57.8292 169.848 57.9902C164.374 57.9902 161.476 57.9902 161.154 57.8292C158.578 57.6682 156.324 57.0242 154.231 56.0582Z" fill="#35292B"/>
<path d="M263.553 15.3252C246.809 15.3252 237.471 15.3252 235.861 15.4862C232.641 15.4862 230.548 15.9692 229.743 17.0962C228.777 18.0622 228.777 20.1552 229.582 23.2142C230.065 25.4682 230.387 27.2392 230.387 28.5272C231.353 47.8472 231.836 60.2442 231.997 65.7182C232.319 75.5392 232.319 86.1652 231.997 98.0792C231.836 104.358 231.353 109.993 230.548 114.984C229.904 119.009 229.904 121.585 230.709 122.551C231.514 123.517 234.09 124 238.115 124C245.038 124 255.181 123.839 268.383 123.678C281.585 123.356 291.245 123.356 297.363 123.356C299.134 123.195 303.159 123.195 309.438 123.195C315.878 123.195 319.742 123.195 321.513 123.195C323.606 123.195 325.216 123.034 326.343 123.034C328.436 122.551 330.046 121.907 330.851 120.78C331.817 119.814 332.3 118.204 332.3 116.111C332.461 111.603 332.461 107.256 332.3 102.909C332.3 100.816 331.817 99.3672 330.851 98.4012C329.885 97.5962 328.275 97.4352 326.021 97.9182C325.538 97.9182 324.411 98.0792 322.64 98.4012C320.869 98.8842 319.581 99.0452 318.454 99.0452C302.193 99.5282 287.381 99.8502 273.857 99.8502C271.442 100.011 268.705 99.5282 265.646 98.5622C264.841 98.4012 264.036 98.0792 263.231 97.4352C262.426 96.9522 261.782 96.3082 261.299 95.5032C260.816 94.8592 260.333 94.0542 260.011 93.2492C259.689 92.4442 259.528 91.4782 259.528 90.5122C259.528 86.8092 261.46 84.2332 265.163 82.6232C267.256 81.6572 269.349 81.1742 270.959 81.1742C271.442 81.0132 273.535 81.0132 277.077 81.0132C280.78 81.0132 282.712 81.1742 283.195 81.1742C295.27 81.0132 302.998 80.8522 306.218 80.8522C307.345 80.8522 308.472 80.5302 309.438 79.8862C310.565 79.4032 311.37 78.5982 312.014 77.7932C312.658 76.8272 312.98 75.8612 313.141 74.7342C313.463 71.5142 313.302 67.8112 312.98 64.1082C312.658 60.8882 310.726 58.9562 307.506 58.4732C303.964 57.9902 301.388 57.6682 299.778 57.8292C298.007 57.8292 294.626 57.9902 289.635 58.1512C284.644 58.3122 280.941 58.4732 278.204 58.4732C274.501 58.3122 270.315 57.8292 265.968 56.7022C261.943 55.7362 259.689 53.3212 259.528 49.1352C259.206 44.7882 260.977 41.8902 264.841 40.6022C268.383 39.3142 271.764 38.6702 274.984 38.6702C287.22 38.5092 299.617 38.5092 312.175 38.6702C315.073 38.6702 319.581 39.3142 325.377 40.2802C327.631 40.7632 329.241 40.6022 330.368 39.9582C331.334 39.3142 331.978 37.8652 332.139 35.6112C332.461 30.9422 332.461 26.2732 331.978 21.6042C331.817 19.3502 331.173 17.7402 330.207 16.9352C329.08 15.9692 327.47 15.3252 325.216 15.0032C323.928 14.8422 321.352 14.6812 317.488 14.8422C316.683 14.8422 315.556 15.0032 313.946 15.1642C312.497 15.3252 311.209 15.3252 310.404 15.3252C306.701 15.3252 284 15.3252 263.553 15.3252Z" fill="#35292B"/>
<path d="M372.228 123.839C380.761 126.254 389.616 126.898 398.471 125.61C410.224 124.161 420.206 120.136 428.256 113.213C436.467 106.451 441.78 97.5962 444.195 86.3262C446.449 76.1832 446.771 66.0402 445 55.8972C443.068 43.6612 439.204 34.0012 433.73 26.7562C424.07 14.3592 411.19 8.40216 395.09 9.04616C384.142 9.36817 373.999 12.5882 364.5 18.3842C354.035 25.1462 346.468 33.8402 341.477 44.4662C338.74 50.5842 336.969 58.7952 336.164 68.9382C335.681 74.7342 336.003 80.2082 336.808 85.5212C337.13 87.1312 337.452 88.5802 337.774 89.8682C342.926 107.417 354.357 118.687 372.228 123.839ZM383.337 104.841C374.965 102.909 369.008 97.4352 365.305 88.7412C362.729 82.9452 361.924 76.1832 362.407 68.4552C363.373 56.3802 366.271 47.3642 370.94 41.0852C377.863 32.2302 386.396 28.6882 396.7 30.2982C404.106 31.5862 409.902 36.2552 414.088 44.3052C417.63 50.9062 419.079 58.3122 418.918 66.2012C418.918 67.4892 418.918 68.7772 418.918 70.3872C419.401 81.1742 415.376 90.3512 407.004 98.0792C399.598 104.68 391.709 106.934 383.337 104.841Z" fill="#35292B"/>
<path d="M454.064 117.238C453.903 121.102 455.191 123.195 457.928 123.356C464.529 123.517 470.164 123.517 474.994 123.195C478.536 122.873 480.146 120.619 479.824 116.433C479.341 108.866 479.019 102.426 479.019 97.1132C479.019 94.8592 479.663 92.2832 480.79 89.5462C482.561 85.0382 485.781 82.7842 490.772 82.7842C495.602 82.7842 499.627 84.8772 502.686 89.2242C509.287 98.2402 514.278 107.578 517.498 117.238C518.303 119.653 519.43 121.263 520.557 122.068C521.684 122.873 523.455 123.356 526.031 123.517C526.675 123.517 528.124 123.678 530.217 123.839C532.31 124 533.92 124 535.208 124C537.784 124 540.038 123.839 542.131 123.517C545.19 122.712 546.156 120.78 544.868 117.882C544.707 117.56 544.546 117.238 544.385 116.916C544.224 116.594 543.902 116.272 543.741 115.95C543.58 115.628 543.419 115.306 543.097 115.145C537.623 104.841 534.725 99.2062 534.081 98.2402C529.734 89.2242 531.827 81.9792 540.36 76.6662C541.97 75.5392 543.097 74.8952 543.419 74.5732C550.825 69.7432 555.333 62.8202 556.943 54.1262C557.909 48.4912 557.587 42.3732 555.655 35.6112C553.079 26.2732 547.122 20.4772 537.945 18.2232C531.022 16.7742 525.065 15.9692 520.074 15.8082C514.439 15.6472 495.602 15.6472 463.563 15.6472C461.953 15.6472 460.665 15.8082 459.538 15.9692C456.801 16.2912 455.03 16.9352 454.386 17.9012C453.581 19.0282 453.259 20.9602 453.581 23.6972C454.386 29.6542 454.708 34.4842 454.708 38.5092C454.869 40.7632 454.869 51.7112 454.869 71.6752C454.869 90.0292 454.869 100.494 454.869 102.748C454.708 104.841 454.547 109.671 454.064 117.238ZM487.23 56.0582C483.849 54.6092 482.239 52.0332 482.239 48.3302C482.239 44.9492 484.01 42.3732 487.391 40.6022C489.484 39.6362 491.255 38.9922 493.026 38.9922C495.763 38.9922 503.33 39.3142 515.405 39.6362C515.727 39.6362 516.21 39.7972 517.015 39.7972C519.591 40.4412 521.684 41.5682 523.133 43.0172C524.421 44.4662 525.226 46.3982 525.226 48.4912C525.226 50.5842 524.582 52.3552 523.294 53.8042C522.006 55.4142 520.074 56.3802 517.498 56.8632C515.727 57.1852 512.99 57.5072 509.609 57.6682C506.067 57.8292 503.813 57.8292 502.847 57.9902C497.373 57.9902 494.475 57.9902 494.153 57.8292C491.577 57.6682 489.323 57.0242 487.23 56.0582Z" fill="#35292B"/>
<path d="M622.957 124C626.016 124 629.075 123.678 631.973 123.034C634.71 122.551 637.608 121.585 640.345 120.458C643.082 119.17 645.497 117.721 647.751 115.95C662.885 104.68 670.291 88.4192 670.291 67.4892C670.291 57.9902 668.037 48.8132 663.69 39.7972C658.699 30.4592 652.259 23.5362 643.887 19.3502C638.091 16.4522 630.524 14.8422 621.347 14.6812C617.322 14.6812 600.417 14.5202 570.471 14.5202C569.344 14.5202 568.378 14.6812 567.895 14.6812C564.353 15.1642 562.904 17.0962 563.387 20.6382C563.548 20.7992 563.709 21.4432 564.031 22.7312C564.192 23.8582 564.353 24.8242 564.353 25.6292C564.514 28.2052 564.514 33.6792 564.514 42.0512C564.514 74.2512 564.514 93.4102 564.353 99.5282C564.353 104.358 563.87 109.832 562.743 115.95C562.26 119.17 562.421 121.424 563.226 122.39C564.031 123.517 566.124 124 569.183 124C570.793 124 579.809 124 596.392 124C612.975 124 621.669 124 622.957 124ZM589.469 89.5462C588.503 85.5212 587.859 81.4962 587.859 77.6322C587.859 71.8362 588.02 65.0742 588.503 57.3462C588.825 54.1262 589.308 50.9062 590.435 47.6862C591.723 43.9832 594.138 41.4072 597.68 40.2802C608.789 36.4162 619.415 37.2212 629.88 42.3732C635.676 45.2712 640.023 50.5842 642.76 58.3122C645.819 67.3282 645.98 75.5392 643.404 83.1062C640.506 91.8002 634.388 97.1132 625.05 98.8842C624.406 99.0452 620.059 99.5282 611.687 100.333C604.12 99.5282 600.095 99.0452 599.451 98.8842C593.977 97.7572 590.757 94.6982 589.469 89.5462Z" fill="#35292B"/>
<path d="M710.907 15.3252C694.163 15.3252 684.825 15.3252 683.215 15.4862C679.995 15.4862 677.902 15.9692 677.097 17.0962C676.131 18.0622 676.131 20.1552 676.936 23.2142C677.419 25.4682 677.741 27.2392 677.741 28.5272C678.707 47.8472 679.19 60.2442 679.351 65.7182C679.673 75.5392 679.673 86.1652 679.351 98.0792C679.19 104.358 678.707 109.993 677.902 114.984C677.258 119.009 677.258 121.585 678.063 122.551C678.868 123.517 681.444 124 685.469 124C692.392 124 702.535 123.839 715.737 123.678C728.939 123.356 738.599 123.356 744.717 123.356C746.488 123.195 750.513 123.195 756.792 123.195C763.232 123.195 767.096 123.195 768.867 123.195C770.96 123.195 772.57 123.034 773.697 123.034C775.79 122.551 777.4 121.907 778.205 120.78C779.171 119.814 779.654 118.204 779.654 116.111C779.815 111.603 779.815 107.256 779.654 102.909C779.654 100.816 779.171 99.3672 778.205 98.4012C777.239 97.5962 775.629 97.4352 773.375 97.9182C772.892 97.9182 771.765 98.0792 769.994 98.4012C768.223 98.8842 766.935 99.0452 765.808 99.0452C749.547 99.5282 734.735 99.8502 721.211 99.8502C718.796 100.011 716.059 99.5282 713 98.5622C712.195 98.4012 711.39 98.0792 710.585 97.4352C709.78 96.9522 709.136 96.3082 708.653 95.5032C708.17 94.8592 707.687 94.0542 707.365 93.2492C707.043 92.4442 706.882 91.4782 706.882 90.5122C706.882 86.8092 708.814 84.2332 712.517 82.6232C714.61 81.6572 716.703 81.1742 718.313 81.1742C718.796 81.0132 720.889 81.0132 724.431 81.0132C728.134 81.0132 730.066 81.1742 730.549 81.1742C742.624 81.0132 750.352 80.8522 753.572 80.8522C754.699 80.8522 755.826 80.5302 756.792 79.8862C757.919 79.4032 758.724 78.5982 759.368 77.7932C760.012 76.8272 760.334 75.8612 760.495 74.7342C760.817 71.5142 760.656 67.8112 760.334 64.1082C760.012 60.8882 758.08 58.9562 754.86 58.4732C751.318 57.9902 748.742 57.6682 747.132 57.8292C745.361 57.8292 741.98 57.9902 736.989 58.1512C731.998 58.3122 728.295 58.4732 725.558 58.4732C721.855 58.3122 717.669 57.8292 713.322 56.7022C709.297 55.7362 707.043 53.3212 706.882 49.1352C706.56 44.7882 708.331 41.8902 712.195 40.6022C715.737 39.3142 719.118 38.6702 722.338 38.6702C734.574 38.5092 746.971 38.5092 759.529 38.6702C762.427 38.6702 766.935 39.3142 772.731 40.2802C774.985 40.7632 776.595 40.6022 777.722 39.9582C778.688 39.3142 779.332 37.8652 779.493 35.6112C779.815 30.9422 779.815 26.2732 779.332 21.6042C779.171 19.3502 778.527 17.7402 777.561 16.9352C776.434 15.9692 774.824 15.3252 772.57 15.0032C771.282 14.8422 768.706 14.6812 764.842 14.8422C764.037 14.8422 762.91 15.0032 761.3 15.1642C759.851 15.3252 758.563 15.3252 757.758 15.3252C754.055 15.3252 731.354 15.3252 710.907 15.3252Z" fill="#35292B"/>
<path d="M787.221 117.238C787.06 121.102 788.348 123.195 791.085 123.356C797.686 123.517 803.321 123.517 808.151 123.195C811.693 122.873 813.303 120.619 812.981 116.433C812.498 108.866 812.176 102.426 812.176 97.1132C812.176 94.8592 812.82 92.2832 813.947 89.5462C815.718 85.0382 818.938 82.7842 823.929 82.7842C828.759 82.7842 832.784 84.8772 835.843 89.2242C842.444 98.2402 847.435 107.578 850.655 117.238C851.46 119.653 852.587 121.263 853.714 122.068C854.841 122.873 856.612 123.356 859.188 123.517C859.832 123.517 861.281 123.678 863.374 123.839C865.467 124 867.077 124 868.365 124C870.941 124 873.195 123.839 875.288 123.517C878.347 122.712 879.313 120.78 878.025 117.882C877.864 117.56 877.703 117.238 877.542 116.916C877.381 116.594 877.059 116.272 876.898 115.95C876.737 115.628 876.576 115.306 876.254 115.145C870.78 104.841 867.882 99.2062 867.238 98.2402C862.891 89.2242 864.984 81.9792 873.517 76.6662C875.127 75.5392 876.254 74.8952 876.576 74.5732C883.982 69.7432 888.49 62.8202 890.1 54.1262C891.066 48.4912 890.744 42.3732 888.812 35.6112C886.236 26.2732 880.279 20.4772 871.102 18.2232C864.179 16.7742 858.222 15.9692 853.231 15.8082C847.596 15.6472 828.759 15.6472 796.72 15.6472C795.11 15.6472 793.822 15.8082 792.695 15.9692C789.958 16.2912 788.187 16.9352 787.543 17.9012C786.738 19.0282 786.416 20.9602 786.738 23.6972C787.543 29.6542 787.865 34.4842 787.865 38.5092C788.026 40.7632 788.026 51.7112 788.026 71.6752C788.026 90.0292 788.026 100.494 788.026 102.748C787.865 104.841 787.704 109.671 787.221 117.238ZM820.387 56.0582C817.006 54.6092 815.396 52.0332 815.396 48.3302C815.396 44.9492 817.167 42.3732 820.548 40.6022C822.641 39.6362 824.412 38.9922 826.183 38.9922C828.92 38.9922 836.487 39.3142 848.562 39.6362C848.884 39.6362 849.367 39.7972 850.172 39.7972C852.748 40.4412 854.841 41.5682 856.29 43.0172C857.578 44.4662 858.383 46.3982 858.383 48.4912C858.383 50.5842 857.739 52.3552 856.451 53.8042C855.163 55.4142 853.231 56.3802 850.655 56.8632C848.884 57.1852 846.147 57.5072 842.766 57.6682C839.224 57.8292 836.97 57.8292 836.004 57.9902C830.53 57.9902 827.632 57.9902 827.31 57.8292C824.734 57.6682 822.48 57.0242 820.387 56.0582Z" fill="#35292B"/>
</svg>
