<svg width="24" height="24" viewBox="0 0 24 24" fill="none" xmlns="http://www.w3.org/2000/svg">
<path d="M11.9995 0.0395508C5.39245 0.0395508 0.0361633 5.39569 0.0361633 12.0027C0.0361633 18.61 5.39245 23.9657 11.9995 23.9657C18.6072 23.9657 23.9629 18.61 23.9629 12.0027C23.9629 5.39612 18.6072 0.0401222 11.9993 0.0401222L11.9995 0.0395508V0.0395508ZM17.4857 17.2938C17.2715 17.6453 16.8115 17.7567 16.46 17.541C13.6512 15.8253 10.1152 15.4367 5.95088 16.3881C5.54959 16.4796 5.14959 16.2281 5.05816 15.8267C4.96631 15.4253 5.21674 15.0253 5.61902 14.9338C10.1762 13.8923 14.0852 14.341 17.2386 16.2681C17.59 16.4838 17.7015 16.9424 17.4857 17.2938V17.2938ZM18.95 14.036C18.68 14.4753 18.1057 14.6138 17.6672 14.3438C14.4514 12.3668 9.54959 11.7944 5.74602 12.949C5.25274 13.098 4.73174 12.82 4.58202 12.3276C4.43345 11.8343 4.71159 11.3143 5.20402 11.1643C9.54874 9.84598 14.95 10.4846 18.6429 12.7538C19.0814 13.0238 19.22 13.5981 18.95 14.0361V14.036ZM19.0757 10.644C15.22 8.35384 8.85859 8.14327 5.17731 9.26055C4.58616 9.43984 3.96102 9.10612 3.78188 8.51498C3.60273 7.92355 3.93616 7.29884 4.52773 7.11912C8.75359 5.83627 15.7786 6.08412 20.2177 8.71941C20.7506 9.03498 20.9249 9.72169 20.6092 10.2527C20.2949 10.7844 19.6063 10.9597 19.0763 10.644H19.0757Z" fill="white"/>
</svg>
